<svg width="144" height="144" viewBox="0 0 144 144" fill="none" xmlns="http://www.w3.org/2000/svg">
<g clip-path="url(#clip0_2558_3963)">
<path d="M72.9256 28.7528C72.4846 29.2478 71.1614 31.6261 70.7617 32.6571C69.9624 34.7193 69.9761 34.6369 69.8796 45.3739L69.8107 55.3135H70.8306H71.8507L71.9057 45.3739C71.947 37.2352 71.9885 35.283 72.1676 34.5543C72.4157 33.4546 73.1326 31.2548 73.2428 31.2548C73.3669 31.2548 74.1938 33.7157 74.4418 34.8293C74.6211 35.7092 74.6624 37.2626 74.7177 45.4976L74.7727 55.1485L75.2826 55.2311C75.5585 55.2724 75.9995 55.3135 76.2475 55.3135H76.6886V45.6489C76.6886 37.8814 76.6473 35.8192 76.4956 35.0769C76.1097 33.317 74.9933 30.9798 73.6838 29.2339C73.1739 28.5602 73.1326 28.5192 72.9256 28.7528Z" fill="#1D1D1D"/>
<path d="M78.756 39.8727C78.756 40.519 78.8526 40.8488 79.2936 41.7013C80.5202 44.0383 81.3058 47.0078 81.7195 50.8023L81.8021 51.5722L82.4499 51.2833C82.9461 51.0494 83.3596 50.981 84.2693 50.981C85.3031 50.981 85.5511 51.0358 86.3369 51.407C86.833 51.6407 87.5084 52.067 87.8531 52.3417C88.5974 52.933 88.6524 52.8506 88.4044 51.3386C87.5636 46.1281 84.4899 41.88 79.9001 39.5841C79.3486 39.3091 78.8663 39.0891 78.825 39.0891C78.7836 39.0891 78.756 39.4465 78.756 39.8727ZM80.8924 41.1374C81.5817 41.5772 82.4914 42.2647 82.9185 42.6497C84.5175 44.0931 86.1576 46.6778 86.8606 48.8501C87.1914 49.8537 87.4395 50.9123 87.3569 50.9123C87.3156 50.9123 86.9984 50.761 86.6402 50.5823C85.62 50.06 84.4486 49.8672 83.4148 50.0458C82.8635 50.1284 82.5188 50.1423 82.4638 50.06C82.4086 49.9774 82.3397 49.5648 82.2984 49.1111C82.0503 46.7876 81.0026 43.241 79.9966 41.3163C79.7207 40.7801 79.5279 40.3264 79.5692 40.3264C79.6244 40.3264 80.217 40.6838 80.8924 41.1374Z" fill="#1D1D1D"/>
<path d="M66.93 39.4986C65.9101 39.9522 64.1183 41.2034 63.0845 42.1658C60.5897 44.4753 58.8944 47.6786 58.2879 51.1568C58.1638 51.858 58.0812 52.4904 58.1086 52.5727C58.1362 52.6416 58.4946 52.4491 58.9081 52.133C60.3417 51.0468 61.6785 50.6618 63.0982 50.9231C63.5531 51.0055 64.1044 51.1568 64.325 51.2804C64.5455 51.3904 64.7524 51.4454 64.8074 51.4044C64.8487 51.3631 64.9591 50.5931 65.0693 49.7132C65.4002 46.7986 66.4064 43.3204 67.4676 41.4645C67.7709 40.9009 67.8674 40.5709 67.8674 39.9798C67.8674 39.1275 67.8121 39.0999 66.93 39.4986ZM66.6268 41.0245C65.6482 42.8531 64.7661 45.6989 64.3387 48.4759L64.1044 49.9745L63.6773 49.8782C62.2024 49.5758 60.9894 49.7271 59.7352 50.3594L59.17 50.6481L59.2526 50.2631C59.6248 48.5722 60.5621 46.4139 61.5683 44.9427C62.2437 43.9391 63.8427 42.2618 64.7109 41.6295C65.4967 41.0385 66.93 40.1722 66.999 40.2272C67.0129 40.2548 66.8611 40.6122 66.6268 41.0245Z" fill="#1D1D1D"/>
<path d="M61.9952 41.1204C56.9917 44.1173 53.725 48.9704 53.1737 54.2083L53.0911 55.1019L53.5459 54.6758C54.2489 54.0159 55.1447 53.6309 56.1096 53.5485L56.978 53.4796V52.7649C56.978 51.1839 57.6671 48.3931 58.5079 46.5232C59.1695 45.0659 60.672 42.9489 61.9539 41.6567C62.6153 40.9967 63.1392 40.4604 63.1253 40.4604C63.0979 40.4604 62.5877 40.7491 61.9952 41.1204ZM57.7912 46.1522C57.1847 47.4581 56.5093 49.8777 56.3576 51.3487C56.275 52.0773 56.2061 52.2836 56.027 52.2836C55.9029 52.2973 55.4755 52.4073 55.0757 52.5449L54.3315 52.806L54.428 52.2973C54.6347 51.1976 55.4066 49.1904 56.0683 48.0355C56.6884 46.9495 58.2322 44.8186 58.3287 44.9149C58.3424 44.9423 58.1081 45.4922 57.7912 46.1522Z" fill="#1D1D1D"/>
<path d="M84.9723 41.9317C86.6539 43.6913 87.922 45.7259 88.7352 47.9944C89.1763 49.218 89.6449 51.4726 89.6449 52.3799C89.6449 53.5622 89.7138 53.6585 90.527 53.6585C91.3402 53.6585 92.1397 53.9885 92.8427 54.6072L93.3527 55.0469L93.2699 54.2496C93.1596 53.081 92.6221 51.0877 92.0708 49.7404C90.7201 46.4409 87.729 43.045 84.476 41.148C83.98 40.8591 84.035 40.928 84.9723 41.9317ZM89.8517 47.2519C90.2651 47.8844 90.8303 48.8604 91.0922 49.4378C91.5746 50.4827 92.3465 52.9299 92.2223 53.0536C92.1673 53.1086 91.7263 53.026 90.6649 52.7649C90.5823 52.7373 90.4718 52.2423 90.4168 51.6376C90.3064 50.3177 89.9482 48.8604 89.3278 47.2108C89.0661 46.5232 88.9143 46.0009 88.9695 46.0422C89.0385 46.0696 89.4243 46.6195 89.8517 47.2519Z" fill="#1D1D1D"/>
<path d="M78.7697 46.6777L78.756 49.9222L79.4175 50.2934C79.776 50.4995 80.1757 50.7745 80.3135 50.8845C80.5339 51.0771 80.5479 51.0632 80.5479 50.6782C80.5479 49.3585 79.6105 45.2204 79.0317 43.9694L78.7836 43.4194L78.7697 46.6777Z" fill="#1D1D1D"/>
<path d="M67.5498 44.0914C67.0535 45.205 66.3505 48.2157 66.1438 50.1542L66.0336 51.1028L66.4194 50.8555C66.64 50.7179 67.0122 50.4842 67.2602 50.3329L67.7013 50.0718L67.7978 48.1196C67.8393 47.0473 67.8667 45.5761 67.8393 44.8614L67.7978 43.5552L67.5498 44.0914Z" fill="#1D1D1D"/>
<path d="M30.5558 51.4887C30.5834 51.585 30.7901 52.2173 30.9969 52.9049C31.9205 55.9568 33.4227 58.0741 35.6282 59.4763C37.3098 60.5349 40.4111 62.0472 40.8934 62.0472C41.8308 62.0472 41.8721 61.9509 41.2104 61.1673C40.8795 60.7823 40.3007 59.985 39.9285 59.4076C39.5564 58.8164 39.1981 58.3764 39.1566 58.4314C39.1016 58.4727 39.0601 58.7064 39.0601 58.9401C39.0601 59.7924 38.881 59.7924 37.9989 58.9401C37.0203 57.9778 36.469 57.1804 35.7245 55.6955C35.38 55.0082 34.87 54.2933 34.429 53.8259C33.5882 52.9873 33.5056 52.7673 34.0705 52.9049C35.38 53.2349 37.7094 54.3483 44.8216 58.1014C49.2186 60.4249 52.8575 62.322 52.8988 62.322C52.9401 62.322 52.9814 61.9096 52.9814 61.3873V60.466L50.6659 59.2563C49.3978 58.5964 46.3517 57.0017 43.8845 55.7232C38.0678 52.6849 36.331 52.025 32.8576 51.53C31.0382 51.2826 30.4593 51.2687 30.5558 51.4887Z" fill="#1D1D1D"/>
<path d="M78.756 53.3691C78.756 55.3761 78.756 55.4174 79.073 55.5C79.6794 55.6648 79.9827 55.5961 80.0655 55.2661C80.1068 55.1011 80.2583 54.4688 80.3961 53.8638L80.6581 52.7641L80.3548 52.4342C80.0655 52.1179 78.9765 51.3206 78.8386 51.3206C78.7973 51.3206 78.756 52.2418 78.756 53.3691Z" fill="#1D1D1D"/>
<path d="M114.455 51.4185C113.435 51.5284 111.574 51.8995 110.43 52.2295C108.486 52.7657 106.764 53.5768 99.9821 57.1376L93.5728 60.5058L93.5315 61.4957C93.4902 62.403 93.5039 62.458 93.7383 62.348C110.471 53.5081 109.837 53.838 111.464 53.2607C113.256 52.6281 113.311 52.6831 112.18 53.8243C111.684 54.3193 111.216 54.9929 110.802 55.8316C110.113 57.1925 108.955 58.7735 108.211 59.3372C107.673 59.7495 107.563 59.7084 107.549 59.1035C107.535 58.2099 107.384 58.1549 106.97 58.9248C106.764 59.3235 106.199 60.1484 105.702 60.767C104.765 61.963 104.765 62.0454 105.73 62.0454C106.309 62.0454 110.485 59.8871 111.671 58.9798C113.449 57.6186 114.703 55.749 115.502 53.2607C115.778 52.3808 116.04 51.5834 116.081 51.4871C116.136 51.3222 115.599 51.2948 114.455 51.4185Z" fill="#1D1D1D"/>
<path d="M66.834 52.0246C66.4482 52.3409 66.1173 52.6432 66.0897 52.7258C66.0347 52.8908 66.6273 55.4754 66.7514 55.6267C66.8064 55.6817 67.0546 55.6817 67.289 55.6404L67.73 55.5441V53.5095C67.73 52.3822 67.6887 51.4609 67.6198 51.4609C67.5646 51.4609 67.2061 51.7085 66.834 52.0246Z" fill="#1D1D1D"/>
<path d="M60.7134 52.3698C59.8726 52.7548 58.5355 53.8271 58.3425 54.2671C58.2323 54.5009 58.3288 54.8446 58.825 55.8893L59.4452 57.2092L60.5203 56.9342C61.1131 56.7829 62.45 56.4806 63.4975 56.2743C64.545 56.0543 65.441 55.8619 65.4686 55.8206C65.4962 55.7932 65.3997 55.147 65.2343 54.4046C65 53.3047 64.8759 52.9887 64.5865 52.7411C63.6492 51.9575 61.94 51.7925 60.7134 52.3698Z" fill="#1D1D1D"/>
<path d="M83.7863 52.1063C83.1385 52.2576 82.2562 52.5876 82.0218 52.7526C81.8703 52.8623 81.6636 53.3849 81.5119 54.0172C81.0571 55.9419 80.8504 55.6808 83.3726 56.2032C84.5855 56.4507 85.9365 56.7531 86.3776 56.8905C86.8186 57.0144 87.2184 57.0831 87.2597 57.0418C87.3975 56.9181 88.4037 54.6909 88.4037 54.5259C88.4037 54.2372 86.8323 52.9449 85.9915 52.56C85.1507 52.1613 84.2823 51.9826 83.7863 52.1063Z" fill="#1D1D1D"/>
<path d="M55.4905 54.7861C54.9803 54.9511 53.9604 55.8034 53.5194 56.4223L53.23 56.8347L53.8639 57.797C54.2224 58.3332 54.5808 58.7319 54.6771 58.7043C54.7736 58.6769 55.6007 58.4019 56.5241 58.1133C57.4614 57.8107 58.2194 57.522 58.2194 57.4533C58.2194 57.357 57.1445 54.8961 57.0617 54.8C56.9515 54.6761 55.8487 54.6624 55.4905 54.7861Z" fill="#1D1D1D"/>
<path d="M89.7002 54.866C89.5347 54.962 88.3631 57.3819 88.4457 57.4505C88.4596 57.4642 89.1626 57.7255 89.9895 58.0279C90.8303 58.3303 91.6022 58.6191 91.7263 58.6602C91.8778 58.7291 92.1121 58.4952 92.5808 57.7942L93.2149 56.8456L92.8288 56.3093C92.2912 55.5807 91.8641 55.2233 91.2713 54.962C90.7338 54.7423 89.9619 54.6873 89.7002 54.866Z" fill="#1D1D1D"/>
<path d="M70.3474 57.1931C67.577 57.3857 63.7038 58.0455 60.6991 58.8291C58.797 59.324 55.2684 60.4377 54.9376 60.6576C54.7861 60.7539 54.7585 62.2525 54.8135 69.0026C54.8687 76.6189 54.8963 77.3476 55.1582 78.7499C55.9025 82.6954 57.3498 86.0636 59.6102 89.1295C60.768 90.7104 63.5108 93.3913 65.1098 94.5186C65.8265 95.0272 67.0118 95.7422 67.7285 96.1272C69.2586 96.9245 72.8974 98.4781 73.242 98.4781C73.6004 98.4781 78.2868 96.4158 79.3756 95.7696C85.5368 92.154 89.6993 86.3523 91.1879 79.2859C91.4911 77.8286 91.505 77.5263 91.5463 69.2226L91.5877 60.6713L90.9262 60.3827C87.563 58.9391 81.9256 57.6057 77.5838 57.2344C76.0676 57.1107 71.836 57.0831 70.3474 57.1931ZM71.4088 61.345L73.2283 61.7436L75.337 61.4826C77.3355 61.2489 77.694 61.2489 82.1323 61.4413C84.7097 61.5513 86.9426 61.6476 87.0943 61.6749C87.2734 61.6886 86.6946 62.1149 85.4816 62.8712C84.4341 63.5172 83.5796 64.0671 83.5796 64.1084C83.5796 64.1495 83.7587 64.3008 83.9791 64.4245C84.2135 64.5621 84.751 64.9882 85.1784 65.3731C87.7145 67.6827 89.0103 71.2022 88.762 75.1067C88.6518 77.0313 88.5416 77.7186 88.3486 77.7186C88.266 77.705 87.9764 77.5263 87.7145 77.2926L87.2321 76.88L87.1493 78.3786C87.0391 80.0558 86.7359 81.6918 86.2398 83.2041C85.7849 84.6064 84.6821 87.2048 84.5443 87.2048C84.4893 87.2048 83.9517 86.3936 83.3727 85.4037L82.2978 83.589L82.0495 84.6064C81.7326 85.8849 80.6298 88.0982 79.734 89.2808C79.348 89.7755 78.59 90.6141 78.0385 91.1367C77.0875 92.0303 72.9939 95.3159 72.8285 95.3159C72.7872 95.3159 73.0352 93.4187 73.3798 91.0817C73.7382 88.7582 73.9999 86.8336 73.9726 86.7923C73.945 86.7649 71.7671 86.696 69.1484 86.6549L64.3655 86.5862L65.1235 86.0223C66.2675 85.1563 67.9078 83.7127 67.77 83.6716C67.7148 83.6577 66.5847 83.809 65.2752 84.029C63.9658 84.2353 62.9182 84.359 62.9319 84.304C62.9595 84.249 63.5523 83.534 64.269 82.723L65.5645 81.2518L64.6824 81.3481C63.6762 81.4581 63.6073 81.5268 62.5461 83.1904C62.2015 83.7403 61.8707 84.1527 61.8018 84.1114C61.7466 84.084 61.6501 84.249 61.6088 84.4964C61.5123 84.9089 61.471 84.84 60.8921 83.4241C59.6102 80.2895 58.8383 77.32 58.659 74.9417C58.604 74.1994 58.5764 73.5944 58.604 73.5944C58.6729 73.5944 60.4234 74.8317 60.9058 75.2167C61.2779 75.5327 61.3055 75.5327 61.4021 75.2991C61.457 75.148 61.5123 74.8041 61.5123 74.5154L61.5262 73.9931L61.9396 74.2131C62.4633 74.488 62.4633 74.4741 62.3807 74.0618C62.3118 73.6494 62.5185 73.4568 63.0697 73.4568C63.3869 73.4568 63.4971 73.3468 63.7314 72.8245C64.0071 72.2058 64.076 71.8072 63.9381 71.8072C63.8968 71.8072 63.7038 71.9035 63.5247 72.0271L63.1802 72.2471V71.6009C63.1802 71.0235 63.1526 70.9685 62.9043 71.0509C62.67 71.1198 62.5874 71.0372 62.4083 70.6249L62.1876 70.1162L61.3607 71.3809C60.8921 72.0685 60.4784 72.6045 60.4371 72.5632C60.3958 72.5221 60.3269 72.1921 60.2856 71.8346L60.2167 71.1885L59.6378 72.2195C58.9623 73.4294 59.0588 73.6218 58.5627 70.0199C58.3697 68.6176 58.1491 67.3527 58.0665 67.2154C57.7493 66.6654 57.7769 65.3181 58.1354 63.3659C58.3284 62.3212 58.5075 61.4413 58.5351 61.4139C58.5627 61.3863 59.4035 61.6336 60.4095 61.9775C61.4021 62.3212 62.4496 62.5962 62.7389 62.5962C63.0148 62.5962 63.4558 62.6512 63.7177 62.7336C64.1588 62.8572 64.2414 62.8299 64.9168 62.2386L65.6474 61.6199L66.3088 61.8536L66.9705 62.0736L68.0043 61.455C68.6108 61.0839 69.1484 60.8639 69.3136 60.8913C69.4653 60.9326 70.4026 61.125 71.4088 61.345Z" fill="#1D1D1D"/>
<path d="M68.088 61.9922L66.9852 62.6382L66.3788 62.4183L65.7723 62.1846L65.0556 62.8032C64.5457 63.2569 64.2837 63.4082 64.077 63.3532C63.9253 63.2982 63.374 63.2158 62.8365 63.1469C62.3128 63.0919 61.2238 62.8169 60.4382 62.5282C59.6526 62.2533 58.9633 62.0746 58.9083 62.1433C58.8531 62.1983 58.674 63.0508 58.5085 64.0405C58.2329 65.7178 58.219 66.6664 58.5085 66.859C58.5635 66.9001 58.7566 67.9174 58.922 69.1273C59.0874 70.3372 59.2665 71.3819 59.3354 71.4506C59.3906 71.5195 59.6663 71.1069 59.9558 70.5572L60.4795 69.5396L60.5897 70.2959C60.6588 70.7082 60.7277 71.1069 60.7414 71.1895C60.769 71.2582 61.1272 70.8045 61.5546 70.1859L62.3128 69.0449L62.6021 69.7596C62.8501 70.3233 62.9467 70.4472 63.1397 70.3646C63.2775 70.3096 63.4705 70.2409 63.567 70.1996C63.6773 70.1446 63.7325 70.2959 63.7325 70.6945C63.7325 71.2308 63.7462 71.2582 64.0218 71.1208C64.1735 71.0245 64.325 70.9832 64.3526 71.0108C64.3939 71.0658 64.6972 72.7978 64.6972 73.0317C64.6972 73.1417 64.6007 73.1691 64.4352 73.1141C64.2424 73.0591 64.1459 73.1278 64.0357 73.4441C63.9253 73.7604 63.7875 73.8704 63.4016 73.9391C62.9193 74.0354 62.9193 74.0354 63.0019 74.6401C63.0845 75.2863 63.0295 75.3413 62.4919 75.0388C62.2989 74.929 62.1059 74.8464 62.0509 74.8327C61.982 74.8327 61.9407 75.2726 61.9407 75.8087V76.7849L61.0859 76.0424C60.1901 75.2727 59.4043 74.6951 59.2665 74.6951C59.2252 74.6951 59.1839 74.9838 59.1839 75.3276C59.1839 76.5923 60.3004 80.7442 61.1272 82.614L61.4305 83.2877L61.5683 82.6964C61.7337 82.0091 61.8715 81.9541 61.9957 82.5451L62.0785 82.9851L62.6021 82.174C62.8917 81.7341 63.2362 81.2804 63.3603 81.1841C63.5531 81.0191 66.6131 80.5381 66.7096 80.6481C66.7372 80.6755 66.1858 81.3217 65.4967 82.0914C64.8213 82.8751 64.2837 83.5487 64.3389 83.59C64.4078 83.6587 68.9288 83.0127 69.3835 82.8614C69.6868 82.7514 69.1216 83.315 67.385 84.8136L65.8136 86.1746L70.2106 86.2159C72.6365 86.2296 74.6214 86.2572 74.6214 86.2846C74.6214 86.2983 74.3455 88.0718 74.0149 90.2301C73.684 92.3887 73.4221 94.1622 73.4497 94.1896C73.5875 94.3409 77.7776 90.7801 78.6321 89.7904C80.4515 87.6869 81.5819 85.336 81.8575 83.0538C81.9127 82.614 82.0093 82.284 82.0642 82.3251C82.1195 82.3527 82.6846 83.26 83.3185 84.3187L84.4764 86.2572L84.8347 85.4597C86.0476 82.8064 86.6404 80.2492 86.6541 77.6235L86.668 75.8224L87.371 76.3723L88.0601 76.9223L88.1427 76.5236C88.3357 75.7124 88.2668 72.6192 88.0464 71.5606C87.4673 68.7149 85.7583 66.1577 83.4565 64.6731L82.5881 64.1231L83.8148 63.3395C84.4764 62.9132 85.1794 62.4733 85.3448 62.3633C85.524 62.2533 85.6481 62.1433 85.6205 62.1159C85.6066 62.1022 83.8148 61.9922 81.6508 61.9096C78.0809 61.7446 77.5157 61.7585 75.3793 61.9783L73.0363 62.2259L71.3821 61.8546C70.4726 61.6485 69.6042 61.4559 69.4524 61.4146C69.287 61.3873 68.7358 61.6072 68.088 61.9922ZM71.134 63.1608L72.5537 63.4632L75.1313 63.0782L77.7226 62.7069L79.5557 62.9545L81.3889 63.2158L80.2172 64.6181C79.5694 65.3878 79.0319 66.0614 79.0319 66.1027C79.0319 66.144 79.4868 65.8691 80.0381 65.4978L81.0443 64.8241L82.0092 65.3191C83.4289 66.0614 85.014 67.6837 85.7444 69.196C86.4198 70.5709 86.7506 71.7532 86.8471 73.1828L86.916 74.214L86.1441 73.4578L85.3722 72.7155V74.5577C85.3722 75.575 85.2757 77.211 85.1655 78.1872C84.9725 79.8645 84.4901 82.2427 84.2834 82.6414C84.2145 82.7651 83.7045 82.1464 82.8085 80.8818L81.4441 78.9295L81.3339 79.3969C80.5344 82.5451 79.5145 85.0747 78.3428 86.7932C77.6398 87.8245 76.3993 89.1168 76.3167 88.9105C76.2891 88.8279 76.4545 87.5906 76.6888 86.1746C76.9231 84.7449 77.0886 83.5763 77.061 83.5487C77.047 83.5213 75.4346 83.7687 73.491 84.0987L69.9487 84.6899L70.2106 84.3323C70.3621 84.14 70.9962 83.3563 71.644 82.6001C72.2781 81.8441 72.788 81.2117 72.7743 81.1978C72.7743 81.1978 71.7129 81.2941 70.4174 81.4454C67.0818 81.8028 67.3298 81.8991 68.143 80.6342L68.8184 79.5756L66.8061 79.0808C64.587 78.5309 64.587 78.5583 66.8198 78.2559L68.0328 78.1046L69.0527 77.1423C69.6179 76.606 70.0728 76.1937 70.0728 76.2213C70.0589 76.2487 69.9211 76.8673 69.742 77.5822C69.5629 78.2972 69.4248 78.9019 69.4387 78.9158C69.4524 78.9295 70.2382 78.7369 71.1893 78.4759C72.1266 78.2146 72.9122 77.9946 72.9398 77.9946C72.9672 77.9946 72.9398 78.1322 72.8982 78.2972C72.8156 78.572 72.8569 78.5583 73.1602 78.2009C73.6288 77.6646 74.0975 77.0323 74.0423 77.0323C74.0149 77.0323 73.2567 77.2797 72.347 77.5822C71.4512 77.8846 70.693 78.1046 70.6793 78.0909C70.6517 78.0633 70.9686 77.156 71.3821 76.0563C71.7957 74.9701 72.1266 74.0354 72.099 73.9941C72.0851 73.9391 70.5 74.599 68.5703 75.4513L65.0693 76.991L63.636 78.6682C62.6849 79.7955 62.2163 80.4555 62.2163 80.6892C62.2163 81.1291 62.0233 81.1154 61.8026 80.6342L61.6235 80.2631L61.5133 80.9228C61.4581 81.2941 61.3892 81.6241 61.3479 81.6515C61.1688 81.8304 60.0384 77.1423 60.1762 76.7573C60.2175 76.6199 61.8715 77.8572 61.913 78.0633C61.9267 78.1322 61.6511 78.2422 61.2927 78.2833C60.6588 78.3659 60.6725 78.3659 61.5546 78.3796C62.0509 78.3933 62.5608 78.4483 62.6849 78.4896C62.8364 78.5446 63.0708 78.2146 63.6083 77.1423C63.9942 76.3723 64.3802 75.685 64.4352 75.6437C64.5044 75.6026 65.1658 75.4513 65.9101 75.3L67.2472 75.0388L66.4477 74.9977L65.6345 74.9564L65.8551 74.6264C66.0479 74.3377 66.0479 74.2964 65.8688 74.3651C65.7034 74.434 65.6621 74.324 65.6621 73.7604C65.6621 72.0144 64.9178 69.1273 64.0081 67.34C63.7049 66.7351 63.4842 66.3501 63.5118 66.474C63.5807 66.7351 63.6773 66.749 62.23 66.1853C61.5822 65.9241 61.5133 65.9104 61.6787 66.1164C61.8578 66.3364 61.8302 66.3501 61.1825 66.2403C60.8103 66.1853 60.1486 66.089 59.7352 66.0477C59.0461 65.9791 58.9772 65.9378 58.9357 65.6078C58.8668 65.0441 59.115 64.5905 59.7904 64.0405L60.4245 63.5319L61.3066 63.7655C61.8854 63.9168 62.3954 63.9718 62.7538 63.9168C63.0571 63.8755 63.622 63.9031 63.9942 63.9855C64.6835 64.1231 64.7111 64.1231 65.276 63.6555L65.8551 63.1745L66.3512 63.5045L66.8611 63.8344L68.0191 63.2845C68.6532 62.9819 69.3009 62.7619 69.4524 62.7895C69.6042 62.8169 70.3621 62.9819 71.134 63.1608ZM61.4168 66.7627C63.0571 67.3537 64.0494 67.835 64.1183 68.0824C64.1735 68.2337 64.1183 68.2474 63.9253 68.165C63.7738 68.0963 63.3877 68.0274 63.0432 67.9863C62.5745 67.945 62.3128 67.8213 61.9267 67.45C61.527 67.0788 61.3616 66.9964 61.0859 67.0651C60.8655 67.12 60.5623 67.0651 60.2864 66.9277C60.0523 66.804 59.818 66.7351 59.7628 66.7764C59.7215 66.8177 59.7628 66.859 59.8454 66.859C59.9282 66.859 60.1073 67.0101 60.2314 67.2027C60.4382 67.5187 60.4382 67.6013 60.0797 68.5773C59.873 69.141 59.6526 69.6085 59.5974 69.6085C59.5422 69.6085 59.4596 68.976 59.4043 68.2063C59.3493 67.4363 59.2389 66.694 59.17 66.5564C59.0461 66.3364 59.1011 66.309 59.5837 66.309C59.8869 66.309 60.7138 66.5151 61.4168 66.7627ZM61.72 67.6426C61.982 68 61.982 68 61.5683 68.8249L61.1548 69.6635L61.0583 68.6599C61.0033 67.9724 61.017 67.5876 61.1272 67.4637C61.3479 67.2026 61.4168 67.23 61.72 67.6426ZM63.9805 68.756C64.3802 69.1273 64.5594 69.4023 64.5594 69.6496C64.5594 70.1309 64.4768 70.1172 64.2148 69.6085C64.0081 69.2097 63.9942 69.196 63.6083 69.4023C63.2086 69.5946 63.2086 69.5946 63.0571 69.1686C62.6849 68.11 63.0845 67.9313 63.9805 68.756ZM64.9454 74.1727C65.2347 74.4614 65.1245 74.7914 64.6972 74.9701C64.4628 75.0664 64.1872 75.2587 64.0907 75.41C63.9116 75.6576 63.8979 75.6576 63.8151 75.3276C63.7738 75.1488 63.6909 74.8877 63.636 74.7501C63.567 74.5577 63.6083 74.5301 63.9253 74.5851C64.2285 74.6401 64.325 74.599 64.4215 74.3377C64.5733 73.9664 64.6972 73.9254 64.9454 74.1727ZM63.2775 76.2487L63.5947 76.4273L63.1949 77.2386C62.8641 77.8983 62.7812 77.9946 62.7812 77.7059C62.7675 77.5136 62.7262 77.0599 62.6849 76.7023C62.5884 76.015 62.6986 75.9324 63.2775 76.2487Z" fill="#1D1D1D"/>
<path d="M77.8606 63.6962C76.4547 63.8338 74.9798 64.2461 74.9248 64.5348C74.8972 64.6998 75.1867 64.7824 76.3721 64.9748C78.15 65.2634 78.1363 65.2634 77.9432 65.0161C77.8191 64.8648 77.8743 64.7961 78.2328 64.6448L78.6875 64.4524L77.7228 64.3835L76.7579 64.3148L77.8606 64.0674C78.4671 63.9299 79.1562 63.7649 79.3768 63.7099L79.7903 63.5862L79.3768 63.5999C79.1562 63.5999 78.4671 63.6412 77.8606 63.6962Z" fill="#1D1D1D"/>
<path d="M66.1727 64.601C65.6625 65.0683 65.6488 65.0959 65.8831 65.357C66.1175 65.6183 66.1175 65.6183 65.5799 65.412C64.9045 65.1509 64.9734 65.192 67.1237 66.7319C68.7777 67.9005 69.7976 68.9041 71.1484 70.6775C71.617 71.3098 72.0028 71.7224 72.0028 71.6124C72.0028 71.145 71.3001 69.2202 70.8864 68.5878L70.4593 67.9142L70.859 68.1616C72.0029 68.8902 73.8362 70.3751 74.677 71.2411C75.4626 72.066 75.6004 72.1623 75.5315 71.8461C75.3524 71.1311 74.6631 69.7975 74.1944 69.2615L73.726 68.7391L74.2772 68.8078C74.5805 68.8491 75.1869 69.0278 75.628 69.1928C76.3723 69.4678 76.4964 69.5778 77.0753 70.4851C77.9022 71.7498 78.7017 73.592 79.129 75.2419C79.4183 76.3003 79.4872 76.9052 79.5012 78.4038C79.5012 79.4211 79.4735 80.5347 79.4183 80.8784L79.322 81.497L79.5838 80.8647C80.3007 79.1048 80.4798 76.2042 79.9974 74.1557C79.8457 73.5233 79.4735 72.4784 79.1703 71.8461C78.5775 70.5812 78.5362 70.6225 79.639 71.3237C80.0387 71.5848 80.0387 71.5848 79.887 71.3098C79.8044 71.145 79.2116 70.5262 78.5775 69.9214C77.3372 68.7665 75.8899 67.9005 74.4976 67.4879C73.4088 67.1719 73.2849 67.1993 73.1056 67.7629C73.0091 68.0242 72.8989 68.2305 72.8576 68.2029C72.8023 68.1755 72.2924 67.9279 71.7272 67.6529C71.1623 67.3642 70.4317 67.0893 70.1008 67.048L69.5083 66.9519L69.6598 67.3369C69.8115 67.7355 69.8115 67.7492 68.502 66.5669C68.4331 66.5119 68.7638 66.2643 69.2324 66.0307C70.0182 65.6457 70.0732 65.632 69.9354 65.8933C69.8528 66.0583 69.7976 66.2096 69.8252 66.2233C69.9354 66.3332 74.3461 66.1133 74.3461 66.017C74.3461 65.9483 74.0566 65.8933 73.6984 65.8933C73.3262 65.8933 72.6093 65.852 72.0994 65.797L71.1623 65.7146L71.4655 65.3983L71.7548 65.0959L71.0105 64.9447C70.6108 64.8621 69.5633 64.6697 68.6949 64.5184C67.8267 64.3534 67.0135 64.2023 66.903 64.1747C66.7928 64.1473 66.462 64.3397 66.1727 64.601ZM68.8327 65.3296C68.8327 65.4946 68.0884 66.0307 67.8817 66.0307C67.7851 66.0307 67.3993 65.852 66.9996 65.6183L66.2829 65.2059H67.5647C68.2538 65.2059 68.8327 65.2609 68.8327 65.3296Z" fill="#1D1D1D"/>
<path d="M65.0956 67.4341C65.7984 68.7264 66.1432 69.675 66.6255 71.5722C66.984 72.9745 67.0253 73.0571 67.0529 72.4935C67.0942 71.5722 67.039 70.5549 66.9011 70.0326C66.8322 69.7713 66.8046 69.5239 66.8322 69.4963C66.9701 69.3589 67.9211 70.2386 68.4999 71.0086C69.2168 71.9709 69.2581 71.9435 68.7069 70.8712C68.1278 69.7163 66.9148 68.2453 65.8399 67.3791C64.5166 66.3207 64.5029 66.3207 65.0956 67.4341Z" fill="#1D1D1D"/>
<path d="M102.574 60.7713L102.064 61.775H102.753H103.442L103.346 60.9776C103.194 59.699 103.139 59.6853 102.574 60.7713Z" fill="#1D1D1D"/>
<path d="M43.43 60.0818C43.3887 60.2192 43.3058 60.6592 43.2645 61.0441L43.168 61.7728H43.871H44.574L44.064 60.8378C43.7884 60.3292 43.5402 59.9031 43.5265 59.8755C43.5126 59.8481 43.4576 59.9442 43.43 60.0818Z" fill="#1D1D1D"/>
<path d="M26.4203 61.1805C26.1722 61.2081 25.9655 61.2631 25.9655 61.3041C25.9655 61.5517 27.4128 64.4937 27.8538 65.1536C28.6118 66.2535 30.2934 67.8208 31.3549 68.4118C31.8372 68.6868 34.0012 69.5941 36.1651 70.4327L40.0935 71.9587L41.1962 71.7937C41.8027 71.6976 42.3264 71.6013 42.354 71.5877C42.3816 71.56 42.1196 71.2164 41.7751 70.8177C41.4306 70.4191 40.8515 69.6354 40.4656 69.0992L39.7903 68.0958L39.6801 69.6078L39.5835 71.1201L39.046 70.8177C38.2604 70.3778 36.7303 68.9481 36.0273 67.9719L35.4071 67.1195L35.3382 67.8345L35.2693 68.5355L34.4422 67.9308C33.4362 67.1882 32.485 66.1435 31.727 64.9336C31.3825 64.37 30.9275 63.875 30.5278 63.5863C29.7835 63.0777 29.0116 62.3217 29.2322 62.3217C29.5767 62.3217 31.4651 62.7614 32.3059 63.0364C32.8021 63.1877 35.1728 64.095 37.5711 65.0162C39.9833 65.9509 41.9818 66.7209 42.0094 66.7209C42.037 66.7209 41.7612 66.1985 41.389 65.566L40.7 64.425L38.2604 63.49C34.9109 62.1978 33.629 61.7991 31.8372 61.4967C30.2934 61.2355 27.2474 61.0568 26.4203 61.1805Z" fill="#1D1D1D"/>
<path d="M117.211 61.1646C114.344 61.4259 112.525 61.8932 108.638 63.3779L105.909 64.4228L105.233 65.5364C104.875 66.1414 104.586 66.6637 104.599 66.6913C104.613 66.705 106.612 65.9627 109.024 65.0278C111.45 64.0791 113.82 63.1855 114.317 63.0342C115.157 62.7593 117.046 62.3195 117.39 62.3195C117.625 62.3195 116.798 63.1168 116.012 63.6392C115.626 63.9005 115.254 64.2304 115.213 64.3815C115.089 64.7665 113.628 66.6913 113.062 67.2137C112.8 67.4473 112.318 67.846 111.974 68.0936L111.353 68.5333L111.284 67.8323L111.215 67.1174L110.485 68.0936C109.672 69.152 108.734 70.0319 107.728 70.7056L107.08 71.1318L106.984 70.5406C106.943 70.2106 106.887 69.5233 106.887 69.0009L106.874 68.0386L106.184 69.0559C105.799 69.6059 105.206 70.3756 104.875 70.7743C104.53 71.1729 104.255 71.5168 104.255 71.5579C104.255 71.5992 104.765 71.6955 105.399 71.7916L106.529 71.9565L110.581 70.3756C112.8 69.5096 114.964 68.5883 115.392 68.341C116.467 67.7086 118.066 66.1688 118.81 65.0551C119.403 64.1478 120.726 61.3709 120.602 61.247C120.519 61.1646 117.942 61.0959 117.211 61.1646Z" fill="#1D1D1D"/>
<path d="M42.2718 62.8568C41.7203 62.9118 41.238 62.9941 41.183 63.0354C41.0865 63.1454 42.2029 65.1114 42.9885 66.2387C44.229 67.9983 46.3104 69.6755 48.2813 70.4868C49.0395 70.8028 52.6231 71.9441 52.8575 71.9441C52.9264 71.9441 52.9816 71.2428 52.9816 70.3905V68.8369L51.3 68.3146C50.3627 68.0259 49.191 67.5722 48.6811 67.311C47.6335 66.761 46.5721 65.9087 46.9443 65.895C47.4405 65.8813 50.3627 66.4586 51.5067 66.7749C52.1682 66.981 52.7747 67.1323 52.8436 67.1323C52.9264 67.1323 52.9816 66.4999 52.9816 65.565V63.9977L51.2311 63.5717C50.2525 63.3517 48.9706 63.0904 48.3641 63.008C46.9306 62.8155 43.5398 62.7192 42.2718 62.8568Z" fill="#1D1D1D"/>
<path d="M99.3217 62.8876C97.9434 63.0112 95.5451 63.4651 94.401 63.8088L93.5739 64.0562L93.5326 65.6647L93.4913 67.2594L94.153 67.0533C95.9585 66.5034 99.625 65.7747 99.8041 65.9397C99.9143 66.0634 98.4257 67.0944 97.5575 67.5207C97.0889 67.7406 95.9861 68.1256 95.104 68.3867L93.505 68.8542V70.4489V72.0575L95.7242 71.3699C97.9571 70.6963 99.363 70.0776 100.535 69.294C101.348 68.7443 102.933 67.2181 103.498 66.4484C104.118 65.5821 105.524 63.1351 105.442 63.0388C105.18 62.7915 101.362 62.6815 99.3217 62.8876Z" fill="#1D1D1D"/>
<path d="M101.443 70.5683C100.988 71.2695 100.988 71.3932 101.498 71.3932C101.897 71.3932 101.911 71.3795 101.911 70.7056C101.911 70.3209 101.884 70.0183 101.856 70.0183C101.828 70.0183 101.649 70.2659 101.443 70.5683Z" fill="#1D1D1D"/>
<path d="M44.7119 70.7768C44.7119 71.3679 44.7255 71.3955 45.1253 71.3955C45.3596 71.3955 45.5387 71.3268 45.5387 71.2579C45.5387 71.0655 44.9462 70.1582 44.8221 70.1582C44.7532 70.1582 44.7119 70.433 44.7119 70.7768Z" fill="#1D1D1D"/>
<path d="M43.4702 72.4425C43.2774 72.4699 42.657 72.5662 42.0918 72.6486C41.5269 72.7312 41.0169 72.8275 40.9478 72.8686C40.7826 72.9649 42.2159 74.9308 43.2498 76.0307C44.3662 77.213 45.7722 78.2027 47.2055 78.794C48.3909 79.275 50.9409 79.8526 52.4434 79.9762L53.4909 80.0725L53.284 78.794C53.1738 78.0927 53.0772 77.5017 53.0635 77.488C53.0499 77.488 52.0712 77.2541 50.8857 76.993C48.763 76.5117 47.371 75.9894 46.6404 75.3707L46.2958 75.0821L47.7431 75.1645C48.5426 75.2058 50.0449 75.4257 51.0924 75.632L52.9807 76.0168V74.6145V73.2261L51.575 72.9372C50.7892 72.7725 49.6727 72.5799 49.0802 72.4975C48.0739 72.3736 44.256 72.3325 43.4702 72.4425Z" fill="#1D1D1D"/>
<path d="M97.7771 72.4424C97.5151 72.4837 96.44 72.6624 95.4064 72.8548L93.5042 73.2124V74.6559C93.5042 75.9619 93.5318 76.0856 93.7524 76.0169C95.1721 75.5906 98.2457 75.1096 99.5 75.1096H100.327L99.9823 75.3844C99.1415 76.0306 97.846 76.5256 95.6681 76.9929C94.4415 77.2679 93.4216 77.5016 93.3939 77.5153C93.3803 77.5292 93.2974 77.9415 93.2148 78.4228C93.1459 78.9039 93.0494 79.4812 93.0081 79.6875L92.9253 80.0861L94.083 79.9901C95.7646 79.8525 98.5627 79.1788 99.7756 78.6289C101.195 77.9828 102.381 77.1166 103.442 75.9619C104.6 74.697 105.84 72.9237 105.606 72.8411C104.655 72.525 99.3622 72.25 97.7771 72.4424Z" fill="#1D1D1D"/>
<path d="M31.0794 72.7702C29.646 72.9215 27.0684 73.4578 27.0684 73.6088C27.0684 73.9114 28.7776 76.1386 29.7562 77.1146C30.6107 77.9533 31.1898 78.3795 32.1132 78.8469C33.6983 79.6579 34.1946 79.8092 38.2193 80.5241L41.5549 81.1152L42.6576 80.7715C43.6499 80.4692 43.7464 80.4142 43.581 80.1942C43.071 79.5068 41.9546 78.1046 41.9546 78.1456C41.9546 78.1733 42.0511 78.7232 42.1613 79.3556C42.2715 80.0016 42.3404 80.5515 42.2991 80.5791C42.1889 80.6891 41.1138 80.2355 40.2178 79.6992C39.7493 79.4242 38.8946 78.8056 38.3021 78.3106C37.2546 77.4309 37.2406 77.4309 37.3235 77.8433C37.3648 78.077 37.4474 78.4482 37.4889 78.6819C37.5715 79.1632 37.5026 79.1769 36.772 78.8743C35.7108 78.4345 34.2772 77.3896 33.1055 76.2073C32.4578 75.5337 31.6722 74.86 31.3826 74.7087C31.0933 74.5575 30.7349 74.3375 30.5834 74.2138C30.3214 74.0077 30.4316 73.9938 32.1684 74.0627C33.5468 74.1038 34.9526 74.2825 37.5991 74.7638C39.5563 75.1074 41.1827 75.3687 41.224 75.3274C41.2929 75.2587 40.0526 73.4578 39.9422 73.4578C39.9009 73.4578 38.9775 73.3065 37.861 73.1141C35.6142 72.7291 32.8438 72.5915 31.0794 72.7702Z" fill="#1D1D1D"/>
<path d="M110.967 72.7866C110.388 72.8416 109.203 73.0203 108.362 73.1853C107.508 73.3363 106.763 73.4602 106.708 73.4602C106.57 73.4602 105.316 75.2475 105.399 75.3299C105.44 75.3712 107.066 75.1099 109.037 74.7662C111.711 74.285 113.062 74.1063 114.454 74.0513C116.508 73.9826 116.563 74.0376 115.144 74.7662C114.799 74.9449 114.165 75.4949 113.738 75.9761C113.31 76.4709 112.566 77.1584 112.084 77.5158C111.229 78.1481 109.52 79.0967 109.203 79.0967C109.051 79.0967 109.093 78.6707 109.313 77.7358C109.382 77.4745 109.217 77.5571 108.376 78.272C106.956 79.468 104.558 80.829 104.31 80.5816C104.282 80.554 104.351 80.0041 104.461 79.3717C104.572 78.7394 104.641 78.2031 104.627 78.1757C104.599 78.1481 104.351 78.4644 104.075 78.8631C103.8 79.2617 103.386 79.7704 103.152 79.9904L102.725 80.389L103.882 80.7603L105.054 81.1177L108.403 80.5129C110.25 80.183 112.111 79.8254 112.511 79.7017C114.151 79.2343 116.122 77.9971 117.294 76.7185C117.955 76.0035 119.334 74.0926 119.485 73.6939C119.554 73.5426 119.265 73.4326 118.148 73.199C115.64 72.6766 113.283 72.539 110.967 72.7866Z" fill="#1D1D1D"/>
<path d="M46.53 80.8941C45.3859 81.0454 42.3812 81.774 42.2158 81.939C42.1469 82.0077 42.5053 82.5027 43.0014 83.0663C45.4412 85.8022 47.3432 86.7508 51.1474 87.1495C52.6084 87.3008 53.4768 87.3282 54.4967 87.2321C55.2549 87.1632 55.9027 87.0808 55.944 87.0532C55.9716 87.0121 55.7925 86.5445 55.5306 86.0085C54.993 84.8673 55.3651 85.0049 51.8091 84.6612C49.6726 84.4549 48.625 84.2212 47.674 83.7263L47.1228 83.4376L48.0186 83.3139C48.9559 83.2039 50.541 83.2589 52.9532 83.5063C53.7387 83.5887 54.4002 83.63 54.4278 83.6026C54.4554 83.575 54.3039 82.9976 54.097 82.324L53.7111 81.0867L53.1736 80.9767C52.2778 80.8117 47.6051 80.743 46.53 80.8941Z" fill="#1D1D1D"/>
<path d="M93.9874 80.9093L92.7332 81.0467L92.361 82.284C92.1404 82.9713 92.0026 83.5489 92.0439 83.59C92.0715 83.6176 93.2431 83.5489 94.6352 83.4252C96.5098 83.2463 97.4884 83.2189 98.3429 83.3152L99.5007 83.4389L98.9494 83.7276C97.9708 84.2362 96.9785 84.4425 94.1389 84.7312C92.6227 84.8962 91.3685 85.0335 91.3548 85.0472C91.1618 85.3635 90.4864 86.9858 90.5277 87.0271C90.5553 87.0684 91.2307 87.1508 92.0302 87.2195C93.9322 87.3981 97.0335 87.0958 98.5773 86.5734C100.41 85.9685 101.292 85.3911 102.988 83.6726C103.925 82.724 104.504 82.0366 104.435 81.9679C104.229 81.7616 101.265 81.0604 99.9143 80.8954C98.4671 80.7167 95.7655 80.7304 93.9874 80.9093Z" fill="#1D1D1D"/>
<path d="M35.6834 82.8611C34.0157 83.1085 32.8854 83.3835 31.452 83.906L30.2391 84.3458L31.1764 85.3633C32.7891 87.1503 34.5809 88.3052 36.5105 88.7726C37.0205 88.9102 38.9501 89.0613 41.5414 89.1989C46.5999 89.4462 46.1176 89.4462 46.4208 89.2262C46.6414 89.0613 46.6275 89.0202 46.1313 88.6902C45.8419 88.4976 45.2492 88.0029 44.822 87.5766C44.3808 87.1642 44.0225 86.8617 44.0225 86.9303C44.0225 86.9993 44.1466 87.4392 44.2982 87.9066C44.436 88.3876 44.5462 88.8002 44.5188 88.8276C44.3671 88.9789 42.024 88.0029 41.0315 87.3842C40.3837 86.9853 39.8324 86.6556 39.8048 86.6556C39.7909 86.6556 39.8461 86.9443 39.9563 87.3016C40.0668 87.6729 40.1631 87.9753 40.1631 87.989C40.1631 87.989 39.8598 87.9203 39.4877 87.824C38.4125 87.549 37.117 86.848 35.9041 85.8856C35.2976 85.4044 34.7048 85.0057 34.6222 85.0057C34.4016 84.992 33.1612 84.3321 33.3403 84.3184C33.4229 84.3184 34.0433 84.2497 34.7187 84.1671C35.6145 84.0708 36.8964 84.0708 39.3086 84.1808C41.1556 84.2771 42.6855 84.3321 42.7131 84.3047C42.7268 84.2771 42.465 83.9197 42.1066 83.5211L41.4449 82.7785L39.1844 82.7235C37.7511 82.6961 36.4692 82.7511 35.6834 82.8611Z" fill="#1D1D1D"/>
<path d="M105.688 82.7666C105.205 82.8079 105.026 82.9316 104.461 83.5779L103.813 84.3478L106.267 84.2239C109.285 84.0865 111.504 84.0865 112.593 84.2378L113.42 84.3478L112.8 84.6778C112.455 84.8565 112.097 84.9938 111.987 85.0075C111.877 85.0075 111.504 85.2414 111.16 85.5301C109.809 86.6437 108.458 87.4273 107.177 87.7984L106.46 88.0184L106.542 87.6473C106.598 87.441 106.694 87.1385 106.749 86.9598C106.818 86.7948 106.846 86.6574 106.818 86.6574C106.79 86.6574 106.239 86.9874 105.591 87.386C104.599 88.0184 102.256 88.9807 102.104 88.8157C102.077 88.802 102.173 88.376 102.325 87.881C102.697 86.6848 102.683 86.6574 102.063 87.2897C101.773 87.5923 101.236 88.0871 100.864 88.376C100.492 88.6783 100.133 88.9533 100.064 89.0083C100.009 89.0633 100.078 89.1733 100.243 89.2696C100.712 89.517 108.872 89.0633 110.25 88.7196C111.504 88.4034 112.883 87.7023 113.848 86.9048C114.895 86.0251 116.315 84.4578 116.163 84.3339C115.984 84.1552 114.592 83.6742 113.379 83.3579C111.256 82.7942 108.1 82.5469 105.688 82.7666Z" fill="#1D1D1D"/>
<path d="M54.3589 88.1843C52.4568 88.3632 50.8302 88.6655 49.521 89.0779C48.1839 89.4905 45.9235 90.5078 45.9785 90.6591C46.075 90.9065 47.8944 92.2261 48.7215 92.6387C49.9894 93.2847 51.0785 93.5323 52.5808 93.5323C54.8964 93.5184 56.385 93.3123 57.8599 92.7761C59.7206 92.1024 59.6517 92.1711 59.1004 91.5525L58.6318 91.0164L55.4616 91.2638C52.9116 91.4701 52.1121 91.4975 51.3817 91.3738C50.4857 91.2227 50.2514 91.1264 50.3892 90.9888C50.5685 90.8102 53.3803 90.3841 55.3927 90.2191C56.6056 90.1365 57.6393 90.0128 57.6945 89.9715C57.7497 89.9304 57.529 89.4766 57.2121 88.9679C56.5504 87.9232 56.7435 87.9645 54.3589 88.1843Z" fill="#1D1D1D"/>
<path d="M89.2445 88.9395C88.9276 89.4482 88.7069 89.8882 88.7482 89.9295C88.7897 89.9708 89.9888 90.1081 91.4085 90.2457C93.9448 90.4657 96.2602 90.8644 96.2602 91.0705C96.2602 91.2081 95.006 91.4693 94.2893 91.4693C93.9722 91.4693 92.3871 91.373 90.7607 91.2354L87.8111 91.0018L87.3562 91.538L86.9014 92.088L88.1005 92.5416C89.9751 93.2564 90.6642 93.394 92.9522 93.4763C95.4194 93.5726 96.3567 93.4214 97.8729 92.6516C98.7274 92.2254 100.547 90.9055 100.643 90.6581C100.699 90.5068 98.4381 89.4895 97.101 89.0771C95.5159 88.5822 91.891 88.0322 90.1129 88.0322C89.9199 88.0322 89.6579 88.3072 89.2445 88.9395Z" fill="#1D1D1D"/>
<path d="M43.8971 92.357C42.0088 92.7419 40.6443 93.2093 39.004 94.0342C37.7359 94.6666 36.5781 95.3952 36.5781 95.5602C36.5781 95.7115 38.6595 97.0725 39.3486 97.3611C41.3334 98.2271 42.5187 98.2548 46.8469 97.4848C49.7827 96.9762 50.1962 96.8662 50.5546 96.5362L50.9541 96.1788L50.1685 95.8213C49.7412 95.6152 49.1899 95.3126 48.9419 95.1476L48.5146 94.8316L48.9556 95.6289C49.1899 96.0552 49.3967 96.4538 49.3967 96.4949C49.3967 96.7012 47.3153 96.4125 46.3093 96.0825C45.7165 95.8762 45.1926 95.7389 45.1653 95.7802C45.1237 95.8213 45.1926 95.9862 45.3168 96.1651C45.4409 96.3301 45.5374 96.5225 45.5374 96.5912C45.5374 96.9075 42.7531 96.2612 41.5401 95.6565C41.1956 95.4915 40.6717 95.3126 40.3685 95.2576C39.1281 95.0515 39.0177 95.0102 39.2107 94.8865C39.6794 94.584 41.8157 94.0479 44.3658 93.5943C45.8819 93.3193 47.1775 93.0856 47.2464 93.0717C47.4533 93.003 46.0061 92.0133 45.7302 92.027C45.5787 92.027 44.7655 92.1781 43.8971 92.357Z" fill="#1D1D1D"/>
<path d="M99.9265 92.5279C99.5544 92.8168 99.3063 93.0504 99.3752 93.0778C99.4442 93.0915 100.74 93.3254 102.256 93.6004C104.792 94.0541 106.942 94.5901 107.397 94.8927C107.618 95.0301 107.383 95.0988 106.253 95.2637C105.881 95.3187 105.44 95.4424 105.288 95.5387C104.503 96.0474 101.36 96.886 101.126 96.6386C101.084 96.611 101.167 96.391 101.291 96.1574C101.401 95.9237 101.47 95.7311 101.429 95.7311C101.401 95.7311 100.891 95.8961 100.299 96.0887C99.2648 96.4323 97.225 96.7073 97.225 96.4873C97.225 96.4324 97.418 96.0474 97.6523 95.635L98.0934 94.8788L97.5006 95.2501C97.1837 95.4563 96.6322 95.745 96.274 95.8961L95.6399 96.1711L96.0533 96.5423C96.4394 96.8723 96.8115 96.9686 99.775 97.491C104.089 98.2609 105.316 98.2333 107.259 97.381C107.962 97.0647 110.044 95.7174 110.044 95.5663C110.044 95.2637 107.121 93.6965 105.371 93.0641C104.503 92.7479 101.222 92.0055 100.767 92.0192C100.671 92.0192 100.299 92.2531 99.9265 92.5279Z" fill="#1D1D1D"/>
<path d="M85.442 93.5282C85.0699 93.8995 84.7943 94.2294 84.8356 94.2568C84.8632 94.2844 86.2002 94.7931 87.7853 95.3841C90.6797 96.4567 92.4302 97.2264 92.6232 97.529C92.6921 97.6526 92.4854 97.6663 91.81 97.5976C91.1483 97.529 89.8941 97.144 87.4132 96.2228L83.9398 94.9305L83.1264 95.5491C82.6853 95.8928 82.3547 96.1954 82.3821 96.2228C82.5475 96.3877 90.2525 99.1649 90.9555 99.3023C92.1132 99.536 93.5192 99.3986 94.8976 98.8899C96.5929 98.2713 96.5653 98.3126 95.7934 97.625C94.0016 96.0441 92.4717 95.2055 88.9568 93.8995C87.6336 93.4045 86.4483 92.9645 86.3381 92.9232C86.2002 92.8683 85.8831 93.0745 85.442 93.5282Z" fill="#1D1D1D"/>
<path d="M57.5982 93.9302C54.8138 94.9612 53.725 95.4837 52.4432 96.3773C51.4645 97.051 50.224 98.082 50.224 98.2196C50.224 98.3433 52.2364 99.1406 52.9807 99.2919C53.8076 99.4843 54.8691 99.4843 55.7649 99.2919C56.5091 99.1269 63.842 96.4734 64.0488 96.2811C64.159 96.1848 62.7532 95.0438 62.5189 95.0438C62.4361 95.0438 60.8786 95.5937 59.0592 96.2811C56.4126 97.271 55.5168 97.532 54.7312 97.6007C53.9867 97.6557 53.7939 97.642 53.9454 97.5183C54.5243 97.0921 56.3163 96.3084 58.7972 95.3874C60.3273 94.8238 61.5953 94.3288 61.6229 94.3014C61.7055 94.2188 60.3823 92.9815 60.2169 92.9952C60.148 92.9952 58.9626 93.4078 57.5982 93.9302Z" fill="#1D1D1D"/>
<path d="M69.7972 102.137V105.093L70.8034 105.052L71.7957 105.01L71.837 102.522L71.8646 100.034L70.8308 99.6074L69.7972 99.1812V102.137Z" fill="#1D1D1D"/>
<path d="M75.7234 99.5671L74.8276 99.9521L74.7861 102.509L74.7587 105.08H75.7923H76.8262V102.124C76.8262 100.502 76.7847 99.1685 76.7297 99.1685C76.6607 99.1824 76.2197 99.3474 75.7234 99.5671Z" fill="#1D1D1D"/>
<path d="M50.0868 101.064C49.3978 101.737 48.8465 102.356 48.8465 102.425C48.8465 102.493 49.3012 102.7 49.8525 102.892C50.5968 103.139 51.1344 103.222 52.0304 103.222H53.2157L55.4486 102.122L57.6814 101.022L56.0963 101.009C54.5804 101.009 54.5115 101.022 54.7319 101.256C55.1316 101.696 54.8421 101.724 51.5754 101.641C50.9 101.614 50.3627 101.572 50.3627 101.545C50.3627 101.517 50.8311 101.201 51.3963 100.83C52.3199 100.225 52.3888 100.142 52.0993 100.074C51.9202 100.032 51.6719 99.95 51.548 99.9087C51.3826 99.8537 50.9552 100.184 50.0868 101.064Z" fill="#1D1D1D"/>
<path d="M94.6489 100.02L94.2078 100.171L95.2416 100.831C95.8068 101.202 96.2616 101.519 96.2616 101.546C96.2616 101.601 94.9936 101.656 93.0225 101.684C92.5677 101.697 92.0852 101.656 91.9336 101.601C91.6993 101.505 91.6856 101.477 91.8923 101.257C92.1128 101.024 92.0438 101.01 90.5553 101.01L88.9839 101.024L90.6518 101.89C92.7192 102.948 93.6979 103.292 94.6352 103.292C95.4208 103.292 97.7777 102.646 97.7777 102.426C97.7777 102.247 95.3658 99.855 95.214 99.8687C95.1451 99.8826 94.8971 99.9513 94.6489 100.02Z" fill="#1D1D1D"/>
<path d="M64.5593 107.21V108.379L73.2843 108.351L81.9955 108.31L82.0368 107.169L82.0781 106.042H73.3119H64.5593V107.21Z" fill="#1D1D1D"/>
<path d="M71.5884 109.57C71.5884 110.024 72.0018 116.43 72.0844 117.131L72.1533 117.86H73.2285H74.2899L74.5242 113.97C74.662 111.839 74.7586 109.928 74.7586 109.708V109.336H73.1735C71.7812 109.336 71.5884 109.364 71.5884 109.57Z" fill="#1D1D1D"/>
<path d="M69.1075 119.649V120.336H73.3115H77.5155V119.649V118.961H73.3115H69.1075V119.649Z" fill="#1D1D1D"/>
<path d="M69.7972 121.698C69.9765 122.041 70.4865 122.413 70.6519 122.316C70.7069 122.275 70.7621 122.069 70.7621 121.835C70.7621 121.464 70.7345 121.437 70.2109 121.437C69.7007 121.437 69.6594 121.464 69.7972 121.698Z" fill="#1D1D1D"/>
<path d="M71.7272 122.399C71.7272 123.705 71.934 123.911 73.2295 123.911C73.9738 123.911 74.2494 123.856 74.539 123.622C74.8698 123.361 74.8974 123.251 74.8974 122.385V121.437H73.3123H71.7272V122.399Z" fill="#1D1D1D"/>
<path d="M75.8617 121.918C75.8617 122.179 75.903 122.399 75.9719 122.399C76.1649 122.399 76.6888 121.973 76.8266 121.698C76.9644 121.464 76.9229 121.437 76.413 121.437C75.8754 121.437 75.8617 121.45 75.8617 121.918Z" fill="#1D1D1D"/>
<path fill-rule="evenodd" clip-rule="evenodd" d="M21.1022 39.1823L14.2219 34.9057L11.7483 38.8864L18.6276 43.163L18.189 43.8693L11.3086 39.5925L10.7567 40.4806L8.52014 39.0903L8.95965 38.3843L10.5854 39.3951L14.051 33.8203L21.5409 38.4762L21.1022 39.1823Z" fill="#1D1D1D" stroke="#1D1D1D" stroke-width="0.2835"/>
<path fill-rule="evenodd" clip-rule="evenodd" d="M15.1418 50.254L14.4884 49.9544L15.9279 46.8154L13.0294 45.4861L11.658 48.4761L11.0053 48.177L12.3765 45.1866L9.21472 43.7365L7.67524 47.0934L7.0224 46.7934L8.90886 42.6809L16.9284 46.3591L15.1418 50.254Z" fill="#1D1D1D" stroke="#1D1D1D" stroke-width="0.2835"/>
<path fill-rule="evenodd" clip-rule="evenodd" d="M14.0776 53.0024L10.367 51.8301L8.98597 56.2011L12.6962 57.3734L12.447 58.1657L4.0412 55.5107L4.29133 54.7179L8.30188 55.9848L9.68307 51.6141L5.67239 50.3472L5.92259 49.5544L14.3284 52.2099L14.0776 53.0024Z" fill="#1D1D1D" stroke="#1D1D1D" stroke-width="0.2835"/>
<path fill-rule="evenodd" clip-rule="evenodd" d="M11.0017 65.6068L10.295 65.4774L10.7713 62.8752L2.80353 61.4169L2.95306 60.5987L10.9216 62.0577L11.3972 59.4551L12.1043 59.5844L11.0017 65.6068Z" fill="#1D1D1D" stroke="#1D1D1D" stroke-width="0.2835"/>
<path fill-rule="evenodd" clip-rule="evenodd" d="M10.7024 69.3199C10.5827 70.9524 9.47874 71.8819 7.97208 71.771C6.46463 71.6606 5.50834 70.5926 5.62903 68.9471L5.73545 67.4905L2.0188 67.2177L2.07923 66.3882L10.8705 67.0346L10.7024 69.3199ZM6.45155 67.5431L6.35656 68.8365C6.32204 69.3138 6.30393 70.752 8.03779 70.8796C9.84538 71.0124 9.98161 69.3303 9.99874 69.1043L10.0929 67.8105L6.45155 67.5431Z" fill="#1D1D1D" stroke="#1D1D1D" stroke-width="0.2835"/>
<path fill-rule="evenodd" clip-rule="evenodd" d="M2.55823 83.4433C2.34921 82.9434 2.1064 82.2065 2.02452 81.2781C1.75384 78.2294 3.76644 76.6848 5.98665 76.4876C8.3199 76.2802 10.7296 77.3558 11.0151 80.5675C11.0838 81.3452 11.0379 81.9689 10.8558 82.6175L10.0964 82.6091C10.3885 81.622 10.3154 80.8068 10.2932 80.556C10.0974 78.3477 8.26086 77.183 6.05308 77.3793C3.80735 77.5788 2.56565 79.2572 2.7337 81.1516C2.80441 81.9419 3.02678 82.744 3.3481 83.3731L2.55823 83.4433Z" fill="#1D1D1D" stroke="#1D1D1D" stroke-width="0.2835"/>
<path fill-rule="evenodd" clip-rule="evenodd" d="M12.7635 90.391L4.16088 92.3376L3.97805 91.5266L11.8795 89.7387L10.8648 85.2527L2.9627 87.0411L2.77893 86.23L11.3816 84.2834L12.7635 90.391Z" fill="#1D1D1D" stroke="#1D1D1D" stroke-width="0.2835"/>
<path fill-rule="evenodd" clip-rule="evenodd" d="M14.9879 96.7921L14.3127 97.036L13.14 93.7917L10.1439 94.8746L11.2609 97.965L10.5868 98.2089L9.46968 95.1187L6.20134 96.2997L7.45541 99.7692L6.78053 100.013L5.24426 95.762L13.5328 92.7661L14.9879 96.7921Z" fill="#1D1D1D" stroke="#1D1D1D" stroke-width="0.2835"/>
<path fill-rule="evenodd" clip-rule="evenodd" d="M16.1624 99.5085L8.96135 103.208L11.102 107.374L18.3029 103.675L18.6835 104.414L11.4809 108.114L11.9581 109.044L9.61743 110.246L9.23841 109.507L10.9403 108.632L7.94263 102.797L15.7833 98.769L16.1624 99.5085Z" fill="#1D1D1D" stroke="#1D1D1D" stroke-width="0.2835"/>
<path fill-rule="evenodd" clip-rule="evenodd" d="M20.6533 107.456L13.2613 112.265L12.8079 111.568L20.1999 106.759L20.6533 107.456Z" fill="#1D1D1D" stroke="#1D1D1D" stroke-width="0.2835"/>
<path fill-rule="evenodd" clip-rule="evenodd" d="M24.2152 112.328L19.4972 120.558L18.9402 119.857L20.2384 117.585L17.5247 114.176L15.019 114.93L14.4623 114.23L23.5403 111.48L24.2152 112.328ZM23.2295 112.404L22.3989 112.695L18.2588 113.945L20.6273 116.921L22.7751 113.168L23.2451 112.424L23.2295 112.404Z" fill="#1D1D1D" stroke="#1D1D1D" stroke-width="0.2835"/>
<path fill-rule="evenodd" clip-rule="evenodd" d="M31.6944 120.162L25.6038 126.54L25.0019 125.966L30.5971 120.107L28.1464 117.766L26.5363 119.452C24.4654 121.621 22.5086 123.724 20.9874 122.271C20.8961 122.184 20.7405 122.019 20.6016 121.781L21.1167 121.314C21.1996 121.446 21.3374 121.612 21.4374 121.708C22.5408 122.761 24.9519 119.907 25.9616 118.851L28.0405 116.673L31.6944 120.162Z" fill="#1D1D1D" stroke="#1D1D1D" stroke-width="0.2835"/>
<path fill-rule="evenodd" clip-rule="evenodd" d="M34.2953 122.231L32.1504 125.144L33.2871 125.981C33.7136 126.294 35.8247 127.848 34.2935 129.929C33.4864 131.025 31.897 131.42 30.5471 130.426L28.3958 128.842L33.6251 121.738L34.2953 122.231ZM29.4904 128.757L30.7701 129.698C31.9372 130.558 32.9904 130.19 33.5579 129.419C34.6035 127.998 33.4299 126.977 32.8519 126.552L31.7248 125.722L29.4904 128.757Z" fill="#1D1D1D" stroke="#1D1D1D" stroke-width="0.2835"/>
<path fill-rule="evenodd" clip-rule="evenodd" d="M40.3759 126.431L38.4986 129.84L42.5146 132.051L44.3921 128.642L45.1196 129.043L40.868 136.766L40.1398 136.365L42.1688 132.68L38.1523 130.469L36.1234 134.154L35.395 133.753L39.6474 126.03L40.3759 126.431Z" fill="#1D1D1D" stroke="#1D1D1D" stroke-width="0.2835"/>
<path fill-rule="evenodd" clip-rule="evenodd" d="M50.6465 131.201C53.1744 132.14 53.642 134.611 52.8185 136.833C51.8054 139.562 49.6116 140.442 47.5079 139.661C45.405 138.882 44.3151 136.783 45.3272 134.054C46.1513 131.833 48.1181 130.264 50.6465 131.201ZM47.7581 138.988C49.2001 139.523 51.0591 139.003 51.9795 136.521C52.8996 134.04 51.8375 132.41 50.3966 131.875C48.9545 131.34 47.0866 131.884 46.166 134.365C45.2461 136.846 46.3165 138.453 47.7581 138.988Z" fill="#1D1D1D" stroke="#1D1D1D" stroke-width="0.2835"/>
<path fill-rule="evenodd" clip-rule="evenodd" d="M57.05 133.294L54.8525 141.834L54.0472 141.627L56.2442 133.087L57.05 133.294ZM56.5381 131.289L56.2868 132.265L55.4332 132.045L55.684 131.069L56.5381 131.289ZM58.5144 131.798L58.2636 132.774L57.4097 132.554L57.6608 131.578L58.5144 131.798Z" fill="#1D1D1D" stroke="#1D1D1D" stroke-width="0.2835"/>
<path fill-rule="evenodd" clip-rule="evenodd" d="M67.355 135.016L67.2663 135.729L64.6396 135.403L63.6427 143.445L62.8169 143.343L63.8142 135.301L61.1874 134.975L61.2759 134.263L67.355 135.016Z" fill="#1D1D1D" stroke="#1D1D1D" stroke-width="0.2835"/>
<path fill-rule="evenodd" clip-rule="evenodd" d="M72.312 135.125L75.6706 144L74.7766 143.985L73.8458 141.538L69.4872 141.467L68.4779 143.883L67.583 143.868L71.2284 135.107L72.312 135.125ZM71.7444 135.934L71.441 136.761L69.7761 140.754L73.5808 140.816L72.0461 136.771L71.7698 135.935L71.7444 135.934Z" fill="#1D1D1D" stroke="#1D1D1D" stroke-width="0.2835"/>
<path fill-rule="evenodd" clip-rule="evenodd" d="M78.0793 134.841L78.5395 138.377L78.6053 138.877L78.6173 138.875L78.8766 138.524L82.1277 134.314L83.1765 134.177L79.4679 138.866L84.7905 142.862L83.6293 143.013L78.8977 139.372L78.6549 139.163L78.6436 139.177L78.6977 139.589L79.2186 143.588L78.3936 143.695L77.2542 134.949L78.0793 134.841Z" fill="#1D1D1D" stroke="#1D1D1D" stroke-width="0.2835"/>
<path fill-rule="evenodd" clip-rule="evenodd" d="M90.0102 132.509L90.1856 133.205L87.621 133.851L89.5985 141.703L88.7922 141.907L86.815 134.054L84.2502 134.699L84.0748 134.004L90.0102 132.509Z" fill="#1D1D1D" stroke="#1D1D1D" stroke-width="0.2835"/>
<path fill-rule="evenodd" clip-rule="evenodd" d="M92.1459 131.778L94.5652 137.945L94.9098 138.961L94.945 138.947L95.0756 137.935L96.5542 130.048L97.4341 129.703L100.654 137.911L99.8809 138.214L97.4604 132.047L97.1159 131.032L97.0815 131.045L96.9739 131.98L95.4717 139.944L94.5924 140.289L91.3716 132.082L92.1459 131.778Z" fill="#1D1D1D" stroke="#1D1D1D" stroke-width="0.2835"/>
<path fill-rule="evenodd" clip-rule="evenodd" d="M99.9752 128.424L101.411 130.969C102.203 132.373 103.595 131.559 104.056 131.299C104.538 131.026 105.003 130.721 105.449 130.383L105.857 130.08L103.727 126.307L104.451 125.898L108.784 133.577L108.06 133.986L106.209 130.706L105.795 130.997C105.31 131.343 104.837 131.683 104.321 131.973C102.017 133.273 101.084 132.079 100.694 131.388L99.2518 128.832L99.9752 128.424Z" fill="#1D1D1D" stroke="#1D1D1D" stroke-width="0.2835"/>
<path fill-rule="evenodd" clip-rule="evenodd" d="M107.221 124.051L109.574 127.152L113.226 124.381L110.873 121.281L111.536 120.778L116.865 127.802L116.202 128.304L113.66 124.953L110.007 127.724L112.55 131.075L111.887 131.578L106.559 124.554L107.221 124.051Z" fill="#1D1D1D" stroke="#1D1D1D" stroke-width="0.2835"/>
<path fill-rule="evenodd" clip-rule="evenodd" d="M115.762 116.615C117.65 114.69 120.096 115.271 121.787 116.928C123.865 118.965 123.773 121.326 122.204 122.928C120.634 124.529 118.275 124.668 116.197 122.632C114.506 120.974 113.876 118.54 115.762 116.615ZM121.691 122.425C122.767 121.327 123.05 119.419 121.161 117.567C119.272 115.716 117.351 116.02 116.275 117.118C115.2 118.215 114.934 120.142 116.823 121.993C118.712 123.845 120.615 123.523 121.691 122.425Z" fill="#1D1D1D" stroke="#1D1D1D" stroke-width="0.2835"/>
<path fill-rule="evenodd" clip-rule="evenodd" d="M118.246 111.26L119.034 111.889L118.485 112.578L117.695 111.95L118.246 111.26ZM119.519 109.663L120.307 110.292L119.756 110.982L118.968 110.354L119.519 109.663ZM120.286 111.612L127.184 117.112L126.666 117.762L119.767 112.263L120.286 111.612Z" fill="#1D1D1D" stroke="#1D1D1D" stroke-width="0.2835"/>
<path fill-rule="evenodd" clip-rule="evenodd" d="M126.66 101.838L134.284 106.279L133.866 106.998L126.861 102.919L124.546 106.895L131.55 110.974L131.131 111.693L123.507 107.252L126.66 101.838Z" fill="#1D1D1D" stroke="#1D1D1D" stroke-width="0.2835"/>
<path fill-rule="evenodd" clip-rule="evenodd" d="M128.036 98.8115L136.055 102.471L135.71 103.228L127.691 99.5678L128.036 98.8115Z" fill="#1D1D1D" stroke="#1D1D1D" stroke-width="0.2835"/>
<path fill-rule="evenodd" clip-rule="evenodd" d="M131.038 90.834L138.701 93.4546L139.031 92.4888L141.522 93.3407L141.253 94.127L139.442 93.5077L137.379 99.5385L139.191 100.158L138.922 100.944L136.431 100.092L136.672 99.3896C135.284 97.5706 133.83 97.1133 131.696 96.3838L129.408 95.6014L131.038 90.834ZM130.356 95.0469L132.061 95.6297C133.872 96.2494 135.441 96.7192 136.977 98.4958L138.432 94.2409L131.448 91.8528L130.356 95.0469Z" fill="#1D1D1D" stroke="#1D1D1D" stroke-width="0.2835"/>
<path fill-rule="evenodd" clip-rule="evenodd" d="M132.634 83.7271L133.337 83.8757L132.571 87.4878L140.498 89.169L140.325 89.9826L131.695 88.1523L132.634 83.7271Z" fill="#1D1D1D" stroke="#1D1D1D" stroke-width="0.2835"/>
<path fill-rule="evenodd" clip-rule="evenodd" d="M133.057 78.9471C133.285 76.2593 135.542 75.1483 137.902 75.3479C140.804 75.5935 142.239 77.4733 142.049 79.7088C141.86 81.9443 140.129 83.5561 137.228 83.31C134.868 83.1103 132.83 81.635 133.057 78.9471ZM141.333 79.648C141.463 78.1161 140.465 76.463 137.827 76.24C135.19 76.0163 133.903 77.476 133.773 79.0078C133.643 80.5398 134.667 82.1951 137.304 82.4184C139.941 82.6421 141.204 81.1804 141.333 79.648Z" fill="#1D1D1D" stroke="#1D1D1D" stroke-width="0.2835"/>
<path fill-rule="evenodd" clip-rule="evenodd" d="M133.198 67.9724L133.915 67.9421L134.028 70.5848L142.12 70.2385L142.155 71.0688L134.063 71.4151L134.177 74.0579L133.46 74.0882L133.198 67.9724Z" fill="#1D1D1D" stroke="#1D1D1D" stroke-width="0.2835"/>
<path fill-rule="evenodd" clip-rule="evenodd" d="M132.38 63.1792C131.919 60.5221 133.821 58.8748 136.155 58.4698C139.024 57.9729 140.887 59.4276 141.271 61.6378C141.654 63.8481 140.389 65.8455 137.521 66.3431C135.185 66.7479 132.841 65.8371 132.38 63.1792ZM140.563 61.7609C140.3 60.2456 138.916 58.8998 136.308 59.3517C133.7 59.8039 132.825 61.5418 133.088 63.0566C133.35 64.5715 134.76 65.9131 137.367 65.4614C139.975 65.0091 140.826 63.2757 140.563 61.7609Z" fill="#1D1D1D" stroke="#1D1D1D" stroke-width="0.2835"/>
<path fill-rule="evenodd" clip-rule="evenodd" d="M130.532 55.1371C129.976 53.3842 130.724 52.3678 131.865 52.0058C132.657 51.7546 133.515 51.8787 134.223 52.8575L134.258 52.8462C134.131 51.7765 134.719 50.8372 135.715 50.521C138.057 49.7793 138.834 52.1489 138.96 52.5451L139.649 54.7187L131.244 57.3828L130.532 55.1371ZM134.715 55.4104L134.288 54.0655C133.934 52.9486 133.059 52.5654 132.147 52.8547C131.127 53.1784 130.949 54.0796 131.243 55.0043L131.677 56.3731L134.715 55.4104ZM138.713 54.1426L138.309 52.8703C138.085 52.1617 137.534 50.8827 135.997 51.37C134.953 51.7011 134.611 52.7077 134.969 53.8366L135.399 55.1932L138.713 54.1426Z" fill="#1D1D1D" stroke="#1D1D1D" stroke-width="0.2835"/>
<path fill-rule="evenodd" clip-rule="evenodd" d="M128.565 49.7312L131.804 48.2405L132.261 48.03L132.255 48.0185L131.843 47.8755L126.858 46.0237L126.416 45.062L131.995 47.2097L134.226 40.9402L134.716 42.0049L132.647 47.6029L132.519 47.8972L132.536 47.9031L132.913 47.7299L136.575 46.0441L136.923 46.7991L128.913 50.4859L128.565 49.7312Z" fill="#1D1D1D" stroke="#1D1D1D" stroke-width="0.2835"/>
<path fill-rule="evenodd" clip-rule="evenodd" d="M125.012 42.6387L130.594 39.0594L131.523 38.5233L131.503 38.4914L130.484 38.5614L122.454 38.649L121.944 37.8532L129.371 33.0901L129.82 33.79L124.239 37.3695L123.309 37.9054L123.33 37.9375L124.269 37.8597L132.379 37.7799L132.889 38.5759L125.462 43.339L125.012 42.6387Z" fill="#1D1D1D" stroke="#1D1D1D" stroke-width="0.2835"/>
<path d="M30.979 15.9802L32.1306 17.4581L28.4842 20.3014L29.8406 22.041L31.1992 20.982C33.6544 19.0682 35.4302 20.2892 36.2657 21.3622C36.9539 22.2443 37.5782 24.2487 35.1941 26.1068L32.143 28.4851L25.6401 20.1425L30.979 15.9802ZM32.8132 25.8549L33.8629 25.0371C34.8043 24.3032 35.0358 23.4707 34.3763 22.6247C33.7168 21.7782 32.8523 21.8004 31.9109 22.5347L30.8627 23.3522L32.8132 25.8549Z" fill="#1D1D1D"/>
<path d="M33.9218 14.0686L35.7467 12.9404L41.3084 21.9383L39.4833 23.066L33.9218 14.0686Z" fill="#1D1D1D"/>
<path d="M45.7511 7.87549L50.2268 17.4648L48.282 18.3729L44.5988 10.4823L42.0644 11.6654L42.96 13.5829C42.9881 13.6429 43.0161 13.7028 43.0439 13.7625C44.5127 16.9076 45.8004 19.6646 43.0044 20.9701C42.6894 21.1173 42.3072 21.2284 42.0218 21.2953L41.3936 19.7361C41.5297 19.7061 41.7953 19.6318 41.9464 19.562C43.2935 18.9333 42.2512 16.7548 41.2562 14.6756C41.1378 14.4283 41.0202 14.1822 40.9071 13.9404L39.4496 10.817L45.7511 7.87549Z" fill="#1D1D1D"/>
<path d="M51.1009 6.05985L52.5214 11.3146L53.149 13.8075L53.1922 13.796L53.5203 12.1098L55.4069 4.89564L57.8875 4.22437L60.6508 14.4418L58.5783 15.0024L57.1537 9.73296L56.5305 7.25445L56.4861 7.26636L56.204 9.00307L54.2717 16.1667L51.7915 16.8375L49.0276 6.62043L51.1009 6.05985Z" fill="#1D1D1D"/>
<path d="M63.5779 3.42361L64.03 8.84907L64.1987 11.4144L64.243 11.4111L64.8699 9.81129L68.024 3.05308L70.5862 2.83975L71.4655 13.3892L69.3248 13.5675L68.8722 8.12697L68.7048 5.57637L68.659 5.58057L68.0692 7.23841L64.8797 13.9383L62.3173 14.1519L61.438 3.60275L63.5779 3.42361ZM68.4783 0.49609C67.988 2.06944 66.7265 2.41772 65.8377 2.49156C64.9484 2.56579 63.6476 2.43135 62.9029 0.96077L63.9535 0.281086C64.4087 1.18408 65.3616 1.15049 65.7225 1.12026C66.0853 1.09028 67.03 0.965813 67.3293 0L68.4783 0.49609Z" fill="#1D1D1D"/>
<path d="M81.443 3.60289C83.48 3.87826 84.8218 4.89868 84.5831 6.66656C84.3699 8.23923 83.3285 8.72391 82.5492 8.84721L82.545 8.87718C83.8645 9.2693 84.587 10.3585 84.409 11.6769C84.2329 12.9801 83.2461 14.5248 79.89 14.0713L76.5797 13.624L77.9971 3.13745L81.443 3.60289ZM78.9299 12.2633L80.1133 12.4232C81.4469 12.6036 82.0833 11.9576 82.1842 11.2081C82.2853 10.4594 81.9783 9.6857 80.5102 9.48715L79.326 9.32717L78.9299 12.2633ZM79.549 7.6795L80.5824 7.81881C81.9612 8.00543 82.3294 7.20101 82.3918 6.73625C82.4327 6.43677 82.4933 5.42292 80.845 5.20002L79.9016 5.07245L79.549 7.6795Z" fill="#1D1D1D"/>
<path fill-rule="evenodd" clip-rule="evenodd" d="M96.4705 12.785C95.3254 16.4502 92.4024 17.1838 89.9069 16.4037C87.4102 15.6231 85.4262 13.3558 86.572 9.69056C87.7177 6.02558 90.6401 5.29155 93.1366 6.07195C95.6323 6.85232 97.6169 9.12013 96.4705 12.785ZM88.7366 10.3671C87.6677 13.7872 89.5926 14.7218 90.358 14.9607C91.1231 15.1998 93.2373 15.5283 94.307 12.1084C95.3756 8.6888 93.4505 7.75413 92.6856 7.51487C91.9204 7.27585 89.8058 6.94755 88.7366 10.3671Z" fill="#1D1D1D"/>
<path fill-rule="evenodd" clip-rule="evenodd" d="M103.968 10.6142C105.801 11.5484 106.729 12.9559 105.919 14.5449C105.197 15.9594 104.054 16.0718 103.277 15.9302L103.263 15.9572C104.379 16.7641 104.7 18.0312 104.096 19.2163C103.498 20.3884 102.056 21.5191 99.0392 19.9806L96.062 18.4629L100.871 9.03467L103.968 10.6142ZM98.7309 17.9564L99.7945 18.4989C100.993 19.1104 101.808 18.7113 102.151 18.0381C102.495 17.3645 102.461 16.5326 101.14 15.8594L100.077 15.3168L98.7309 17.9564ZM100.832 13.835L101.762 14.3093C103.001 14.9412 103.614 14.3034 103.827 13.886C103.965 13.6165 104.357 12.6799 102.876 11.9241L102.028 11.4915L100.832 13.835Z" fill="#1D1D1D"/>
<path d="M111.863 15.27L109.219 18.9327L109.257 18.9595L114.999 17.5337L117.07 19.0279L110.69 20.3296L111.1 27.7627L108.896 26.1713L108.788 19.6088L108.751 19.5825L105.674 23.8456L103.934 22.59L110.124 14.0144L111.863 15.27Z" fill="#1D1D1D"/>
<path d="M119.58 27.2393L119.687 27.1817L119.665 27.0571L119.756 27.1449L119.864 27.0869L119.811 27.1986L119.899 27.2834L119.777 27.2669L119.724 27.3764L119.702 27.256L119.58 27.2393Z" fill="#1D1D1D" stroke="#1D1D1D"/>
<path d="M21.6028 29.1753L21.7099 29.1177L21.6876 28.9932L21.7793 29.0812L21.8873 29.0232L21.8334 29.1347L21.9219 29.2197L21.7999 29.2029L21.7471 29.3125L21.7254 29.1921L21.6028 29.1753Z" fill="#1D1D1D" stroke="#1D1D1D"/>
</g>
<defs>
<clipPath id="clip0_2558_3963">
<rect width="144" height="144" fill="white"/>
</clipPath>
</defs>
</svg>
