<svg width="136" height="136" viewBox="0 0 136 136" fill="none" xmlns="http://www.w3.org/2000/svg">
<g clip-path="url(#clip0_2275_1876)">
<mask id="mask0_2275_1876" style="mask-type:luminance" maskUnits="userSpaceOnUse" x="0" y="0" width="136" height="136">
<path d="M136 0H0V136H136V0Z" fill="white"/>
</mask>
<g mask="url(#mask0_2275_1876)">
<path d="M69.3295 30.7175C68.9566 31.136 67.8379 33.1468 67.4999 34.0185C66.8241 35.762 66.8357 35.6924 66.7541 44.7702L66.6959 53.1739H67.5582H68.4207L68.4672 44.7702C68.5021 37.8891 68.5372 36.2386 68.6886 35.6225C68.8983 34.6928 69.5044 32.8329 69.5976 32.8329C69.7026 32.8329 70.4017 34.9135 70.6114 35.855C70.763 36.599 70.7979 37.9123 70.8446 44.8747L70.8911 53.0344L71.3223 53.1042C71.5555 53.1391 71.9284 53.1739 72.1381 53.1739H72.511V45.0027C72.511 38.4355 72.476 36.692 72.3478 36.0643C72.0215 34.5764 71.0776 32.6004 69.9705 31.1242C69.5394 30.5547 69.5044 30.5199 69.3295 30.7175Z" fill="#1D1D1D"/>
<path d="M74.2589 40.1186C74.2589 40.665 74.3405 40.9438 74.7134 41.6646C75.7505 43.6404 76.4147 46.1511 76.7644 49.3592L76.8343 50.0102L77.3819 49.766C77.8015 49.5682 78.1511 49.5103 78.9202 49.5103C79.7943 49.5103 80.004 49.5566 80.6684 49.8705C81.0878 50.0681 81.6588 50.4285 81.9503 50.6608C82.5795 51.1607 82.626 51.091 82.4163 49.8126C81.7055 45.4073 79.1068 41.8157 75.2262 39.8745C74.7599 39.642 74.3521 39.4561 74.3172 39.4561C74.2823 39.4561 74.2589 39.7582 74.2589 40.1186ZM76.0651 41.1879C76.6479 41.5596 77.417 42.141 77.7782 42.4664C79.1301 43.6868 80.5167 45.8721 81.1111 47.7087C81.3908 48.5572 81.6005 49.4522 81.5307 49.4522C81.4958 49.4522 81.2276 49.3243 80.9247 49.1733C80.0622 48.7316 79.0718 48.5686 78.1978 48.7197C77.7317 48.7895 77.4402 48.8013 77.3937 48.7316C77.347 48.6618 77.2888 48.313 77.2538 47.9294C77.0441 45.9649 76.1583 42.9663 75.3078 41.3391C75.0745 40.8857 74.9115 40.5022 74.9464 40.5022C74.9931 40.5022 75.4941 40.8043 76.0651 41.1879Z" fill="#1D1D1D"/>
<path d="M64.2604 39.8027C63.398 40.1863 61.8831 41.2441 61.009 42.0578C58.8998 44.0105 57.4664 46.7187 56.9537 49.6594C56.8487 50.2523 56.7789 50.7869 56.8021 50.8566C56.8254 50.9149 57.1285 50.752 57.478 50.4848C58.6901 49.5664 59.8203 49.241 61.0206 49.4619C61.4053 49.5315 61.8714 49.6594 62.0579 49.764C62.2443 49.857 62.4192 49.9035 62.4657 49.8688C62.5006 49.8338 62.594 49.1829 62.6872 48.4389C62.9669 45.9747 63.8176 43.034 64.7149 41.4649C64.9712 40.9883 65.0528 40.7093 65.0528 40.2096C65.0528 39.489 65.0062 39.4657 64.2604 39.8027ZM64.004 41.0929C63.1766 42.6389 62.4308 45.045 62.0695 47.3928L61.8714 48.6598L61.5102 48.5784C60.2633 48.3228 59.2377 48.4507 58.1773 48.9853L57.6995 49.2294L57.7693 48.9039C58.0839 47.4742 58.8764 45.6494 59.7272 44.4056C60.2982 43.5571 61.6501 42.139 62.3841 41.6044C63.0485 41.1047 64.2604 40.3723 64.3186 40.4188C64.3304 40.4421 64.2021 40.7443 64.004 41.0929Z" fill="#1D1D1D"/>
<path d="M60.0881 41.1732C55.8578 43.707 53.0959 47.8102 52.6298 52.2386L52.5599 52.9942L52.9444 52.634C53.5388 52.076 54.2961 51.7505 55.112 51.6809L55.8462 51.6226V51.0183C55.8462 49.6817 56.4288 47.3221 57.1396 45.7411C57.6991 44.5091 58.9694 42.7192 60.0532 41.6266C60.6124 41.0686 61.0553 40.6152 61.0436 40.6152C61.0204 40.6152 60.5891 40.8593 60.0881 41.1732ZM56.5337 45.4274C56.021 46.5316 55.4499 48.5773 55.3217 49.821C55.2518 50.437 55.1936 50.6114 55.0421 50.6114C54.9372 50.623 54.5759 50.716 54.2379 50.8323L53.6086 51.053L53.6902 50.623C53.865 49.6932 54.5176 47.9962 55.077 47.0197C55.6014 46.1015 56.9066 44.2999 56.9882 44.3813C56.9998 44.4045 56.8017 44.8695 56.5337 45.4274Z" fill="#1D1D1D"/>
<path d="M79.5146 41.8594C80.9364 43.3471 82.0086 45.0673 82.6961 46.9853C83.069 48.0198 83.4652 49.926 83.4652 50.6931C83.4652 51.6927 83.5235 51.7742 84.211 51.7742C84.8986 51.7742 85.5745 52.0531 86.1689 52.5762L86.6 52.948L86.53 52.2739C86.4368 51.2858 85.9823 49.6005 85.5163 48.4615C84.3742 45.6718 81.8454 42.8007 79.095 41.1969C78.6756 40.9526 78.7221 41.0109 79.5146 41.8594ZM83.64 46.3575C83.9896 46.8923 84.4674 47.7175 84.6889 48.2056C85.0967 49.0891 85.7493 51.1581 85.6444 51.2627C85.5979 51.3092 85.225 51.2394 84.3275 51.0186C84.2577 50.9953 84.1643 50.5768 84.1178 50.0655C84.0245 48.9496 83.7216 47.7175 83.1971 46.3228C82.9758 45.7415 82.8475 45.2998 82.8942 45.3347C82.9525 45.3579 83.2787 45.8229 83.64 46.3575Z" fill="#1D1D1D"/>
<path d="M74.2705 45.8719L74.2589 48.6151L74.8182 48.929C75.1212 49.1032 75.4592 49.3357 75.5757 49.4287C75.7621 49.5915 75.7738 49.5798 75.7738 49.2543C75.7738 48.1385 74.9814 44.6398 74.4919 43.5822L74.2823 43.1172L74.2705 45.8719Z" fill="#1D1D1D"/>
<path d="M64.7843 43.6858C64.3648 44.6273 63.7704 47.1727 63.5956 48.8117L63.5024 49.6138L63.8287 49.4046C64.0152 49.2883 64.3298 49.0907 64.5395 48.9628L64.9124 48.7421L64.994 47.0915C65.0291 46.1849 65.0523 44.9411 65.0291 44.3368L64.994 43.2324L64.7843 43.6858Z" fill="#1D1D1D"/>
<path d="M33.5069 49.9398C33.5303 50.0212 33.705 50.5559 33.8798 51.1372C34.6607 53.7175 35.9309 55.5076 37.7955 56.6931C39.2173 57.5882 41.8393 58.8668 42.2471 58.8668C43.0396 58.8668 43.0745 58.7853 42.5151 58.1228C42.2354 57.7973 41.746 57.1232 41.4313 56.6351C41.1167 56.1352 40.8138 55.7632 40.7787 55.8097C40.7322 55.8446 40.6971 56.0422 40.6971 56.2398C40.6971 56.9604 40.5457 56.9604 39.7999 56.2398C38.9725 55.4261 38.5064 54.752 37.8769 53.4966C37.5856 52.9155 37.1545 52.311 36.7816 51.9159C36.0707 51.2068 36.0009 51.0208 36.4785 51.1372C37.5856 51.4162 39.5551 52.3575 45.5683 55.5307C49.2859 57.4952 52.3624 59.0991 52.3973 59.0991C52.4322 59.0991 52.4672 58.7504 52.4672 58.3088V57.5299L50.5095 56.5072C49.4373 55.9492 46.8619 54.601 44.776 53.5199C39.8581 50.9512 38.3897 50.3932 35.453 49.9747C33.9147 49.7656 33.4253 49.7538 33.5069 49.9398Z" fill="#1D1D1D"/>
<path d="M74.2589 51.5298C74.2589 53.2267 74.2589 53.2616 74.5269 53.3315C75.0396 53.4708 75.296 53.4127 75.366 53.1337C75.4009 52.9942 75.529 52.4596 75.6456 51.9481L75.867 51.0184L75.6106 50.7394C75.366 50.472 74.4453 49.7979 74.3287 49.7979C74.2938 49.7979 74.2589 50.5767 74.2589 51.5298Z" fill="#1D1D1D"/>
<path d="M104.441 49.8804C103.579 49.9734 102.006 50.2872 101.038 50.5661C99.3952 51.0195 97.9385 51.7052 92.205 54.7158L86.7862 57.5635L86.7513 58.4005C86.7163 59.1676 86.7279 59.2141 86.926 59.1211C101.073 51.6472 100.537 51.9261 101.913 51.438C103.427 50.9032 103.474 50.9497 102.518 51.9146C102.099 52.333 101.703 52.9026 101.353 53.6116C100.77 54.7623 99.7915 56.099 99.1622 56.5755C98.7077 56.9241 98.6145 56.8894 98.6029 56.3779C98.5912 55.6224 98.4631 55.5759 98.1133 56.2269C97.9385 56.5639 97.4609 57.2614 97.0413 57.7844C96.2488 58.7956 96.2488 58.8653 97.0647 58.8653C97.5541 58.8653 101.085 57.0405 102.087 56.2734C103.591 55.1225 104.651 53.5418 105.327 51.438C105.56 50.6941 105.781 50.0199 105.816 49.9385C105.863 49.799 105.408 49.7759 104.441 49.8804Z" fill="#1D1D1D"/>
<path d="M64.1791 50.3926C63.8529 50.66 63.5732 50.9156 63.5499 50.9855C63.5034 51.1249 64.0043 53.3101 64.1093 53.438C64.1558 53.4845 64.3657 53.4845 64.5638 53.4496L64.9367 53.3682V51.648C64.9367 50.6949 64.9018 49.916 64.8435 49.916C64.7968 49.916 64.4938 50.1253 64.1791 50.3926Z" fill="#1D1D1D"/>
<path d="M59.0043 50.6848C58.2934 51.0102 57.163 51.9168 56.9998 52.2888C56.9066 52.4866 56.9882 52.7771 57.4078 53.6604L57.9321 54.7763L58.8411 54.5438C59.3423 54.4159 60.4726 54.1603 61.3582 53.9859C62.2439 53.7999 63.0014 53.6372 63.0248 53.6023C63.0481 53.5792 62.9665 53.0328 62.8266 52.4052C62.6285 51.4752 62.5236 51.208 62.279 50.9987C61.4865 50.3361 60.0414 50.1966 59.0043 50.6848Z" fill="#1D1D1D"/>
<path d="M78.5119 50.4624C77.9642 50.5903 77.2182 50.8693 77.0201 51.0088C76.892 51.1016 76.7172 51.5434 76.5889 52.078C76.2045 53.7053 76.0297 53.4845 78.1621 53.9262C79.1876 54.1355 80.3298 54.3911 80.7027 54.5073C81.0756 54.612 81.4136 54.6701 81.4485 54.6352C81.5651 54.5306 82.4158 52.6476 82.4158 52.5081C82.4158 52.264 81.0872 51.1714 80.3763 50.8459C79.6655 50.5089 78.9313 50.3578 78.5119 50.4624Z" fill="#1D1D1D"/>
<path d="M54.5885 52.7272C54.1572 52.8667 53.2949 53.5873 52.922 54.1105L52.6774 54.4591L53.2133 55.2727C53.5163 55.7261 53.8194 56.0632 53.9008 56.0399C53.9824 56.0167 54.6817 55.7842 55.4624 55.5402C56.2549 55.2843 56.8958 55.0403 56.8958 54.9822C56.8958 54.9008 55.9869 52.8202 55.9169 52.7389C55.8237 52.6342 54.8914 52.6226 54.5885 52.7272Z" fill="#1D1D1D"/>
<path d="M83.5119 52.7953C83.372 52.8765 82.3814 54.9224 82.4513 54.9805C82.463 54.992 83.0574 55.213 83.7565 55.4686C84.4674 55.7242 85.12 55.9685 85.2249 56.0032C85.353 56.0615 85.5512 55.8637 85.9474 55.271L86.4835 54.469L86.1571 54.0156C85.7026 53.3996 85.3415 53.0974 84.8403 52.8765C84.3858 52.6907 83.7332 52.6442 83.5119 52.7953Z" fill="#1D1D1D"/>
<path d="M67.1496 54.7623C64.8073 54.9252 61.5327 55.4829 58.9922 56.1455C57.3841 56.564 54.4007 57.5055 54.121 57.6915C53.9929 57.7729 53.9696 59.0399 54.0161 64.7469C54.0628 71.1863 54.0861 71.8024 54.3076 72.988C54.9368 76.3238 56.1605 79.1716 58.0716 81.7637C59.0505 83.1003 61.3695 85.3669 62.7214 86.32C63.3273 86.7501 64.3295 87.3545 64.9354 87.68C66.2291 88.3541 69.3056 89.6676 69.5969 89.6676C69.9 89.6676 73.8622 87.9241 74.7827 87.3777C79.9919 84.3208 83.5112 79.4156 84.7697 73.4412C85.0261 72.2091 85.0379 71.9535 85.0728 64.9329L85.1077 57.7031L84.5485 57.459C81.7049 56.2385 76.9387 55.1111 73.2678 54.7972C71.9859 54.6927 68.4082 54.6693 67.1496 54.7623ZM68.0471 58.2726L69.5853 58.6097L71.3682 58.3889C73.0579 58.1914 73.361 58.1914 77.1135 58.354C79.2926 58.447 81.1804 58.5284 81.3087 58.5516C81.4602 58.5632 80.9707 58.9236 79.9452 59.5629C79.0596 60.1092 78.3371 60.5741 78.3371 60.609C78.3371 60.6438 78.4886 60.7717 78.6749 60.8763C78.873 60.9926 79.3275 61.3528 79.6888 61.6783C81.833 63.631 82.9286 66.6066 82.7187 69.9078C82.6255 71.535 82.5323 72.1161 82.3691 72.1161C82.2993 72.1045 82.0545 71.9535 81.833 71.7559L81.4252 71.4071L81.3552 72.6741C81.262 74.0922 81.0057 75.4753 80.5863 76.7539C80.2016 77.9395 79.2693 80.1364 79.1527 80.1364C79.1063 80.1364 78.6518 79.4506 78.1622 78.6136L77.2533 77.0794L77.0435 77.9395C76.7755 79.0205 75.8432 80.8918 75.0858 81.8916C74.7594 82.3099 74.1185 83.0189 73.6523 83.4607C72.8482 84.2163 69.3872 86.9941 69.2474 86.9941C69.2124 86.9941 69.4221 85.3901 69.7134 83.4142C70.0165 81.4498 70.2378 79.8225 70.2146 79.7876C70.1913 79.7645 68.3499 79.7062 66.1359 79.6715L62.0921 79.6134L62.733 79.1367C63.7002 78.4045 65.087 77.184 64.9705 77.1492C64.9238 77.1375 63.9683 77.2654 62.8612 77.4514C61.7541 77.6258 60.8685 77.7303 60.88 77.6838C60.9034 77.6373 61.4046 77.0329 62.0105 76.3472L63.1059 75.1033L62.3601 75.1847C61.5093 75.2777 61.4511 75.3358 60.5538 76.7423C60.2625 77.2073 59.9828 77.5559 59.9246 77.521C59.8779 77.4978 59.7963 77.6373 59.7614 77.8465C59.6798 78.1953 59.6448 78.137 59.1554 76.9399C58.0716 74.2897 57.419 71.7791 57.2674 69.7683C57.2209 69.1406 57.1976 68.6292 57.2209 68.6292C57.2792 68.6292 58.7592 69.6753 59.167 70.0008C59.4816 70.268 59.505 70.268 59.5866 70.0704C59.6331 69.9427 59.6798 69.6519 59.6798 69.4079L59.6915 68.9662L60.0411 69.1522C60.4838 69.3847 60.4838 69.373 60.414 69.0243C60.3557 68.6757 60.5305 68.5128 60.9966 68.5128C61.2647 68.5128 61.3579 68.4199 61.556 67.9782C61.789 67.4552 61.8473 67.1181 61.7308 67.1181C61.6959 67.1181 61.5327 67.1995 61.3812 67.3041L61.0899 67.4901V66.9437C61.0899 66.4556 61.0666 66.4091 60.8567 66.4787C60.6586 66.537 60.5887 66.4671 60.4373 66.1185L60.2508 65.6885L59.5517 66.7577C59.1554 67.339 58.8057 67.7922 58.7708 67.7573C58.7358 67.7226 58.6776 67.4436 58.6427 67.1413L58.5844 66.5951L58.095 67.4667C57.5238 68.4897 57.6054 68.6523 57.186 65.607C57.0228 64.4215 56.8362 63.352 56.7664 63.2359C56.4983 62.7709 56.5216 61.6318 56.8247 59.9812C56.9879 59.098 57.1393 58.354 57.1627 58.3309C57.186 58.3075 57.8969 58.5167 58.7474 58.8074C59.5866 59.098 60.4722 59.3305 60.7168 59.3305C60.9501 59.3305 61.323 59.377 61.5444 59.4466C61.9173 59.5512 61.9872 59.528 62.5582 59.0281L63.1759 58.5051L63.7351 58.7027L64.2946 58.8886L65.1686 58.3656C65.6814 58.0519 66.1359 57.8659 66.2756 57.889C66.4038 57.924 67.1963 58.0866 68.0471 58.2726Z" fill="#1D1D1D"/>
<path d="M65.2394 58.8203L64.307 59.3665L63.7943 59.1805L63.2815 58.983L62.6756 59.506C62.2444 59.8896 62.023 60.0175 61.8482 59.971C61.7199 59.9245 61.2538 59.8548 60.7994 59.7966C60.3566 59.7501 59.4359 59.5176 58.7717 59.2735C58.1075 59.041 57.5247 58.89 57.4782 58.9481C57.4315 58.9946 57.2801 59.7154 57.1402 60.5521C56.9072 61.9702 56.8954 62.7722 57.1402 62.9351C57.1867 62.9698 57.3499 63.8299 57.4898 64.8528C57.6296 65.8758 57.7811 66.7591 57.8393 66.8171C57.886 66.8754 58.119 66.5266 58.3638 66.0618L58.8066 65.2015L58.8998 65.8409C58.9582 66.1895 59.0165 66.5266 59.028 66.5964C59.0514 66.6545 59.3543 66.2709 59.7156 65.7479L60.3566 64.7832L60.6012 65.3875C60.8109 65.864 60.8925 65.9688 61.0557 65.8989C61.1722 65.8524 61.3354 65.7944 61.417 65.7595C61.5102 65.713 61.5569 65.8409 61.5569 66.1779C61.5569 66.6313 61.5685 66.6545 61.8015 66.5383C61.9298 66.4569 62.0579 66.422 62.0812 66.4453C62.1162 66.4918 62.3725 67.9562 62.3725 68.154C62.3725 68.247 62.2909 68.2701 62.1511 68.2236C61.9881 68.1771 61.9065 68.2352 61.8133 68.5026C61.7199 68.77 61.6034 68.863 61.2772 68.9211C60.8694 69.0025 60.8694 69.0025 60.9392 69.5138C61.009 70.0602 60.9626 70.1067 60.5081 69.8508C60.3449 69.758 60.1817 69.6882 60.1352 69.6766C60.0769 69.6766 60.042 70.0486 60.042 70.5018V71.3272L59.3193 70.6994C58.562 70.0486 57.8976 69.5603 57.7811 69.5603C57.7461 69.5603 57.7112 69.8044 57.7112 70.0951C57.7112 71.1644 58.6551 74.6746 59.3543 76.2555L59.6106 76.8251L59.7272 76.3252C59.867 75.7441 59.9835 75.6976 60.0885 76.1973L60.1585 76.5692L60.6012 75.8835C60.846 75.5116 61.1373 75.128 61.2423 75.0466C61.4053 74.9071 63.9924 74.5004 64.074 74.5934C64.0974 74.6165 63.6311 75.1629 63.0485 75.8137C62.4775 76.4763 62.023 77.0458 62.0697 77.0807C62.1279 77.1388 65.9503 76.5926 66.3347 76.4647C66.5911 76.3717 66.1133 76.8482 64.645 78.1152L63.3165 79.2659L67.034 79.3008C69.0851 79.3124 70.7632 79.3357 70.7632 79.3589C70.7632 79.3705 70.53 80.87 70.2504 82.6948C69.9707 84.5197 69.7493 86.0192 69.7726 86.0424C69.8891 86.1703 73.4317 83.1597 74.1542 82.323C75.6925 80.5445 76.6481 78.5569 76.8812 76.6273C76.9279 76.2555 77.0095 75.9765 77.0559 76.0113C77.1026 76.0346 77.5805 76.8017 78.1164 77.6968L79.0954 79.3357L79.3983 78.6614C80.4238 76.4182 80.925 74.2561 80.9365 72.0362L80.9483 70.5134L81.5427 70.9784L82.1253 71.4433L82.1951 71.1063C82.3583 70.4204 82.3 67.8051 82.1137 66.9101C81.6241 64.5042 80.1792 62.3422 78.2331 61.0869L77.4989 60.622L78.536 59.9594C79.0954 59.599 79.6897 59.227 79.8296 59.134C79.981 59.0411 80.086 58.9481 80.0626 58.9249C80.0509 58.9133 78.536 58.8203 76.7064 58.7505C73.6881 58.611 73.2103 58.6228 71.404 58.8086L69.423 59.0179L68.0244 58.704C67.2555 58.5298 66.5213 58.3669 66.393 58.332C66.2531 58.3089 65.7871 58.4948 65.2394 58.8203ZM67.8147 59.8083L69.015 60.064L71.1943 59.7385L73.3852 59.4246L74.9351 59.6339L76.4849 59.8548L75.4943 61.0404C74.9467 61.6912 74.4922 62.2608 74.4922 62.2957C74.4922 62.3306 74.8768 62.0981 75.3429 61.7842L76.1936 61.2147L77.0094 61.6331C78.2097 62.2608 79.5499 63.6323 80.1674 64.9109C80.7384 66.0734 81.0181 67.073 81.0997 68.2817L81.158 69.1536L80.5054 68.5142L79.8528 67.8866V69.4441C79.8528 70.3042 79.7712 71.6874 79.678 72.5128C79.5148 73.9308 79.107 75.9416 78.9322 76.2787C78.8739 76.3833 78.4428 75.8602 77.6852 74.791L76.5316 73.1404L76.4384 73.5355C75.7625 76.1973 74.9002 78.336 73.9096 79.7889C73.3152 80.6608 72.2664 81.7534 72.1965 81.579C72.1732 81.5092 72.313 80.4631 72.5112 79.2659C72.7093 78.0572 72.8491 77.0691 72.8258 77.0458C72.814 77.0226 71.4507 77.2318 69.8075 77.5108L66.8126 78.0107L67.034 77.7083C67.1621 77.5457 67.6982 76.8832 68.2459 76.2438C68.782 75.6046 69.2132 75.0699 69.2016 75.0582C69.2016 75.0582 68.3042 75.1396 67.2088 75.2675C64.3886 75.5696 64.5983 75.6511 65.2859 74.5816L65.8569 73.6866L64.1556 73.2683C62.2794 72.8033 62.2794 72.8265 64.1672 72.5708L65.1927 72.4429L66.055 71.6293C66.5329 71.1759 66.9175 70.8273 66.9175 70.8506C66.9057 70.8738 66.7892 71.3968 66.6378 72.0013C66.4864 72.6058 66.3697 73.1171 66.3814 73.1288C66.393 73.1404 67.0574 72.9776 67.8614 72.7568C68.6539 72.5359 69.3181 72.3499 69.3414 72.3499C69.3646 72.3499 69.3414 72.4663 69.3063 72.6058C69.2365 72.8381 69.2714 72.8265 69.5278 72.5244C69.924 72.071 70.3203 71.5363 70.2736 71.5363C70.2504 71.5363 69.6094 71.7455 68.8403 72.0013C68.0829 72.2569 67.4418 72.4429 67.4303 72.4314C67.4069 72.408 67.6749 71.6409 68.0244 70.7111C68.3742 69.7928 68.6539 69.0025 68.6306 68.9676C68.6188 68.9211 67.2786 69.4791 65.6472 70.1997L62.6872 71.5014L61.4753 72.9195C60.6713 73.8726 60.275 74.4306 60.275 74.6281C60.275 75.0001 60.1118 74.9885 59.9253 74.5816L59.7738 74.2679L59.6807 74.8257C59.634 75.1396 59.5757 75.4186 59.5408 75.4417C59.3894 75.593 58.4337 71.6293 58.5502 71.3038C58.5851 71.1877 59.9835 72.2338 60.0186 72.408C60.0302 72.4663 59.7972 72.5593 59.4941 72.594C58.9582 72.6638 58.9698 72.6638 59.7156 72.6754C60.1352 72.687 60.5663 72.7335 60.6713 72.7684C60.7993 72.8149 60.9975 72.5359 61.452 71.6293C61.7782 70.9784 62.1046 70.3972 62.1511 70.3623C62.2095 70.3276 62.7688 70.1997 63.3981 70.0718L64.5285 69.8508L63.8526 69.8161L63.165 69.7812L63.3516 69.5022C63.5146 69.2581 63.5146 69.2232 63.3631 69.2813C63.2233 69.3396 63.1884 69.2466 63.1884 68.77C63.1884 67.2939 62.5591 64.8528 61.7899 63.3418C61.5336 62.8303 61.347 62.5048 61.3704 62.6096C61.4286 62.8303 61.5102 62.8421 60.2866 62.3655C59.7389 62.1446 59.6807 62.133 59.8205 62.3073C59.972 62.4932 59.9486 62.5048 59.4009 62.412C59.0863 62.3655 58.5269 62.2841 58.1773 62.2492C57.5947 62.1911 57.5365 62.1562 57.5014 61.8772C57.4431 61.4007 57.653 61.0171 58.224 60.5521L58.7601 60.1221L59.5059 60.3196C59.9953 60.4476 60.4265 60.494 60.7295 60.4475C60.9859 60.4126 61.4635 60.436 61.7782 60.5056C62.361 60.622 62.3843 60.622 62.862 60.2266L63.3516 59.8199L63.7709 60.0989L64.2021 60.3779L65.1811 59.9129C65.7172 59.6571 66.2649 59.4711 66.393 59.4944C66.5213 59.5176 67.1621 59.6571 67.8147 59.8083ZM59.5991 62.8536C60.9859 63.3534 61.8249 63.7603 61.8831 63.9694C61.9298 64.0973 61.8831 64.1089 61.7199 64.0392C61.5918 63.9812 61.2654 63.9229 60.9741 63.8882C60.5779 63.8532 60.3566 63.7487 60.0302 63.4348C59.6922 63.1209 59.5524 63.0512 59.3193 63.1093C59.133 63.1558 58.8766 63.1093 58.6434 62.9931C58.4454 62.8886 58.2473 62.8303 58.2006 62.8652C58.1657 62.9001 58.2006 62.9351 58.2705 62.9351C58.3405 62.9351 58.4919 63.0628 58.5969 63.2256C58.7717 63.4928 58.7717 63.5627 58.4686 64.3879C58.2938 64.8644 58.1075 65.2597 58.0608 65.2597C58.0141 65.2597 57.9443 64.7249 57.8976 64.0742C57.8511 63.4232 57.7577 62.7956 57.6995 62.6792C57.5947 62.4932 57.6412 62.4701 58.0492 62.4701C58.3056 62.4701 59.0047 62.6443 59.5991 62.8536ZM59.8554 63.5976C60.0769 63.8997 60.0769 63.8997 59.7272 64.5972L59.3776 65.3062L59.296 64.4577C59.2495 63.8764 59.2611 63.5511 59.3543 63.4463C59.5408 63.2256 59.5991 63.2488 59.8554 63.5976ZM61.7666 64.5389C62.1046 64.8528 62.256 65.0853 62.256 65.2945C62.256 65.7014 62.1862 65.6898 61.9647 65.2597C61.7899 64.9225 61.7782 64.9109 61.452 65.0853C61.114 65.248 61.114 65.248 60.9859 64.8878C60.6713 63.9927 61.009 63.8417 61.7666 64.5389ZM62.5824 69.1187C62.827 69.3627 62.7339 69.6417 62.3725 69.7928C62.1744 69.8742 61.9414 70.0368 61.8598 70.1647C61.7083 70.3741 61.6968 70.3741 61.6267 70.0951C61.5918 69.9438 61.5218 69.7231 61.4753 69.6068C61.417 69.4441 61.452 69.4208 61.7199 69.4673C61.9763 69.5138 62.0579 69.479 62.1395 69.2581C62.2678 68.9442 62.3725 68.9095 62.5824 69.1187ZM61.1722 70.8738L61.4404 71.0249L61.1024 71.7107C60.8227 72.2685 60.7527 72.3499 60.7527 72.1059C60.7411 71.9432 60.7062 71.5597 60.6713 71.2573C60.5897 70.6762 60.6828 70.6064 61.1722 70.8738Z" fill="#1D1D1D"/>
<path d="M73.5019 60.261C72.3132 60.3773 71.0662 60.7259 71.0197 60.97C70.9964 61.1095 71.2412 61.1793 72.2434 61.342C73.7465 61.586 73.735 61.586 73.5718 61.3769C73.4668 61.249 73.5135 61.1909 73.8166 61.063L74.201 60.9003L73.3854 60.8421L72.5696 60.784L73.5019 60.5749C74.0147 60.4585 74.5973 60.319 74.7838 60.2725L75.1334 60.168L74.7838 60.1795C74.5973 60.1795 74.0147 60.2145 73.5019 60.261Z" fill="#1D1D1D"/>
<path d="M63.6201 61.0257C63.1887 61.4208 63.1772 61.4442 63.3753 61.6649C63.5734 61.8858 63.5734 61.8858 63.1189 61.7114C62.5479 61.4907 62.6061 61.5254 64.4241 62.8273C65.8225 63.8153 66.6849 64.6639 67.8269 66.1632C68.2231 66.6978 68.5493 67.0466 68.5493 66.9536C68.5493 66.5585 67.9552 64.9311 67.6054 64.3965L67.2443 63.8269L67.5823 64.0361C68.5493 64.6521 70.0994 65.9075 70.8102 66.6397C71.4744 67.3372 71.591 67.4186 71.5327 67.1512C71.3813 66.5467 70.7985 65.4192 70.4022 64.966L70.0062 64.5244L70.4723 64.5825C70.7286 64.6174 71.2414 64.7684 71.6143 64.9079C72.2436 65.1404 72.3485 65.2334 72.8379 66.0005C73.537 67.0698 74.213 68.6273 74.5743 70.0223C74.8189 70.9171 74.8772 71.4286 74.889 72.6956C74.889 73.5557 74.8656 74.4972 74.8189 74.7878L74.7375 75.3108L74.9588 74.7762C75.5649 73.2883 75.7164 70.8359 75.3085 69.1039C75.1803 68.5693 74.8656 67.6858 74.6092 67.1512C74.1081 66.0818 74.0731 66.1167 75.0055 66.7096C75.3435 66.9303 75.3435 66.9303 75.2152 66.6978C75.1453 66.5585 74.6442 66.0353 74.1081 65.524C73.0594 64.5475 71.8358 63.8153 70.6586 63.4665C69.7381 63.1993 69.6333 63.2224 69.4817 63.699C69.4001 63.9199 69.3069 64.0943 69.272 64.071C69.2253 64.0478 68.7941 63.8385 68.3163 63.606C67.8386 63.3619 67.221 63.1295 66.9412 63.0945L66.4402 63.0133L66.5683 63.3388C66.6966 63.6758 66.6966 63.6874 65.5895 62.6878C65.5312 62.6413 65.8108 62.432 66.207 62.2344C66.8714 61.909 66.9179 61.8974 66.8014 62.1183C66.7315 62.2578 66.6849 62.3857 66.7082 62.3973C66.8014 62.4903 70.5305 62.3043 70.5305 62.2228C70.5305 62.1648 70.2857 62.1183 69.9829 62.1183C69.6682 62.1183 69.0621 62.0834 68.6309 62.0369L67.8387 61.9672L68.095 61.6998L68.3396 61.4442L67.7104 61.3162C67.3724 61.2464 66.4867 61.0838 65.7525 60.9558C65.0185 60.8164 64.331 60.6886 64.2376 60.6653C64.1444 60.6421 63.8647 60.8048 63.6201 61.0257ZM65.869 61.6417C65.869 61.7812 65.2398 62.2344 65.065 62.2344C64.9834 62.2344 64.6572 62.0834 64.3192 61.8858L63.7133 61.5372H64.797C65.3796 61.5372 65.869 61.5836 65.869 61.6417Z" fill="#1D1D1D"/>
<path d="M62.7094 63.4209C63.3036 64.5135 63.5951 65.3155 64.0029 66.9196C64.3059 68.1052 64.3409 68.175 64.3642 67.6985C64.3991 66.9196 64.3524 66.0595 64.2359 65.6179C64.1777 65.397 64.1543 65.1878 64.1777 65.1645C64.2942 65.0483 65.0982 65.7921 65.5876 66.4431C66.1938 67.2567 66.2287 67.2335 65.7626 66.3269C65.273 65.3505 64.2475 64.1068 63.3387 63.3744C62.2198 62.4796 62.2082 62.4796 62.7094 63.4209Z" fill="#1D1D1D"/>
<path d="M94.3963 57.7881L93.9651 58.6367H94.5477H95.1303L95.0489 57.9626C94.9206 56.8815 94.874 56.87 94.3963 57.7881Z" fill="#1D1D1D"/>
<path d="M44.3917 57.2047C44.3568 57.3209 44.2867 57.6929 44.2518 58.0183L44.1702 58.6344H44.7646H45.3589L44.9278 57.8439C44.6947 57.4139 44.4849 57.0537 44.4733 57.0303C44.4615 57.0072 44.415 57.0884 44.3917 57.2047Z" fill="#1D1D1D"/>
<path d="M30.0104 58.1345C29.8007 58.1578 29.6259 58.2043 29.6259 58.239C29.6259 58.4484 30.8495 60.9357 31.2224 61.4937C31.8633 62.4236 33.285 63.7487 34.1825 64.2484C34.5903 64.4809 36.4198 65.248 38.2494 65.957L41.5708 67.2472L42.5031 67.1077C43.0158 67.0265 43.4586 66.9451 43.4819 66.9335C43.5053 66.9101 43.2838 66.6196 42.9925 66.2825C42.7012 65.9455 42.2116 65.2829 41.8854 64.8295L41.3144 63.9812L41.2212 65.2596L41.1396 66.5382L40.6851 66.2825C40.0209 65.9105 38.7273 64.7018 38.1329 63.8764L37.6086 63.1558L37.5503 63.7603L37.492 64.353L36.7927 63.8417C35.9422 63.2139 35.138 62.3306 34.4971 61.3077C34.2058 60.8311 33.8211 60.4126 33.4832 60.1686C32.8539 59.7385 32.2013 59.0993 32.3878 59.0993C32.6791 59.0993 34.2756 59.4711 34.9865 59.7036C35.4061 59.8315 37.4104 60.5986 39.4381 61.3775C41.4776 62.1678 43.1673 62.8187 43.1906 62.8187C43.214 62.8187 42.9807 62.3771 42.6661 61.8423L42.0835 60.8776L40.0209 60.0872C37.189 58.9946 36.1052 58.6575 34.5903 58.4019C33.285 58.181 30.7097 58.0299 30.0104 58.1345Z" fill="#1D1D1D"/>
<path d="M106.772 58.1205C104.348 58.3414 102.81 58.7365 99.5233 59.9917L97.2159 60.8752L96.6449 61.8167C96.3418 62.3282 96.0972 62.7698 96.1088 62.7932C96.1204 62.8047 97.8103 62.1771 99.8495 61.3867C101.901 60.5846 103.905 59.8291 104.324 59.7012C105.035 59.4687 106.632 59.0969 106.923 59.0969C107.121 59.0969 106.422 59.771 105.758 60.2126C105.432 60.4336 105.117 60.7125 105.082 60.8403C104.977 61.1657 103.742 62.7932 103.264 63.2348C103.043 63.4324 102.635 63.7694 102.343 63.9787L101.819 64.3505L101.761 63.7578L101.702 63.1534L101.085 63.9787C100.397 64.8736 99.6049 65.6175 98.7542 66.1871L98.2065 66.5475L98.1249 66.0476C98.09 65.7686 98.0433 65.1875 98.0433 64.7459L98.0317 63.9322L97.449 64.7924C97.1227 65.2573 96.6216 65.9081 96.3418 66.2452C96.0505 66.5822 95.8175 66.873 95.8175 66.9077C95.8175 66.9426 96.2487 67.024 96.7848 67.1053L97.7403 67.2448L101.166 65.9081C103.043 65.1759 104.872 64.397 105.233 64.1879C106.142 63.6533 107.494 62.3513 108.123 61.4098C108.625 60.6427 109.743 58.2949 109.639 58.1901C109.569 58.1205 107.389 58.0624 106.772 58.1205Z" fill="#1D1D1D"/>
<path d="M43.4125 59.5509C42.9462 59.5973 42.5384 59.667 42.4919 59.7019C42.4103 59.7949 43.3542 61.4571 44.0184 62.4102C45.0673 63.8979 46.827 65.316 48.4934 66.0018C49.1344 66.2691 52.1643 67.2339 52.3624 67.2339C52.4206 67.2339 52.4673 66.641 52.4673 65.9204V64.6069L51.0456 64.1653C50.2531 63.9212 49.2625 63.5377 48.8313 63.3168C47.9457 62.8518 47.0483 62.1312 47.3629 62.1196C47.7825 62.108 50.2531 62.5961 51.2203 62.8636C51.7796 63.0378 52.2923 63.1657 52.3506 63.1657C52.4206 63.1657 52.4673 62.6311 52.4673 61.8406V60.5155L50.9873 60.1553C50.1599 59.9693 49.0761 59.7484 48.5634 59.6788C47.3513 59.5159 44.4845 59.4345 43.4125 59.5509Z" fill="#1D1D1D"/>
<path d="M91.6467 59.5767C90.4814 59.6812 88.4537 60.065 87.4864 60.3555L86.7871 60.5647L86.7522 61.9247L86.7173 63.2729L87.2767 63.0987C88.8032 62.6337 91.9031 62.0177 92.0546 62.1572C92.1477 62.2618 90.8892 63.1334 90.1551 63.4938C89.7589 63.6798 88.8266 64.0053 88.0808 64.226L86.7289 64.6214V65.9696V67.3296L88.6051 66.7483C90.4929 66.1787 91.6817 65.6557 92.6722 64.9932C93.3598 64.5284 94.6999 63.238 95.1778 62.5872C95.7021 61.8549 96.8908 59.786 96.821 59.7046C96.5995 59.4954 93.3714 59.4024 91.6467 59.5767Z" fill="#1D1D1D"/>
<path d="M93.4399 66.0704C93.0553 66.6633 93.0553 66.7679 93.4864 66.7679C93.8244 66.7679 93.836 66.7563 93.836 66.1866C93.836 65.8613 93.8128 65.6055 93.7895 65.6055C93.7661 65.6055 93.6147 65.8148 93.4399 66.0704Z" fill="#1D1D1D"/>
<path d="M45.4755 66.2477C45.4755 66.7474 45.487 66.7707 45.825 66.7707C46.0231 66.7707 46.1746 66.7126 46.1746 66.6544C46.1746 66.4917 45.6736 65.7246 45.5686 65.7246C45.5104 65.7246 45.4755 65.9569 45.4755 66.2477Z" fill="#1D1D1D"/>
<path d="M44.4257 67.6555C44.2627 67.6787 43.7381 67.7601 43.2603 67.8298C42.7827 67.8996 42.3515 67.981 42.2931 68.0158C42.1534 68.0972 43.3652 69.7593 44.2393 70.6893C45.1832 71.6889 46.3719 72.5256 47.5838 73.0255C48.586 73.4322 50.742 73.9205 52.0123 74.0251L52.8979 74.1065L52.723 73.0255C52.6298 72.4326 52.5482 71.9329 52.5366 71.9213C52.525 71.9213 51.6976 71.7236 50.6953 71.5029C48.9006 71.096 47.7237 70.6543 47.106 70.1313L46.8147 69.8872L48.0383 69.9569C48.7143 69.9918 49.9844 70.1778 50.8701 70.3522L52.4666 70.6775V69.4919V68.3181L51.2781 68.0738C50.6137 67.9345 49.6698 67.7717 49.1688 67.702C48.318 67.5973 45.0901 67.5625 44.4257 67.6555Z" fill="#1D1D1D"/>
<path d="M90.3408 67.6555C90.1193 67.6904 89.2103 67.8415 88.3364 68.0041L86.7281 68.3064V69.5269C86.7281 70.6311 86.7515 70.7357 86.938 70.6776C88.1383 70.3172 90.737 69.9105 91.7974 69.9105H92.4965L92.2053 70.1428C91.4944 70.6892 90.399 71.1077 88.5577 71.5028C87.5206 71.7353 86.6583 71.9328 86.6349 71.9444C86.6234 71.9562 86.5533 72.3048 86.4835 72.7117C86.4253 73.1184 86.3437 73.6066 86.3087 73.781L86.2387 74.118L87.2175 74.0368C88.6393 73.9205 91.005 73.3509 92.0305 72.886C93.2308 72.3397 94.2329 71.6074 95.1304 70.6311C96.1092 69.5617 97.158 68.0624 96.9599 67.9925C96.1559 67.7253 91.6809 67.4928 90.3408 67.6555Z" fill="#1D1D1D"/>
<path d="M33.9497 67.9326C32.7378 68.0605 30.5585 68.5139 30.5585 68.6416C30.5585 68.8974 32.0036 70.7805 32.831 71.6057C33.5534 72.3147 34.043 72.6751 34.8237 73.0703C36.1639 73.756 36.5835 73.8839 39.9862 74.4883L42.8064 74.988L43.7387 74.6975C44.5777 74.4418 44.6593 74.3953 44.5194 74.2093C44.0883 73.6282 43.1444 72.4426 43.1444 72.4774C43.1444 72.5007 43.226 72.9657 43.3191 73.5003C43.4123 74.0465 43.4706 74.5115 43.4356 74.5348C43.3425 74.6278 42.4335 74.2443 41.6759 73.7909C41.2799 73.5584 40.5572 73.0353 40.0562 72.6169C39.1706 71.8731 39.1588 71.8731 39.2288 72.2217C39.2638 72.4193 39.3336 72.7332 39.3687 72.9308C39.4385 73.3377 39.3803 73.3492 38.7626 73.0934C37.8653 72.7216 36.6533 71.8382 35.6627 70.8386C35.115 70.269 34.4508 69.6995 34.206 69.5716C33.9614 69.4436 33.6584 69.2577 33.5303 69.1531C33.3088 68.9789 33.402 68.9671 34.8704 69.0254C36.0358 69.0601 37.2243 69.2112 39.4619 69.6181C41.1167 69.9086 42.4917 70.1295 42.5267 70.0946C42.5849 70.0365 41.5362 68.5139 41.4429 68.5139C41.408 68.5139 40.6272 68.386 39.6833 68.2233C37.7837 67.8978 35.4414 67.7815 33.9497 67.9326Z" fill="#1D1D1D"/>
<path d="M101.493 67.9466C101.003 67.9931 100.001 68.1442 99.2901 68.2837C98.5677 68.4114 97.9382 68.5162 97.8917 68.5162C97.7752 68.5162 96.7148 70.0272 96.7846 70.0969C96.8195 70.1318 98.1946 69.9109 99.8611 69.6203C102.122 69.2134 103.264 69.0624 104.441 69.0159C106.177 68.9578 106.224 69.0043 105.024 69.6203C104.732 69.7714 104.196 70.2364 103.835 70.6433C103.474 71.0616 102.844 71.6429 102.436 71.945C101.714 72.4797 100.269 73.2817 100.001 73.2817C99.8727 73.2817 99.9078 72.9215 100.094 72.131C100.152 71.9101 100.013 71.9799 99.3017 72.5844C98.1014 73.5956 96.0737 74.7463 95.864 74.5371C95.8407 74.5138 95.8989 74.0488 95.9921 73.5142C96.0853 72.9795 96.1437 72.5262 96.132 72.503C96.1086 72.4797 95.8989 72.7471 95.6659 73.0841C95.4329 73.4212 95.0831 73.8512 94.885 74.0372L94.5239 74.3743L95.5027 74.6882L96.4933 74.9903L99.325 74.479C100.887 74.2001 102.46 73.8977 102.798 73.7932C104.185 73.398 105.851 72.3519 106.842 71.2709C107.401 70.6664 108.566 69.0508 108.695 68.7137C108.753 68.5858 108.508 68.4928 107.564 68.2953C105.443 67.8536 103.45 67.7373 101.493 67.9466Z" fill="#1D1D1D"/>
<path d="M47.0126 74.8013C46.0454 74.9292 43.5049 75.5453 43.3651 75.6848C43.3068 75.7429 43.6099 76.1613 44.0293 76.6379C46.0921 78.951 47.7002 79.753 50.9166 80.0901C52.1518 80.218 52.886 80.2412 53.7483 80.1599C54.3894 80.1017 54.937 80.032 54.972 80.0087C54.9953 79.9739 54.8439 79.5786 54.6224 79.1254C54.1679 78.1605 54.4825 78.2769 51.476 77.9863C49.6696 77.8119 48.784 77.6143 47.9799 77.1959L47.5138 76.9518L48.2712 76.8472C49.0637 76.7542 50.4038 76.8007 52.4433 77.0099C53.1075 77.0795 53.6667 77.1144 53.6901 77.0913C53.7134 77.0679 53.5853 76.5798 53.4103 76.0103L53.0841 74.9642L52.6296 74.8712C51.8723 74.7317 47.9216 74.6736 47.0126 74.8013Z" fill="#1D1D1D"/>
<path d="M87.1367 74.8147L86.0762 74.9309L85.7616 75.977C85.575 76.5581 85.4585 77.0464 85.4935 77.0812C85.5168 77.1045 86.5074 77.0464 87.6843 76.9419C89.2693 76.7906 90.0967 76.7674 90.8191 76.8489L91.798 76.9534L91.3319 77.1975C90.5045 77.6275 89.6655 77.802 87.2648 78.046C85.9829 78.1855 84.9224 78.3017 84.9109 78.3132C84.7477 78.5806 84.1766 79.9522 84.2116 79.9871C84.2349 80.0221 84.8059 80.0917 85.4819 80.1498C87.09 80.3009 89.712 80.0452 91.0173 79.6036C92.5671 79.0921 93.3129 78.604 94.7464 77.151C95.5389 76.349 96.0283 75.7678 95.97 75.7098C95.7953 75.5354 93.2897 74.9425 92.1477 74.803C90.9241 74.6519 88.64 74.6635 87.1367 74.8147Z" fill="#1D1D1D"/>
<path d="M37.8422 76.464C36.4322 76.6732 35.4765 76.9056 34.2646 77.3475L33.2391 77.7193L34.0316 78.5795C35.3951 80.0904 36.91 81.0669 38.5415 81.462C38.9726 81.5783 40.6041 81.7061 42.795 81.8224C47.0718 82.0316 46.664 82.0316 46.9204 81.8456C47.1069 81.7061 47.0951 81.6713 46.6756 81.3924C46.431 81.2295 45.9298 80.8112 45.5686 80.4508C45.1956 80.1022 44.8927 79.8464 44.8927 79.9044C44.8927 79.9627 44.9976 80.3347 45.1257 80.7298C45.2422 81.1365 45.3354 81.4854 45.3123 81.5085C45.184 81.6364 43.203 80.8112 42.3638 80.2882C41.8161 79.9509 41.3501 79.6721 41.3267 79.6721C41.315 79.6721 41.3616 79.9162 41.4548 80.2183C41.5482 80.5323 41.6296 80.7879 41.6296 80.7995C41.6296 80.7995 41.3732 80.7414 41.0586 80.66C40.1496 80.4275 39.0542 79.8348 38.0287 79.0212C37.516 78.6143 37.0148 78.2772 36.945 78.2772C36.7584 78.2656 35.7097 77.7077 35.8612 77.6961C35.931 77.6961 36.4555 77.638 37.0265 77.5682C37.7839 77.4868 38.8677 77.4868 40.9071 77.5798C42.4688 77.6612 43.7622 77.7077 43.7856 77.6845C43.7971 77.6612 43.5759 77.359 43.2728 77.022L42.7134 76.3942L40.8022 76.3477C39.5903 76.3245 38.5066 76.371 37.8422 76.464Z" fill="#1D1D1D"/>
<path d="M97.0292 76.3837C96.6212 76.4186 96.4697 76.5232 95.9919 77.0696L95.4442 77.7206L97.5186 77.6158C100.071 77.4997 101.947 77.4997 102.867 77.6276L103.567 77.7206L103.042 77.9996C102.751 78.1506 102.448 78.2668 102.355 78.2784C102.262 78.2784 101.947 78.4761 101.656 78.7202C100.514 79.6617 99.3715 80.3242 98.2877 80.638L97.6816 80.8239L97.7516 80.5102C97.7983 80.3358 97.8797 80.08 97.9264 79.9289C97.9847 79.7894 98.008 79.6733 97.9847 79.6733C97.9613 79.6733 97.4953 79.9523 96.9476 80.2893C96.1084 80.8239 94.1274 81.6376 93.9991 81.4981C93.976 81.4865 94.0574 81.1263 94.1857 80.7078C94.5003 79.6964 94.4886 79.6733 93.9642 80.2079C93.7196 80.4637 93.2651 80.882 92.9505 81.1263C92.6358 81.3819 92.3328 81.6144 92.2745 81.6609C92.2278 81.7074 92.2861 81.8004 92.4259 81.8818C92.8222 82.091 99.7211 81.7074 100.886 81.4168C101.947 81.1494 103.112 80.5567 103.928 79.8824C104.814 79.1386 106.014 77.8136 105.886 77.7088C105.734 77.5577 104.557 77.151 103.532 76.8836C101.737 76.4071 99.0684 76.1979 97.0292 76.3837Z" fill="#1D1D1D"/>
<path d="M53.6318 80.9645C52.0237 81.1158 50.6484 81.3714 49.5415 81.72C48.411 82.0689 46.4999 82.929 46.5464 83.0569C46.628 83.266 48.1662 84.3818 48.8655 84.7306C49.9375 85.2768 50.8583 85.4861 52.1284 85.4861C54.0863 85.4744 55.3448 85.3002 56.5918 84.8468C58.165 84.2772 58.1067 84.3353 57.6407 83.8122L57.2444 83.359L54.5641 83.5682C52.4081 83.7426 51.7322 83.7657 51.1147 83.6612C50.3571 83.5334 50.159 83.452 50.2755 83.3357C50.4271 83.1846 52.8044 82.8244 54.5059 82.6849C55.5314 82.6151 56.4053 82.5105 56.4519 82.4756C56.4986 82.4408 56.3121 82.0571 56.0441 81.6271C55.4847 80.7438 55.6479 80.7787 53.6318 80.9645Z" fill="#1D1D1D"/>
<path d="M83.1267 81.603C82.8587 82.0331 82.6722 82.4051 82.7071 82.44C82.7422 82.4749 83.756 82.5911 84.9563 82.7074C87.1007 82.8934 89.0583 83.2305 89.0583 83.4047C89.0583 83.521 87.9979 83.7419 87.3919 83.7419C87.1238 83.7419 85.7837 83.6605 84.4086 83.5442L81.9148 83.3466L81.5302 83.8L81.1457 84.265L82.1594 84.6485C83.7444 85.2528 84.327 85.3691 86.2615 85.4388C88.3474 85.5202 89.1399 85.3923 90.4218 84.7415C91.1443 84.3811 92.6825 83.2652 92.7641 83.056C92.8108 82.9281 90.8996 82.068 89.7692 81.7194C88.429 81.3009 85.3643 80.8359 83.8609 80.8359C83.6977 80.8359 83.4763 81.0684 83.1267 81.603Z" fill="#1D1D1D"/>
<path d="M44.7866 84.4939C43.1901 84.8194 42.0365 85.2146 40.6497 85.912C39.5775 86.4467 38.5986 87.0627 38.5986 87.2022C38.5986 87.3301 40.3584 88.4808 40.941 88.7248C42.6191 89.457 43.6213 89.4804 47.2806 88.8294C49.7628 88.3994 50.1123 88.3064 50.4154 88.0274L50.7532 87.7252L50.089 87.4229C49.7277 87.2487 49.2616 86.9929 49.0519 86.8534L48.6906 86.5861L49.0635 87.2603C49.2616 87.6207 49.4364 87.9577 49.4364 87.9925C49.4364 88.1669 47.6766 87.9228 46.8261 87.6438C46.3249 87.4694 45.882 87.3533 45.8588 87.3882C45.8237 87.4229 45.882 87.5624 45.9869 87.7137C46.0919 87.8531 46.1735 88.0158 46.1735 88.0739C46.1735 88.3413 43.8194 87.7949 42.7939 87.2836C42.5026 87.1441 42.0596 86.9929 41.8033 86.9464C40.7546 86.7721 40.6612 86.7372 40.8244 86.6326C41.2207 86.3768 43.0269 85.9236 45.1829 85.54C46.4648 85.3076 47.5601 85.11 47.6184 85.0982C47.7933 85.0401 46.5697 84.2034 46.3365 84.215C46.2084 84.215 45.5208 84.3427 44.7866 84.4939Z" fill="#1D1D1D"/>
<path d="M92.158 84.6372C91.8434 84.8815 91.6337 85.0791 91.692 85.1022C91.7502 85.1138 92.8456 85.3115 94.1275 85.544C96.2717 85.9276 98.0897 86.3808 98.4743 86.6366C98.6607 86.7528 98.4626 86.8109 97.5071 86.9503C97.1924 86.9968 96.8195 87.1014 96.6912 87.1828C96.0271 87.6129 93.3701 88.3219 93.172 88.1128C93.1369 88.0894 93.2069 87.9034 93.3118 87.7059C93.405 87.5083 93.4633 87.3455 93.4283 87.3455C93.405 87.3455 92.9739 87.485 92.4727 87.6478C91.5986 87.9384 89.874 88.1709 89.874 87.9849C89.874 87.9384 90.0372 87.6129 90.2353 87.2642L90.6082 86.6249L90.107 86.9388C89.8391 87.1132 89.3728 87.3572 89.0699 87.485L88.5338 87.7175L88.8834 88.0314C89.2098 88.3103 89.5244 88.3918 92.0299 88.8334C95.6773 89.4844 96.7146 89.461 98.3578 88.7404C98.952 88.473 100.712 87.3339 100.712 87.2062C100.712 86.9503 98.2411 85.6253 96.7613 85.0906C96.0271 84.8232 93.2534 84.1956 92.8689 84.2072C92.7873 84.2072 92.4727 84.4049 92.158 84.6372Z" fill="#1D1D1D"/>
<path d="M79.9118 85.4837C79.5971 85.7976 79.3641 86.0766 79.399 86.0997C79.4224 86.123 80.5528 86.5531 81.893 87.0528C84.34 87.9596 85.82 88.6104 85.9832 88.8662C86.0415 88.9708 85.8667 88.9824 85.2957 88.9243C84.7363 88.8662 83.6758 88.5407 81.5783 87.7618L78.6416 86.6693L77.9539 87.1923C77.581 87.4829 77.3015 87.7387 77.3246 87.7618C77.4645 87.9013 83.9789 90.2494 84.5733 90.3655C85.5521 90.5631 86.7408 90.4469 87.9062 90.0169C89.3395 89.4938 89.3162 89.5287 88.6636 88.9474C87.1486 87.6108 85.8552 86.9017 82.8834 85.7976C81.7647 85.3791 80.7625 85.0071 80.6693 84.9722C80.5528 84.9257 80.2847 85.1001 79.9118 85.4837Z" fill="#1D1D1D"/>
<path d="M56.3705 85.8238C54.0165 86.6954 53.0959 87.1373 52.0121 87.8928C51.1847 88.4623 50.1359 89.334 50.1359 89.4504C50.1359 89.5549 51.8373 90.229 52.4666 90.357C53.1657 90.5196 54.0631 90.5196 54.8205 90.357C55.4498 90.2175 61.6496 87.974 61.8243 87.8114C61.9175 87.73 60.729 86.7653 60.5309 86.7653C60.4608 86.7653 59.144 87.2303 57.6058 87.8114C55.3682 88.6483 54.6108 88.869 53.9466 88.9271C53.3172 88.9736 53.1541 88.962 53.2822 88.8575C53.7717 88.4971 55.2868 87.8345 57.3843 87.0558C58.678 86.5793 59.75 86.1608 59.7733 86.1377C59.8431 86.0678 58.7244 85.0217 58.5846 85.0333C58.5263 85.0333 57.5242 85.3821 56.3705 85.8238Z" fill="#1D1D1D"/>
<path d="M66.6844 92.7608V95.2597L67.5352 95.225L68.3742 95.1901L68.4091 93.0863L68.4324 90.9825L67.5583 90.6221L66.6844 90.2617V92.7608Z" fill="#1D1D1D"/>
<path d="M71.695 90.589L70.9376 90.9145L70.9025 93.0765L70.8793 95.2501H71.7532H72.6273V92.751C72.6273 91.3795 72.5922 90.252 72.5457 90.252C72.4874 90.2637 72.1145 90.4032 71.695 90.589Z" fill="#1D1D1D"/>
<path d="M50.0199 91.8544C49.4373 92.424 48.9712 92.947 48.9712 93.0051C48.9712 93.0632 49.3557 93.2376 49.8217 93.4004C50.451 93.6096 50.9055 93.6794 51.6631 93.6794H52.6652L54.5531 92.7494L56.4409 91.8195L55.1008 91.8079C53.819 91.8079 53.7608 91.8195 53.9471 92.0171C54.2851 92.389 54.0403 92.4124 51.2784 92.3425C50.7074 92.3194 50.2531 92.2845 50.2531 92.2611C50.2531 92.238 50.6491 91.9706 51.127 91.6569C51.9079 91.1454 51.9661 91.0755 51.7213 91.0175C51.5699 90.9825 51.36 90.9129 51.2553 90.878C51.1154 90.8315 50.7541 91.1105 50.0199 91.8544Z" fill="#1D1D1D"/>
<path d="M87.6959 90.9717L87.323 91.0996L88.1971 91.6574C88.6749 91.9713 89.0594 92.2387 89.0594 92.2619C89.0594 92.3084 87.9874 92.3549 86.3208 92.3782C85.9364 92.3898 85.5284 92.3549 85.4003 92.3084C85.2021 92.227 85.1906 92.2038 85.3653 92.0178C85.5517 91.8202 85.4934 91.8087 84.2349 91.8087L82.9063 91.8202L84.3165 92.5524C86.0645 93.4475 86.8918 93.738 87.6843 93.738C88.3485 93.738 90.3413 93.1918 90.3413 93.0058C90.3413 92.8548 88.302 90.8322 88.1737 90.8438C88.1155 90.8556 87.9058 90.9136 87.6959 90.9717Z" fill="#1D1D1D"/>
<path d="M62.256 97.0505V98.0385L69.6327 98.0152L76.9978 97.9803L77.0328 97.0156L77.0677 96.0625H69.656H62.256V97.0505Z" fill="#1D1D1D"/>
<path d="M68.1989 99.0452C68.1989 99.4288 68.5484 104.845 68.6182 105.438L68.6765 106.054H69.5855H70.4829L70.681 102.765C70.7976 100.963 70.8792 99.3476 70.8792 99.1616V98.8477H69.539C68.3619 98.8477 68.1989 98.871 68.1989 99.0452Z" fill="#1D1D1D"/>
<path d="M66.1013 107.567V108.149H69.6557H73.2101V107.567V106.986H69.6557H66.1013V107.567Z" fill="#1D1D1D"/>
<path d="M66.6845 109.299C66.8361 109.59 67.2673 109.903 67.4071 109.822C67.4536 109.787 67.5003 109.613 67.5003 109.415C67.5003 109.101 67.477 109.078 67.0342 109.078C66.6029 109.078 66.568 109.101 66.6845 109.299Z" fill="#1D1D1D"/>
<path d="M68.3163 109.892C68.3163 110.996 68.4911 111.17 69.5864 111.17C70.2157 111.17 70.4487 111.124 70.6935 110.926C70.9732 110.706 70.9966 110.613 70.9966 109.88V109.078H69.6564H68.3163V109.892Z" fill="#1D1D1D"/>
<path d="M71.8118 109.485C71.8118 109.706 71.8467 109.892 71.905 109.892C72.0682 109.892 72.5111 109.532 72.6276 109.299C72.7442 109.101 72.7091 109.078 72.2779 109.078C71.8234 109.078 71.8118 109.09 71.8118 109.485Z" fill="#1D1D1D"/>
<path fill-rule="evenodd" clip-rule="evenodd" d="M134.162 68.0001C134.162 104.541 104.541 134.162 68 134.162C31.4594 134.162 1.83783 104.541 1.83783 68.0001C1.83783 31.4602 31.4594 1.83789 68 1.83789C104.541 1.83789 134.162 31.4602 134.162 68.0001Z" stroke="#1D1D1D" stroke-width="2"/>
<path fill-rule="evenodd" clip-rule="evenodd" d="M25.5142 39.5353L19.697 35.9196L17.6057 39.2852L23.422 42.901L23.0511 43.4981L17.2339 39.8821L16.7673 40.6331L14.8763 39.4576L15.2479 38.8607L16.6225 39.7153L19.5526 35.002L25.885 38.9384L25.5142 39.5353Z" fill="#1D1D1D" stroke="#1D1D1D" stroke-width="0.2835"/>
<path fill-rule="evenodd" clip-rule="evenodd" d="M20.4748 48.896L19.9224 48.6428L21.1394 45.9887L18.6888 44.8649L17.5293 47.3928L16.9775 47.14L18.1368 44.6116L15.4636 43.3856L14.162 46.2238L13.61 45.9702L15.205 42.4932L21.9853 45.603L20.4748 48.896Z" fill="#1D1D1D" stroke="#1D1D1D" stroke-width="0.2835"/>
<path fill-rule="evenodd" clip-rule="evenodd" d="M19.575 51.2199L16.4378 50.2287L15.2702 53.9242L18.407 54.9154L18.1964 55.5853L11.0895 53.3405L11.301 52.6703L14.6918 53.7414L15.8595 50.046L12.4686 48.9749L12.6801 48.3047L19.787 50.5498L19.575 51.2199Z" fill="#1D1D1D" stroke="#1D1D1D" stroke-width="0.2835"/>
<path fill-rule="evenodd" clip-rule="evenodd" d="M16.9744 61.8759L16.3768 61.7665L16.7796 59.5665L10.043 58.3335L10.1695 57.6417L16.9066 58.8752L17.3088 56.6748L17.9066 56.7842L16.9744 61.8759Z" fill="#1D1D1D" stroke="#1D1D1D" stroke-width="0.2835"/>
<path fill-rule="evenodd" clip-rule="evenodd" d="M16.7214 65.0158C16.6202 66.396 15.6868 67.1819 14.413 67.0881C13.1385 66.9948 12.33 66.0918 12.432 64.7006L12.522 63.4691L9.37964 63.2384L9.43073 62.5371L16.8635 63.0837L16.7214 65.0158ZM13.1274 63.5136L13.0471 64.6071C13.0179 65.0106 13.0026 66.2266 14.4685 66.3344C15.9968 66.4467 16.112 65.0246 16.1265 64.8335L16.2061 63.7396L13.1274 63.5136Z" fill="#1D1D1D" stroke="#1D1D1D" stroke-width="0.2835"/>
<path fill-rule="evenodd" clip-rule="evenodd" d="M9.83568 76.9565C9.65895 76.5338 9.45367 75.9107 9.38444 75.1258C9.15559 72.5482 10.8572 71.2423 12.7343 71.0756C14.707 70.9002 16.7444 71.8096 16.9857 74.525C17.0438 75.1826 17.005 75.7099 16.8511 76.2583L16.209 76.2511C16.4559 75.4166 16.3941 74.7274 16.3754 74.5153C16.2098 72.6482 14.6571 71.6635 12.7905 71.8295C10.8918 71.9982 9.84195 73.4172 9.98403 75.0188C10.0438 75.6871 10.2318 76.3652 10.5035 76.8971L9.83568 76.9565Z" fill="#1D1D1D" stroke="#1D1D1D" stroke-width="0.2835"/>
<path fill-rule="evenodd" clip-rule="evenodd" d="M18.464 82.8298L11.1907 84.4756L11.0361 83.7899L17.7165 82.2783L16.8586 78.4855L10.1776 79.9975L10.0223 79.3118L17.2956 77.666L18.464 82.8298Z" fill="#1D1D1D" stroke="#1D1D1D" stroke-width="0.2835"/>
<path fill-rule="evenodd" clip-rule="evenodd" d="M20.3447 88.2417L19.7739 88.448L18.7823 85.705L16.2492 86.6206L17.1936 89.2334L16.6237 89.4397L15.6792 86.827L12.9159 87.8255L13.9762 90.7589L13.4056 90.9652L12.1067 87.3708L19.1144 84.8379L20.3447 88.2417Z" fill="#1D1D1D" stroke="#1D1D1D" stroke-width="0.2835"/>
<path fill-rule="evenodd" clip-rule="evenodd" d="M21.3377 90.5393L15.2494 93.6671L17.0592 97.1897L23.1474 94.0619L23.4692 94.6869L17.3796 97.8149L17.783 98.601L15.8041 99.6177L15.4836 98.9928L16.9225 98.2532L14.3881 93.3196L21.0171 89.9141L21.3377 90.5393Z" fill="#1D1D1D" stroke="#1D1D1D" stroke-width="0.2835"/>
<path fill-rule="evenodd" clip-rule="evenodd" d="M25.1346 97.2591L18.8849 101.325L18.5015 100.735L24.7513 96.6699L25.1346 97.2591Z" fill="#1D1D1D" stroke="#1D1D1D" stroke-width="0.2835"/>
<path fill-rule="evenodd" clip-rule="evenodd" d="M28.1461 101.379L24.1571 108.337L23.6862 107.745L24.7838 105.823L22.4894 102.941L20.3709 103.579L19.9003 102.987L27.5754 100.662L28.1461 101.379ZM27.3126 101.443L26.6104 101.689L23.1101 102.746L25.1126 105.262L26.9285 102.089L27.3259 101.46L27.3126 101.443Z" fill="#1D1D1D" stroke="#1D1D1D" stroke-width="0.2835"/>
<path fill-rule="evenodd" clip-rule="evenodd" d="M34.4696 108.001L29.3201 113.393L28.8112 112.908L33.5418 107.954L31.4698 105.975L30.1085 107.401C28.3576 109.234 26.7032 111.012 25.4171 109.784C25.3399 109.71 25.2083 109.57 25.0909 109.37L25.5264 108.975C25.5965 109.087 25.713 109.227 25.7975 109.308C26.7304 110.198 28.7689 107.785 29.6226 106.892L31.3803 105.051L34.4696 108.001Z" fill="#1D1D1D" stroke="#1D1D1D" stroke-width="0.2835"/>
<path fill-rule="evenodd" clip-rule="evenodd" d="M36.6686 109.751L34.8552 112.214L35.8162 112.921C36.1767 113.186 37.9617 114.5 36.6671 116.259C35.9847 117.186 34.6409 117.52 33.4996 116.68L31.6807 115.341L36.1019 109.334L36.6686 109.751ZM32.6062 115.269L33.6881 116.064C34.6749 116.791 35.5653 116.48 36.0452 115.828C36.9292 114.627 35.9369 113.764 35.4482 113.404L34.4953 112.703L32.6062 115.269Z" fill="#1D1D1D" stroke="#1D1D1D" stroke-width="0.2835"/>
<path fill-rule="evenodd" clip-rule="evenodd" d="M41.8095 113.302L40.2223 116.185L43.6177 118.054L45.2051 115.171L45.8202 115.51L42.2256 122.04L41.6099 121.701L43.3253 118.585L39.9296 116.716L38.2141 119.832L37.5983 119.493L41.1936 112.963L41.8095 113.302Z" fill="#1D1D1D" stroke="#1D1D1D" stroke-width="0.2835"/>
<path fill-rule="evenodd" clip-rule="evenodd" d="M50.4931 117.335C52.6303 118.129 53.0256 120.218 52.3295 122.096C51.4728 124.404 49.6181 125.148 47.8394 124.488C46.0615 123.829 45.14 122.055 45.9957 119.747C46.6924 117.869 48.3553 116.543 50.4931 117.335ZM48.051 123.919C49.2702 124.371 50.8419 123.931 51.6201 121.833C52.398 119.736 51.5 118.357 50.2817 117.905C49.0625 117.453 47.4833 117.912 46.7049 120.01C45.9272 122.108 46.8321 123.467 48.051 123.919Z" fill="#1D1D1D" stroke="#1D1D1D" stroke-width="0.2835"/>
<path fill-rule="evenodd" clip-rule="evenodd" d="M55.907 119.104L54.0491 126.324L53.3682 126.148L55.2257 118.928L55.907 119.104ZM55.4742 117.409L55.2617 118.234L54.54 118.048L54.7521 117.223L55.4742 117.409ZM57.1452 117.839L56.9331 118.664L56.2112 118.478L56.4234 117.653L57.1452 117.839Z" fill="#1D1D1D" stroke="#1D1D1D" stroke-width="0.2835"/>
<path fill-rule="evenodd" clip-rule="evenodd" d="M64.6197 120.559L64.5447 121.162L62.3238 120.886L61.481 127.686L60.7828 127.599L61.626 120.8L59.4052 120.525L59.48 119.922L64.6197 120.559Z" fill="#1D1D1D" stroke="#1D1D1D" stroke-width="0.2835"/>
<path fill-rule="evenodd" clip-rule="evenodd" d="M68.8107 120.652L71.6503 128.155L70.8944 128.143L70.1074 126.074L66.4224 126.014L65.5691 128.056L64.8124 128.044L67.8945 120.637L68.8107 120.652ZM68.3308 121.336L68.0742 122.035L66.6666 125.411L69.8834 125.463L68.5859 122.044L68.3523 121.337L68.3308 121.336Z" fill="#1D1D1D" stroke="#1D1D1D" stroke-width="0.2835"/>
<path fill-rule="evenodd" clip-rule="evenodd" d="M73.6868 120.413L74.0759 123.403L74.1315 123.825L74.1416 123.824L74.3609 123.527L77.1096 119.967L77.9963 119.852L74.8608 123.816L79.3609 127.194L78.3791 127.322L74.3787 124.244L74.1734 124.066L74.1639 124.079L74.2096 124.427L74.65 127.808L73.9525 127.898L72.9891 120.504L73.6868 120.413Z" fill="#1D1D1D" stroke="#1D1D1D" stroke-width="0.2835"/>
<path fill-rule="evenodd" clip-rule="evenodd" d="M83.774 118.439L83.9223 119.028L81.754 119.574L83.4259 126.213L82.7442 126.385L81.0725 119.746L78.9041 120.292L78.7557 119.703L83.774 118.439Z" fill="#1D1D1D" stroke="#1D1D1D" stroke-width="0.2835"/>
<path fill-rule="evenodd" clip-rule="evenodd" d="M85.5796 117.823L87.6251 123.037L87.9164 123.896L87.9462 123.884L88.0567 123.028L89.3068 116.36L90.0507 116.068L92.7731 123.008L92.1194 123.265L90.073 118.05L89.7817 117.192L89.7526 117.204L89.6616 117.994L88.3915 124.728L87.6481 125.019L84.925 118.08L85.5796 117.823Z" fill="#1D1D1D" stroke="#1D1D1D" stroke-width="0.2835"/>
<path fill-rule="evenodd" clip-rule="evenodd" d="M92.1992 114.987L93.4132 117.138C94.0831 118.326 95.2597 117.637 95.6497 117.417C96.0571 117.187 96.4497 116.929 96.8272 116.643L97.1718 116.387L95.3714 113.197L95.9831 112.852L99.6464 119.344L99.0343 119.689L97.4699 116.916L97.1196 117.163C96.7098 117.455 96.3097 117.742 95.8735 117.988C93.9256 119.087 93.1366 118.077 92.8066 117.493L91.5875 115.332L92.1992 114.987Z" fill="#1D1D1D" stroke="#1D1D1D" stroke-width="0.2835"/>
<path fill-rule="evenodd" clip-rule="evenodd" d="M98.3256 111.289L100.314 113.91L103.402 111.568L101.413 108.946L101.974 108.521L106.479 114.46L105.918 114.885L103.769 112.051L100.681 114.394L102.831 117.227L102.271 117.652L97.766 111.714L98.3256 111.289Z" fill="#1D1D1D" stroke="#1D1D1D" stroke-width="0.2835"/>
<path fill-rule="evenodd" clip-rule="evenodd" d="M105.547 105.003C107.142 103.376 109.211 103.867 110.641 105.268C112.397 106.99 112.32 108.986 110.993 110.34C109.666 111.694 107.671 111.812 105.914 110.09C104.484 108.689 103.952 106.631 105.547 105.003ZM110.56 109.915C111.469 108.987 111.709 107.374 110.111 105.808C108.514 104.243 106.89 104.5 105.98 105.428C105.071 106.356 104.847 107.985 106.444 109.55C108.041 111.116 109.65 110.843 110.56 109.915Z" fill="#1D1D1D" stroke="#1D1D1D" stroke-width="0.2835"/>
<path fill-rule="evenodd" clip-rule="evenodd" d="M107.646 100.475L108.313 101.007L107.848 101.59L107.181 101.059L107.646 100.475ZM108.723 99.125L109.389 99.6567L108.924 100.24L108.257 99.7089L108.723 99.125ZM109.371 100.773L115.203 105.423L114.765 105.972L108.933 101.323L109.371 100.773Z" fill="#1D1D1D" stroke="#1D1D1D" stroke-width="0.2835"/>
<path fill-rule="evenodd" clip-rule="evenodd" d="M114.76 92.5098L121.206 96.2641L120.853 96.8717L114.931 93.4234L112.973 96.7848L118.895 100.233L118.541 100.841L112.095 97.0871L114.76 92.5098Z" fill="#1D1D1D" stroke="#1D1D1D" stroke-width="0.2835"/>
<path fill-rule="evenodd" clip-rule="evenodd" d="M115.924 89.9492L122.704 93.0436L122.412 93.6832L115.632 90.5886L115.924 89.9492Z" fill="#1D1D1D" stroke="#1D1D1D" stroke-width="0.2835"/>
<path fill-rule="evenodd" clip-rule="evenodd" d="M118.462 83.2051L124.941 85.4208L125.22 84.6042L127.326 85.3245L127.098 85.9892L125.567 85.4656L123.823 90.5645L125.355 91.0879L125.128 91.753L123.022 91.0328L123.225 90.4386C122.052 88.9007 120.822 88.514 119.019 87.8973L117.084 87.2358L118.462 83.2051ZM117.886 86.767L119.327 87.2597C120.858 87.7837 122.185 88.1808 123.484 89.6829L124.714 86.0855L118.808 84.0665L117.886 86.767Z" fill="#1D1D1D" stroke="#1D1D1D" stroke-width="0.2835"/>
<path fill-rule="evenodd" clip-rule="evenodd" d="M119.811 77.1973L120.406 77.323L119.758 80.3769L126.46 81.7983L126.314 82.4862L119.018 80.9387L119.811 77.1973Z" fill="#1D1D1D" stroke="#1D1D1D" stroke-width="0.2835"/>
<path fill-rule="evenodd" clip-rule="evenodd" d="M120.169 73.155C120.362 70.8825 122.27 69.9432 124.266 70.1119C126.719 70.3196 127.932 71.909 127.772 73.799C127.612 75.689 126.148 77.0518 123.696 76.8438C121.7 76.6749 119.977 75.4275 120.169 73.155ZM127.166 73.7476C127.276 72.4524 126.432 71.0548 124.202 70.8662C121.973 70.6771 120.884 71.9112 120.774 73.2063C120.665 74.5016 121.53 75.9011 123.76 76.0899C125.99 76.279 127.057 75.0432 127.166 73.7476Z" fill="#1D1D1D" stroke="#1D1D1D" stroke-width="0.2835"/>
<path fill-rule="evenodd" clip-rule="evenodd" d="M120.288 63.8761L120.894 63.8506L120.99 66.0848L127.831 65.7921L127.861 66.4941L121.02 66.7869L121.116 69.0213L120.51 69.0469L120.288 63.8761Z" fill="#1D1D1D" stroke="#1D1D1D" stroke-width="0.2835"/>
<path fill-rule="evenodd" clip-rule="evenodd" d="M119.596 59.8239C119.207 57.5773 120.815 56.1846 122.788 55.8422C125.214 55.4221 126.789 56.652 127.114 58.5207C127.438 60.3894 126.368 62.0782 123.943 62.4989C121.968 62.8411 119.986 62.071 119.596 59.8239ZM126.515 58.6247C126.293 57.3435 125.122 56.2057 122.918 56.5878C120.713 56.9701 119.973 58.4394 120.195 59.7202C120.417 61.001 121.609 62.1353 123.813 61.7534C126.018 61.371 126.737 59.9055 126.515 58.6247Z" fill="#1D1D1D" stroke="#1D1D1D" stroke-width="0.2835"/>
<path fill-rule="evenodd" clip-rule="evenodd" d="M118.034 53.0245C117.564 51.5425 118.196 50.6831 119.161 50.3771C119.831 50.1647 120.557 50.2696 121.155 51.0972L121.185 51.0876C121.077 50.1832 121.574 49.3891 122.417 49.1217C124.396 48.4946 125.053 50.4981 125.16 50.8331L125.742 52.6707L118.636 54.9232L118.034 53.0245ZM121.571 53.2556L121.21 52.1185C120.91 51.1742 120.171 50.8502 119.399 51.0948C118.537 51.3685 118.387 52.1304 118.635 52.9122L119.002 54.0695L121.571 53.2556ZM124.951 52.1837L124.61 51.108C124.42 50.5089 123.954 49.4275 122.655 49.8396C121.772 50.1195 121.483 50.9706 121.785 51.925L122.149 53.0719L124.951 52.1837Z" fill="#1D1D1D" stroke="#1D1D1D" stroke-width="0.2835"/>
<path fill-rule="evenodd" clip-rule="evenodd" d="M116.371 48.4541L119.11 47.1937L119.496 47.0158L119.491 47.006L119.143 46.8851L114.928 45.3195L114.554 44.5064L119.271 46.3222L121.158 41.0215L121.572 41.9217L119.822 46.6546L119.714 46.9035L119.729 46.9084L120.048 46.762L123.144 45.3367L123.438 45.975L116.665 49.0922L116.371 48.4541Z" fill="#1D1D1D" stroke="#1D1D1D" stroke-width="0.2835"/>
<path fill-rule="evenodd" clip-rule="evenodd" d="M113.367 42.4569L118.087 39.4307L118.872 38.9775L118.855 38.9504L117.993 39.0096L111.204 39.0837L110.773 38.4109L117.053 34.3838L117.432 34.9756L112.713 38.0019L111.928 38.455L111.945 38.4822L112.739 38.4164L119.596 38.3489L120.027 39.0219L113.747 43.049L113.367 42.4569Z" fill="#1D1D1D" stroke="#1D1D1D" stroke-width="0.2835"/>
<path d="M33.8647 19.918L34.8384 21.1675L31.7555 23.5714L32.9023 25.0422L34.0509 24.1468C36.1268 22.5288 37.6281 23.5611 38.3345 24.4683C38.9164 25.2141 39.4442 26.9087 37.4285 28.4797L34.8489 30.4905L29.3508 23.4371L33.8647 19.918ZM35.4155 28.2667L36.303 27.5753C37.099 26.9549 37.2947 26.251 36.7371 25.5357C36.1795 24.82 35.4486 24.8388 34.6526 25.4596L33.7664 26.1508L35.4155 28.2667Z" fill="#1D1D1D"/>
<path d="M36.3528 18.3025L37.8956 17.3486L42.5979 24.9561L41.0549 25.9096L36.3528 18.3025Z" fill="#1D1D1D"/>
<path d="M46.3541 13.0664L50.1382 21.1739L48.4939 21.9417L45.3799 15.2704L43.2372 16.2707L43.9944 17.8919C44.0181 17.9426 44.0418 17.9932 44.0653 18.0437C45.3071 20.7028 46.3959 23.0338 44.0318 24.1376C43.7655 24.262 43.4424 24.3559 43.2011 24.4125L42.67 23.0942C42.7851 23.0689 43.0096 23.006 43.1374 22.947C44.2763 22.4155 43.395 20.5736 42.5539 18.8158C42.4537 18.6066 42.3543 18.3986 42.2587 18.1941L41.0264 15.5534L46.3541 13.0664Z" fill="#1D1D1D"/>
<path d="M50.8772 11.5304L52.0782 15.9732L52.6088 18.0808L52.6454 18.0711L52.9227 16.6455L54.5178 10.5461L56.6151 9.97852L58.9514 18.6171L57.1992 19.0911L55.9947 14.6359L55.4677 12.5404L55.4303 12.5504L55.1917 14.0188L53.558 20.0754L51.4611 20.6426L49.1243 12.0043L50.8772 11.5304Z" fill="#1D1D1D"/>
<path d="M61.4262 9.3018L61.8085 13.8889L61.9511 16.0578L61.9886 16.055L62.5186 14.7024L65.1853 8.98852L67.3516 8.80816L68.095 17.7274L66.2851 17.8782L65.9025 13.2784L65.761 11.1219L65.7222 11.1255L65.2236 12.5271L62.5269 18.1917L60.3605 18.3722L59.6171 9.45326L61.4262 9.3018ZM65.5695 6.82666C65.1548 8.15688 64.0883 8.45134 63.3368 8.51378C62.585 8.57654 61.4852 8.46287 60.8556 7.21953L61.7438 6.64488C62.1287 7.40833 62.9344 7.37994 63.2394 7.35437C63.5462 7.32903 64.3449 7.2238 64.598 6.40723L65.5695 6.82666Z" fill="#1D1D1D"/>
<path d="M76.5307 9.45309C78.2529 9.68591 79.3874 10.5486 79.1856 12.0433C79.0053 13.373 78.1248 13.7828 77.466 13.887L77.4625 13.9124C78.578 14.2439 79.1889 15.1648 79.0384 16.2794C78.8895 17.3812 78.0552 18.6873 75.2177 18.3039L72.4189 17.9256L73.6173 9.05957L76.5307 9.45309ZM74.406 16.7752L75.4065 16.9104C76.534 17.063 77.0721 16.5167 77.1574 15.8831C77.2428 15.2501 76.9833 14.5959 75.7421 14.4281L74.7408 14.2928L74.406 16.7752ZM74.9294 12.8998L75.8031 13.0175C76.9688 13.1753 77.2802 12.4952 77.3329 12.1023C77.3674 11.8491 77.4187 10.9919 76.0251 10.8034L75.2275 10.6956L74.9294 12.8998Z" fill="#1D1D1D"/>
<path fill-rule="evenodd" clip-rule="evenodd" d="M89.2361 17.2169C88.2679 20.3157 85.7965 20.936 83.6867 20.2764C81.5758 19.6165 79.8984 17.6995 80.8671 14.6007C81.8358 11.502 84.3066 10.8814 86.4174 11.5412C88.5274 12.201 90.2053 14.1184 89.2361 17.2169ZM82.6972 15.1727C81.7935 18.0643 83.421 18.8545 84.0681 19.0565C84.715 19.2586 86.5025 19.5363 87.4069 16.6449C88.3103 13.7537 86.6827 12.9635 86.036 12.7612C85.3891 12.5591 83.6012 12.2815 82.6972 15.1727Z" fill="#1D1D1D"/>
<path fill-rule="evenodd" clip-rule="evenodd" d="M95.5753 15.3814C97.1244 16.1712 97.9093 17.3612 97.2242 18.7047C96.6142 19.9006 95.6473 19.9956 94.9908 19.8759L94.9789 19.8987C95.9228 20.5809 96.1939 21.6522 95.6833 22.6542C95.1779 23.6451 93.9582 24.6012 91.4078 23.3004L88.8907 22.0172L92.9564 14.0459L95.5753 15.3814ZM91.1472 21.589L92.0464 22.0477C93.0596 22.5647 93.7488 22.2273 94.0388 21.6581C94.33 21.0885 94.3009 20.3852 93.1842 19.816L92.285 19.3573L91.1472 21.589ZM92.9236 18.1045L93.71 18.5054C94.7571 19.0397 95.2759 18.5005 95.4562 18.1476C95.5725 17.9197 95.9041 17.1279 94.6516 16.4888L93.9346 16.1231L92.9236 18.1045Z" fill="#1D1D1D"/>
<path d="M102.25 19.3184L100.015 22.4151L100.047 22.4378L104.902 21.2323L106.652 22.4956L101.258 23.5961L101.605 29.8806L99.7413 28.5351L99.6498 22.9867L99.6185 22.9645L97.0176 26.5688L95.5461 25.5073L100.78 18.2568L102.25 19.3184Z" fill="#1D1D1D"/>
<path d="M108.774 29.4372L108.865 29.3885L108.846 29.2832L108.924 29.3575L109.015 29.3084L108.969 29.4028L109.044 29.4745L108.941 29.4606L108.896 29.5532L108.878 29.4514L108.774 29.4372Z" fill="#1D1D1D" stroke="#1D1D1D"/>
<path d="M25.9374 31.0739L26.028 31.0252L26.0091 30.9199L26.0866 30.9944L26.178 30.9453L26.1324 31.0396L26.2072 31.1114L26.1041 31.0973L26.0594 31.1899L26.041 31.0881L25.9374 31.0739Z" fill="#1D1D1D" stroke="#1D1D1D"/>
</g>
</g>
<defs>
<clipPath id="clip0_2275_1876">
<rect width="136" height="136" fill="white"/>
</clipPath>
</defs>
</svg>
