<svg width="381" height="44" viewBox="0 0 381 44" fill="none" xmlns="http://www.w3.org/2000/svg">
<path d="M21.4256 8.5625L20.5467 13.6016H10.8201L6.75763 37H0.722473L5.62482 8.5625H21.4256ZM40.5178 20.5547L39.8342 25.0664C39.5868 26.694 39.1701 28.2565 38.5842 29.7539C38.0113 31.2513 37.243 32.5794 36.2795 33.7383C35.316 34.8971 34.1441 35.8086 32.7639 36.4727C31.3837 37.1237 29.7951 37.4297 27.9983 37.3906C26.2795 37.3516 24.8407 36.9805 23.6818 36.2773C22.523 35.5742 21.618 34.6432 20.967 33.4844C20.316 32.3255 19.8863 31.0234 19.6779 29.5781C19.4826 28.1328 19.4761 26.6549 19.6584 25.1445L20.342 20.6133C20.5894 18.9987 20.9996 17.4427 21.5725 15.9453C22.1584 14.4479 22.9397 13.1068 23.9162 11.9219C24.8928 10.724 26.0712 9.78646 27.4514 9.10938C28.8316 8.43229 30.4332 8.11979 32.2561 8.17188C33.9748 8.21094 35.4071 8.59505 36.5529 9.32422C37.7118 10.0404 38.6102 10.9909 39.2483 12.1758C39.8993 13.3477 40.3225 14.6628 40.5178 16.1211C40.7131 17.5794 40.7131 19.0573 40.5178 20.5547ZM33.7795 25.1445L34.4436 20.5352C34.5217 19.9232 34.5933 19.2135 34.6584 18.4062C34.7235 17.599 34.6975 16.8112 34.5803 16.043C34.4761 15.2617 34.2092 14.6107 33.7795 14.0898C33.3628 13.556 32.7118 13.2695 31.8264 13.2305C30.8108 13.1654 29.9774 13.3672 29.3264 13.8359C28.6753 14.2917 28.1545 14.9036 27.7639 15.6719C27.3863 16.4271 27.0933 17.2409 26.885 18.1133C26.6897 18.9727 26.5399 19.793 26.4358 20.5742L25.7717 25.1641C25.6936 25.776 25.622 26.4857 25.5568 27.293C25.5048 28.0872 25.5308 28.8685 25.635 29.6367C25.7522 30.3919 26.0191 31.0234 26.4358 31.5312C26.8654 32.0391 27.5295 32.3125 28.4279 32.3516C29.4045 32.4036 30.2118 32.2083 30.8498 31.7656C31.5009 31.3099 32.0217 30.7109 32.4123 29.9688C32.8029 29.2266 33.0959 28.4323 33.2912 27.5859C33.4996 26.7266 33.6623 25.9128 33.7795 25.1445ZM53.5068 16.5898L53.9756 13.5625C54.1188 12.612 54.3858 11.7005 54.7764 10.8281C55.18 9.95573 55.6683 9.13542 56.2412 8.36719C56.8272 7.59896 57.4717 6.90234 58.1748 6.27734L60.7334 7.85938C60.2256 8.78385 59.7568 9.70182 59.3272 10.6133C58.9105 11.5247 58.611 12.4948 58.4287 13.5234L57.9014 16.5898H53.5068ZM59.5029 16.5898L59.9717 13.5625C60.1149 12.612 60.3818 11.7005 60.7725 10.8281C61.1761 9.95573 61.6644 9.13542 62.2373 8.36719C62.8233 7.59896 63.4678 6.90234 64.1709 6.27734L66.7295 7.85938C66.2217 8.78385 65.7529 9.70182 65.3233 10.6133C64.9066 11.5247 64.6071 12.4948 64.4248 13.5234L63.8975 16.5898H59.5029ZM83.3608 19.9688L82.4818 24.9688H71.1928L72.0717 19.9688H83.3608ZM75.9193 8.5625L70.9975 37H64.9623L69.8647 8.5625H75.9193ZM89.5326 8.5625L84.5912 37H78.5756L83.517 8.5625H89.5326ZM102.805 14.3828L93.4295 37H86.8279L100.324 8.5625H104.484L102.805 14.3828ZM103.293 37L101.691 13.8359L101.926 8.5625H105.89L109.582 37H103.293ZM105.305 26.3945L104.406 31.4141H92.16L93.0584 26.3945H105.305ZM123.127 27.1953L117.209 27.1758L118.088 22.1367L123.381 22.1758C124.214 22.1628 124.905 21.9609 125.451 21.5703C126.011 21.1797 126.447 20.6719 126.76 20.0469C127.085 19.4089 127.3 18.7188 127.405 17.9766C127.483 17.4297 127.509 16.8242 127.483 16.1602C127.457 15.4961 127.294 14.9232 126.994 14.4414C126.708 13.9466 126.2 13.6732 125.471 13.6211L121.682 13.6016L117.6 37H111.584L116.487 8.5625L125.705 8.58203C127.476 8.63411 128.967 9.08333 130.178 9.92969C131.389 10.776 132.281 11.8958 132.854 13.2891C133.44 14.6823 133.661 16.2318 133.518 17.9375C133.349 19.8255 132.795 21.4661 131.858 22.8594C130.92 24.2396 129.703 25.3138 128.205 26.082C126.708 26.8372 125.015 27.2083 123.127 27.1953ZM155.891 20.5547L155.208 25.0664C154.96 26.694 154.544 28.2565 153.958 29.7539C153.385 31.2513 152.616 32.5794 151.653 33.7383C150.689 34.8971 149.518 35.8086 148.137 36.4727C146.757 37.1237 145.169 37.4297 143.372 37.3906C141.653 37.3516 140.214 36.9805 139.055 36.2773C137.896 35.5742 136.991 34.6432 136.34 33.4844C135.689 32.3255 135.26 31.0234 135.051 29.5781C134.856 28.1328 134.85 26.6549 135.032 25.1445L135.715 20.6133C135.963 18.9987 136.373 17.4427 136.946 15.9453C137.532 14.4479 138.313 13.1068 139.29 11.9219C140.266 10.724 141.445 9.78646 142.825 9.10938C144.205 8.43229 145.807 8.11979 147.63 8.17188C149.348 8.21094 150.781 8.59505 151.926 9.32422C153.085 10.0404 153.984 10.9909 154.622 12.1758C155.273 13.3477 155.696 14.6628 155.891 16.1211C156.087 17.5794 156.087 19.0573 155.891 20.5547ZM149.153 25.1445L149.817 20.5352C149.895 19.9232 149.967 19.2135 150.032 18.4062C150.097 17.599 150.071 16.8112 149.954 16.043C149.85 15.2617 149.583 14.6107 149.153 14.0898C148.736 13.556 148.085 13.2695 147.2 13.2305C146.184 13.1654 145.351 13.3672 144.7 13.8359C144.049 14.2917 143.528 14.9036 143.137 15.6719C142.76 16.4271 142.467 17.2409 142.258 18.1133C142.063 18.9727 141.913 19.793 141.809 20.5742L141.145 25.1641C141.067 25.776 140.995 26.4857 140.93 27.293C140.878 28.0872 140.904 28.8685 141.008 29.6367C141.126 30.3919 141.393 31.0234 141.809 31.5312C142.239 32.0391 142.903 32.3125 143.801 32.3516C144.778 32.4036 145.585 32.2083 146.223 31.7656C146.874 31.3099 147.395 30.7109 147.786 29.9688C148.176 29.2266 148.469 28.4323 148.665 27.5859C148.873 26.7266 149.036 25.9128 149.153 25.1445ZM175.237 31.9805L174.358 37H158.304L159.183 31.9805H175.237ZM161.058 31.9805L158.968 43.9922H153.343L155.022 31.9805H161.058ZM179.437 31.9805L176.761 43.9922H171.272L173.362 31.9805H179.437ZM176.565 8.5625L175.687 13.6016H164.202L165.081 8.5625H176.565ZM180.745 8.5625L175.823 37H169.808L174.749 8.5625H180.745ZM164.534 8.5625H170.608L167.894 20.2227C167.62 21.4076 167.327 22.5404 167.015 23.6211C166.715 24.7018 166.37 25.7305 165.98 26.707C165.602 27.6836 165.172 28.6211 164.69 29.5195C164.222 30.418 163.688 31.2904 163.089 32.1367C162.49 32.9701 161.819 33.7904 161.077 34.5977C160.335 35.4049 159.508 36.2057 158.597 37H154.866L155.608 32L156.624 32.0391C157.535 31.388 158.278 30.6003 158.851 29.6758C159.437 28.7383 159.912 27.7422 160.276 26.6875C160.641 25.6198 160.934 24.5326 161.155 23.4258C161.39 22.319 161.618 21.2513 161.839 20.2227L164.534 8.5625ZM199.095 19.9688L198.216 24.9688H186.927L187.806 19.9688H199.095ZM191.654 8.5625L186.732 37H180.697L185.599 8.5625H191.654ZM205.267 8.5625L200.326 37H194.31L199.251 8.5625H205.267ZM211.586 26.6094L222.191 8.5625H228.363L223.441 37H217.387L220.531 18.9727L209.926 37H203.754L208.695 8.5625H214.75L211.586 26.6094ZM234.584 26.6094L245.19 8.5625H251.362L246.44 37H240.385L243.53 18.9727L232.924 37H226.752L231.694 8.5625H237.748L234.584 26.6094ZM245.307 1.00391L249.428 0.964844C249.363 2.27995 248.992 3.38021 248.315 4.26562C247.651 5.15104 246.785 5.8151 245.717 6.25781C244.662 6.70052 243.516 6.90885 242.28 6.88281C240.47 6.85677 238.959 6.32943 237.748 5.30078C236.537 4.27214 235.925 2.82682 235.912 0.964844L240.033 0.984375C240.007 1.7526 240.17 2.37109 240.522 2.83984C240.886 3.29557 241.479 3.52344 242.299 3.52344C243.119 3.53646 243.783 3.3151 244.291 2.85938C244.812 2.40365 245.151 1.78516 245.307 1.00391ZM279.507 8.5625L278.628 13.6016H268.901L264.839 37H258.804L263.706 8.5625H279.507ZM294.361 31.9805L293.482 37H281.431L282.31 31.9805H294.361ZM288.365 8.5625L283.443 37H277.408L282.31 8.5625H288.365ZM294.849 19.9688L294.009 24.8125H283.54L284.4 19.9688H294.849ZM298.423 8.5625L297.544 13.6016H285.474L286.353 8.5625H298.423ZM307.535 27.1953L301.617 27.1758L302.496 22.1367L307.789 22.1758C308.622 22.1628 309.312 21.9609 309.859 21.5703C310.419 21.1797 310.855 20.6719 311.168 20.0469C311.493 19.4089 311.708 18.7188 311.812 17.9766C311.89 17.4297 311.916 16.8242 311.89 16.1602C311.864 15.4961 311.702 14.9232 311.402 14.4414C311.116 13.9466 310.608 13.6732 309.879 13.6211L306.09 13.6016L302.008 37H295.992L300.894 8.5625L310.113 8.58203C311.884 8.63411 313.375 9.08333 314.586 9.92969C315.797 10.776 316.689 11.8958 317.262 13.2891C317.847 14.6823 318.069 16.2318 317.926 17.9375C317.756 19.8255 317.203 21.4661 316.265 22.8594C315.328 24.2396 314.11 25.3138 312.613 26.082C311.116 26.8372 309.423 27.2083 307.535 27.1953ZM340.299 20.5547L339.615 25.0664C339.368 26.694 338.951 28.2565 338.365 29.7539C337.793 31.2513 337.024 32.5794 336.061 33.7383C335.097 34.8971 333.925 35.8086 332.545 36.4727C331.165 37.1237 329.576 37.4297 327.78 37.3906C326.061 37.3516 324.622 36.9805 323.463 36.2773C322.304 35.5742 321.399 34.6432 320.748 33.4844C320.097 32.3255 319.668 31.0234 319.459 29.5781C319.264 28.1328 319.257 26.6549 319.44 25.1445L320.123 20.6133C320.371 18.9987 320.781 17.4427 321.354 15.9453C321.94 14.4479 322.721 13.1068 323.697 11.9219C324.674 10.724 325.852 9.78646 327.233 9.10938C328.613 8.43229 330.214 8.11979 332.037 8.17188C333.756 8.21094 335.188 8.59505 336.334 9.32422C337.493 10.0404 338.391 10.9909 339.03 12.1758C339.681 13.3477 340.104 14.6628 340.299 16.1211C340.494 17.5794 340.494 19.0573 340.299 20.5547ZM333.561 25.1445L334.225 20.5352C334.303 19.9232 334.375 19.2135 334.44 18.4062C334.505 17.599 334.479 16.8112 334.362 16.043C334.257 15.2617 333.99 14.6107 333.561 14.0898C333.144 13.556 332.493 13.2695 331.608 13.2305C330.592 13.1654 329.759 13.3672 329.108 13.8359C328.457 14.2917 327.936 14.9036 327.545 15.6719C327.168 16.4271 326.875 17.2409 326.666 18.1133C326.471 18.9727 326.321 19.793 326.217 20.5742L325.553 25.1641C325.475 25.776 325.403 26.4857 325.338 27.293C325.286 28.0872 325.312 28.8685 325.416 29.6367C325.533 30.3919 325.8 31.0234 326.217 31.5312C326.647 32.0391 327.311 32.3125 328.209 32.3516C329.186 32.4036 329.993 32.2083 330.631 31.7656C331.282 31.3099 331.803 30.7109 332.194 29.9688C332.584 29.2266 332.877 28.4323 333.072 27.5859C333.281 26.7266 333.444 25.9128 333.561 25.1445ZM348.356 26.6094L358.962 8.5625H365.133L360.212 37H354.157L357.301 18.9727L346.696 37H340.524L345.465 8.5625H351.52L348.356 26.6094ZM359.079 1.00391L363.2 0.964844C363.135 2.27995 362.764 3.38021 362.087 4.26562C361.422 5.15104 360.557 5.8151 359.489 6.25781C358.434 6.70052 357.288 6.90885 356.051 6.88281C354.241 6.85677 352.731 6.32943 351.52 5.30078C350.309 4.27214 349.697 2.82682 349.684 0.964844L353.805 0.984375C353.779 1.7526 353.942 2.37109 354.294 2.83984C354.658 3.29557 355.251 3.52344 356.071 3.52344C356.891 3.53646 357.555 3.3151 358.063 2.85938C358.584 2.40365 358.922 1.78516 359.079 1.00391ZM374.304 7L373.815 10.0859C373.672 11.0234 373.405 11.9284 373.015 12.8008C372.637 13.6732 372.168 14.5 371.608 15.2812C371.049 16.0495 370.417 16.7526 369.714 17.3906L367.097 15.7891C367.604 14.8646 368.067 13.9466 368.483 13.0352C368.9 12.1237 369.206 11.1471 369.401 10.1055L369.948 7H374.304ZM380.476 7L379.987 10.0859C379.844 11.0234 379.577 11.9284 379.187 12.8008C378.809 13.6732 378.34 14.5 377.78 15.2812C377.22 16.0495 376.589 16.7526 375.886 17.3906L373.269 15.7891C373.776 14.8646 374.239 13.9466 374.655 13.0352C375.072 12.1237 375.378 11.1471 375.573 10.1055L376.12 7H380.476Z" fill="#1D1D1D"/>
</svg>
