<svg width="383" height="144" viewBox="0 0 383 144" fill="none" xmlns="http://www.w3.org/2000/svg">
<path d="M49.6703 4.48142C49.6703 4.95943 50.2089 5.37769 50.8672 5.37769C51.5254 5.37769 52.064 4.95943 52.064 4.48142C52.064 4.00341 51.5254 3.58515 50.8672 3.58515C50.2089 3.58515 49.6703 4.00341 49.6703 4.48142Z" fill="black"/>
<path d="M53.2609 4.48142C53.2609 4.95943 53.7995 5.37769 54.4578 5.37769C55.1161 5.37769 55.6547 4.95943 55.6547 4.48142C55.6547 4.00341 55.1161 3.58515 54.4578 3.58515C53.7995 3.58515 53.2609 4.00341 53.2609 4.48142Z" fill="black"/>
<path d="M7.77966 7.17018C7.77966 7.52869 8.61748 9.38097 9.57498 11.3528C11.6695 15.5353 11.7892 16.7303 10.1734 17.1486C9.51513 17.3279 8.97654 17.8656 8.97654 18.2839C8.97654 19.3594 11.6097 19.3594 12.4475 18.3436C13.2254 17.4474 17.3547 7.94695 17.3547 7.11043C17.3547 6.27392 14.9609 6.45317 14.9011 7.28969C14.9011 7.70794 14.4223 9.14197 13.8239 10.4565L12.7467 12.8465L11.3703 9.67973C10.4128 7.52869 9.69466 6.57267 8.91669 6.57267C8.25841 6.57267 7.77966 6.87143 7.77966 7.17018Z" fill="black"/>
<path d="M19.15 12.8467C19.15 18.7023 19.2099 19.1206 20.3469 19.1206C21.3642 19.1206 21.5438 18.7023 21.5438 16.4318C21.5438 14.938 21.7831 13.743 22.0225 13.743C22.2619 13.743 23.0997 14.938 23.8178 16.4318C24.7155 18.2841 25.4935 19.1206 26.3313 19.1206C27.8872 19.1206 27.8274 18.1646 26.0321 15.0575C24.6556 12.6077 24.5958 12.309 25.4336 10.397C25.9124 9.26168 26.6903 8.36542 27.1691 8.36542C27.7077 8.36542 28.1266 7.94716 28.1266 7.4094C28.1266 6.75214 27.6478 6.57289 26.5108 6.69239C25.2541 6.81189 24.5958 7.4094 23.8178 9.08243C22.2619 12.3687 21.5438 12.4285 21.5438 9.32144C21.5438 6.99115 21.3642 6.57289 20.3469 6.57289C19.2099 6.57289 19.15 6.99115 19.15 12.8467Z" fill="black"/>
<path d="M29.3234 12.8467C29.3234 18.6426 29.3833 19.1206 30.4605 19.1206C31.418 19.1206 31.6573 18.6426 31.8369 16.8501C32.0164 14.699 32.1361 14.6393 34.6495 14.2808C37.4622 13.9223 38.8984 12.6077 38.8984 10.3372C38.8984 7.82766 36.9236 6.57289 32.9141 6.57289H29.3234V12.8467ZM35.9062 10.397C35.9062 11.4127 35.4873 11.9505 34.4101 12.1895C32.4353 12.6675 31.7172 12.2492 31.7172 10.397C31.7172 9.14218 32.0164 8.96293 33.8117 8.96293C35.607 8.96293 35.9062 9.14218 35.9062 10.397Z" fill="black"/>
<path d="M40.7536 12.07C39.6166 15.1173 38.5992 17.9854 38.4197 18.3439C37.8811 19.8974 40.6938 19.1206 41.2922 17.5671C41.8308 16.2526 42.1899 16.0733 44.1049 16.2526C45.7805 16.3721 46.5585 16.7903 46.9774 17.7464C47.3364 18.5829 48.1144 19.1206 48.8924 19.1206C50.0294 19.1206 50.1491 18.9414 49.7302 17.7464C45.5411 6.81192 45.4214 6.57292 44.045 6.57292C42.9678 6.57292 42.4292 7.40943 40.7536 12.07ZM45.182 12.6675C45.5411 14.1613 45.4813 14.3405 44.045 14.3405C42.2497 14.3405 42.3095 14.4601 43.1474 12.0103C43.8655 9.91897 44.5836 10.158 45.182 12.6675Z" fill="black"/>
<path d="M51.4656 12.8467C51.4656 18.7023 51.5255 19.1206 52.6625 19.1206C53.7995 19.1206 53.8594 18.7023 53.8594 12.8467C53.8594 6.99115 53.7995 6.57289 52.6625 6.57289C51.5255 6.57289 51.4656 6.99115 51.4656 12.8467Z" fill="black"/>
<path d="M56.2531 12.8467C56.2531 18.7023 56.313 19.1206 57.45 19.1206C58.4673 19.1206 58.6469 18.7023 58.6469 16.4318V13.743H61.0406H63.4344V16.4318C63.4344 18.7023 63.6139 19.1206 64.6312 19.1206C65.7683 19.1206 65.8281 18.7023 65.8281 12.8467C65.8281 6.99115 65.7683 6.57289 64.6312 6.57289C63.6139 6.57289 63.4344 6.99115 63.4344 8.96293V11.353H61.0406H58.6469V8.96293C58.6469 6.99115 58.4673 6.57289 57.45 6.57289C56.313 6.57289 56.2531 6.99115 56.2531 12.8467Z" fill="black"/>
<path d="M69.8376 12.4284C68.5809 15.7147 67.6234 18.523 67.6234 18.7022C67.6234 19.7777 69.8975 18.9412 70.4959 17.6267C71.0345 16.4317 71.6329 16.1329 73.3086 16.1329C74.9842 16.1329 75.5826 16.4317 76.1212 17.6267C76.5401 18.5827 77.2583 19.1205 78.1559 19.1205C79.4725 19.1205 79.4725 19.0607 77.1386 13.0856C75.8819 9.79932 74.8047 6.99102 74.8047 6.81177C74.8047 6.69226 74.1464 6.57276 73.4283 6.57276C72.1715 6.57276 71.7526 7.28978 69.8376 12.4284ZM74.4456 12.9661C74.8047 14.1611 74.685 14.3404 73.3684 14.3404C71.5731 14.3404 71.6329 14.4599 72.4708 11.9504C73.1889 9.91882 73.6078 10.1578 74.4456 12.9661Z" fill="black"/>
<path d="M351.283 25.215C351.283 30.6524 351.522 34.0582 351.821 33.7594C353.078 32.4449 363.252 17.2681 363.252 16.7304C363.252 16.3719 360.798 16.1328 357.267 16.1328H351.283V25.215Z" fill="black"/>
<path d="M6.58282 48.6973V74.689H12.8664H19.15L19.2697 64.9495L19.4492 55.2699L26.451 55.0906L33.5125 54.9114L33.6322 64.6508L33.8117 74.3902H40.0953H46.3789V48.6973V23.0043L39.9756 22.8251L33.5125 22.6458V32.5645V42.4832L26.5108 42.3039L19.4492 42.1247L19.2697 32.3852L19.15 22.7056H12.8664H6.58282V48.6973Z" fill="black"/>
<path d="M66.247 23.1238C65.7683 23.9603 50.2687 73.3744 50.2687 74.0317C50.2687 74.9877 62.5367 74.928 63.3147 73.9122C63.6139 73.5537 64.5115 71.2234 65.2297 68.8334L66.5462 64.5313H72.7101H78.8741L80.5497 69.4309L82.2851 74.3902L88.7483 74.5695C93.9547 74.689 95.1516 74.5695 95.1516 73.9122C95.1516 73.0159 79.7717 24.1396 79.2331 23.2433C78.8741 22.586 66.6061 22.5263 66.247 23.1238ZM74.2062 45.7695C75.822 51.386 75.822 51.386 72.7101 51.386C71.2141 51.386 70.0172 51.2068 70.0172 51.0275C70.0172 50.1313 72.6503 41.2284 72.8298 41.4674C72.9495 41.5869 73.548 43.4989 74.2062 45.7695Z" fill="black"/>
<path d="M99.9391 48.6375V74.689H106.223H112.506V66.6226V58.5562H117.533C123.877 58.5562 127.886 57.3014 131.417 54.1944C135.606 50.5495 137.282 46.7255 137.282 40.9296C137.341 36.8666 137.102 35.6118 135.666 32.7437C133.751 28.9197 130.878 26.1114 126.929 24.2591C124.475 23.1238 122.859 23.0043 112.087 22.8251L99.9391 22.6458V48.6375ZM121.782 36.7471C125.313 38.4798 126.091 42.4832 123.458 45.411C121.902 47.084 121.423 47.2035 117.294 47.3827L112.805 47.5022L112.626 42.4832C112.506 39.7346 112.566 37.1056 112.746 36.6276C113.165 35.552 119.328 35.6118 121.782 36.7471Z" fill="black"/>
<path d="M154.696 23.2434C151.405 24.0799 147.994 26.2309 145.839 28.7405C142.249 32.8633 141.83 35.0741 141.83 48.6973C141.83 63.2168 142.249 65.0691 146.916 69.7297C151.165 73.9123 154.457 74.8683 163.912 74.6293C170.375 74.3903 171.093 74.2708 174.145 72.538C178.095 70.3272 180.968 66.7422 182.224 62.6193C183.481 58.3173 183.481 39.1372 182.224 34.8351C180.908 30.4135 177.796 26.709 173.726 24.6774C170.615 23.1836 169.597 23.0044 163.373 22.8849C159.603 22.8251 155.713 23.0044 154.696 23.2434ZM169.178 36.6874L170.854 38.1214V48.5778C170.854 58.855 170.854 59.094 169.418 60.5878C168.041 62.0218 167.622 62.1413 162.356 62.1413C157.21 62.1413 156.611 62.0218 155.295 60.6475C153.798 59.2135 153.798 59.0343 153.798 48.8168C153.798 38.5994 153.798 38.3604 155.295 36.8069C156.671 35.3729 157.09 35.2534 162.117 35.2534C166.964 35.2534 167.682 35.3729 169.178 36.6874Z" fill="black"/>
<path d="M203.469 24.02C203.17 24.7967 200.417 33.1619 197.425 42.7221C194.432 52.2225 191.739 60.5279 191.38 61.0656C191.021 61.8424 190.124 62.1411 188.209 62.1411H185.516V73.1951V84.249H191.799H198.083V79.4689V74.6889H209.752H221.422V79.4689V84.249H227.705H233.989V73.2548V62.2009L231.535 62.0216L229.082 61.8424L222.918 42.4233L216.814 23.0042L210.411 22.825C204.307 22.6457 204.067 22.7055 203.469 24.02ZM215.078 61.6034C214.899 61.9021 212.625 62.1411 209.992 62.1411C206.401 62.1411 205.264 61.9619 205.264 61.3046C205.264 60.8864 206.401 57.0623 207.778 52.82L210.231 45.1121L212.804 53.1187C214.241 57.5403 215.258 61.3644 215.078 61.6034Z" fill="black"/>
<path d="M238.777 48.6973V74.689H245.06H251.344V64.83V54.9114L258.405 55.0906L265.407 55.2699L265.587 64.9495L265.706 74.689H271.99H278.273V48.6973V22.7056H271.99H265.706L265.587 32.3852L265.407 42.1247L258.405 42.3039L251.344 42.4832V32.5645V22.7056H245.06H238.777V48.6973Z" fill="black"/>
<path d="M287.669 23.0641C287.43 23.3031 287.25 35.0143 287.25 49.1156V74.7488L293.713 74.5695L300.116 74.3903L307.597 60.9463L315.077 47.5023L315.257 61.0658L315.377 74.689H321.66H327.944V48.6973V22.7056H321.84H315.676L314.12 25.5737C313.222 27.1272 309.871 33.3413 306.639 39.4359L300.715 50.4899L300.416 36.7471L300.116 23.0044L294.072 22.8251C290.781 22.7654 287.908 22.8251 287.669 23.0641Z" fill="black"/>
<path d="M336.142 23.0641C335.903 23.3031 335.723 35.0143 335.723 49.1156V74.7488L342.187 74.5695L348.59 74.3903L356.07 60.9463L363.551 47.5621L363.73 61.1255L363.85 74.7488L370.313 74.5695L376.716 74.3903V48.6973V23.0044L370.433 22.8251L364.149 22.6459L359.122 32.0865C356.369 37.2849 353.018 43.5587 351.642 46.0085L349.188 50.4899L348.889 36.7471L348.59 23.0044L342.546 22.8251C339.254 22.7654 336.382 22.8251 336.142 23.0641Z" fill="black"/>
<path d="M4 85.3676V88.1927V90.8591L19.928 90.9413L33.8117 91.1205V97.0956V103.071L24.6556 103.25L17 103.429V122.012V140.594L26.6305 140.535L37.4023 140.415L37.5819 115.618L37.7016 90.8218H55.3555H73.0094V97.0956V103.369H61.3398H49.6703V107.253V111.137L60.6217 111.257L71.5133 111.436V117.411V123.386L60.6217 123.565L49.6703 123.685V126.672V129.66H61.3398H72.9495L73.1291 135.157L73.3086 140.714L76.3008 140.654L79.293 140.594L79.5922 115.857L79.8914 91.1205H91.8602C103.769 91.1205 103.829 91.1205 107.24 92.7935C113.524 95.9006 116.935 101.338 116.935 108.448C116.935 113.467 115.379 117.471 112.028 120.877C108.257 124.82 105.923 125.657 98.6225 125.955L92.1594 126.194V133.305C92.1594 137.189 92.3389 140.415 92.6381 140.415C105.505 140.714 131.058 140.594 131.058 140.236C131.058 139.997 130.818 139.818 130.579 139.818C129.382 139.818 125.433 135.217 124.116 132.408C122.74 129.481 122.68 128.823 122.74 116.515C122.74 108.269 123.039 103.011 123.458 101.756C124.774 98.1711 127.766 94.7653 131.118 92.913C134.05 91.2998 134.948 91.1205 141.291 90.9413C150.806 90.6425 154.038 91.5388 158.347 95.8408C163.014 100.561 163.493 102.712 163.254 117.889C163.074 129.66 163.014 130.018 161.458 133.006C159.962 135.874 156.192 139.818 154.995 139.818C154.636 139.818 154.397 139.997 154.397 140.236C154.397 140.535 157.988 140.714 162.296 140.714H170.255L170.555 115.917L170.854 91.1205L176.958 90.9413L183.122 90.762L183.242 105.162L183.421 119.622L191.021 105.341L198.621 91.1205L204.965 90.9413L211.248 90.762V115.618V140.415L221.123 140.475C226.568 140.535 231.476 140.594 232.074 140.654C233.032 140.714 233.091 139.041 233.091 112.93V85.1454L215.378 84.9661L197.604 84.8466L192.039 93.0325L186.413 101.218L186.114 93.2118L185.815 85.1454L96.2886 84.9661C47.097 84.9064 4 85.3676 4 85.3676Z" fill="black"/>
<path d="M256.43 92.3751C255.293 92.9726 254.575 93.0323 254.456 92.6738C254.336 92.3153 253.558 92.0165 252.78 92.0165H251.344V101.338V110.599L253.019 110.42C254.515 110.241 254.635 110.002 254.815 107.373C254.994 104.206 254.934 104.325 256.969 105.222C260.44 106.835 263.911 103.608 263.911 98.7087C263.911 95.4224 262.415 92.8531 260.141 92.0165C257.986 91.2995 258.585 91.2398 256.43 92.3751ZM259.363 95.3626C260.44 96.4381 260.62 99.9037 259.722 101.636C259.363 102.294 258.465 102.772 257.627 102.772C255.892 102.772 254.934 101.218 254.934 98.3502C254.934 96.2589 256.191 94.4066 257.627 94.4066C258.046 94.4066 258.884 94.8248 259.363 95.3626Z" fill="black"/>
<path d="M270.673 91.8374C268.758 92.1959 266.365 94.8847 265.946 97.0955C264.689 103.728 272.11 108.329 276.837 103.907C281.984 99.0672 277.615 90.4033 270.673 91.8374ZM273.725 94.7652C274.204 94.9444 274.922 95.9602 275.281 97.0357C276.119 99.7245 275.221 101.995 273.127 102.533C269.895 103.369 267.921 98.171 270.494 95.6017C271.751 94.3469 272.229 94.2274 273.725 94.7652Z" fill="black"/>
<path d="M302.39 91.8373C301.134 92.0763 299.219 94.0481 299.219 95.0639C299.219 95.9602 301.912 96.0797 302.869 95.2432C304.126 94.1079 306.041 94.3469 306.28 95.7212C306.4 96.4382 305.622 96.9162 303.168 97.6332C298.441 99.0075 297.124 102.115 300.176 104.505C302.091 105.998 303.827 106.118 305.682 104.803C306.4 104.325 306.998 104.206 306.998 104.505C306.998 104.863 307.717 105.162 308.674 105.162H310.29L310.11 99.6647C309.931 95.4822 309.632 93.8689 308.913 93.0921C307.836 92.0166 304.545 91.3593 302.39 91.8373ZM306.4 100.68C306.4 102.533 304.365 103.788 303.049 102.712C301.792 101.696 302.031 100.441 303.587 99.7842C305.742 98.888 306.4 99.127 306.4 100.68Z" fill="black"/>
<path d="M331.534 92.4352C326.268 95.124 327.405 104.445 333.09 105.521C336.681 106.178 340.571 103.609 339.673 101.219C339.194 99.9638 337.339 100.203 336.442 101.577C334.886 104.087 331.534 102.055 331.534 98.5895C331.534 95.4825 335.185 92.8534 336.083 95.3032C336.561 96.4385 339.913 96.4983 339.913 95.4227C339.913 94.168 337.339 92.0767 335.424 91.7182C334.287 91.4792 332.851 91.7779 331.534 92.4352Z" fill="black"/>
<path d="M373.605 91.8377C372.827 91.9572 371.69 92.7937 370.971 93.69L369.715 95.3033L371.151 95.6618C371.929 95.841 372.946 95.6618 373.545 95.1838C374.801 94.1083 377.255 94.407 377.494 95.6618C377.614 96.3788 376.896 96.8568 374.801 97.3348C371.091 98.2908 369.834 99.4859 369.834 101.936C369.834 104.505 371.989 106.118 374.502 105.461C375.4 105.222 377.315 105.043 378.751 105.102L381.324 105.162L381.085 99.4859C380.906 95.5423 380.606 93.5107 380.008 92.973C378.991 92.017 375.639 91.4195 373.605 91.8377ZM377.614 100.263C377.614 101.995 375.4 103.728 374.143 102.951C372.707 102.055 372.886 100.86 374.622 99.9639C376.716 98.8883 377.614 99.0078 377.614 100.263Z" fill="black"/>
<path d="M241.17 98.5895V105.162H242.666C244.163 105.162 244.163 105.102 244.163 100.083V95.0044H246.856C249.309 95.0044 249.548 94.8849 249.548 93.5107C249.548 92.0766 249.429 92.0169 245.359 92.0169H241.17V98.5895Z" fill="black"/>
<path d="M281.864 98.5895C281.864 104.744 281.924 105.162 283.061 105.162C284.138 105.162 284.258 104.744 284.258 101.876C284.258 100.083 284.497 98.5895 284.737 98.5895C285.036 98.5895 285.694 100.083 286.293 101.876C287.19 104.804 287.489 105.162 288.985 105.162C290.422 105.162 290.721 104.804 291.678 101.876C293.115 97.3347 293.833 97.2152 293.833 101.517C293.833 104.744 293.953 105.162 295.03 105.162C296.167 105.162 296.227 104.744 296.227 98.5895V92.0169H294.192C292.157 92.0169 292.097 92.0766 290.781 96.1995C290.003 98.47 289.225 100.382 289.045 100.382C288.866 100.382 288.088 98.47 287.31 96.1995C285.993 92.0766 285.933 92.0169 283.899 92.0169H281.864V98.5895Z" fill="black"/>
<path d="M315.197 92.435C314.958 92.6143 314.778 93.9288 314.778 95.2433C314.778 98.6491 313.701 102.174 312.684 102.174C312.025 102.174 311.786 103.011 311.786 105.461C311.786 108.329 311.965 108.747 312.923 108.747C313.761 108.747 314.18 108.269 314.299 107.074C314.479 105.461 314.479 105.461 319.266 105.461C324.054 105.461 324.054 105.461 324.233 107.074C324.353 108.269 324.772 108.747 325.61 108.747C326.567 108.747 326.747 108.329 326.747 105.461C326.747 103.668 326.508 102.174 326.148 102.174C325.789 102.174 325.55 100.083 325.55 97.0956V92.0168H320.583C317.83 92.0168 315.377 92.196 315.197 92.435ZM321.959 98.5894V102.174H319.326H316.633L317.232 100.262C317.531 99.1869 317.77 97.5736 317.77 96.6774C317.77 95.1836 317.95 95.0043 319.865 95.0043H321.959V98.5894Z" fill="black"/>
<path d="M342.905 98.5297V105.162H347.872C353.677 105.162 355.053 104.445 355.053 101.637C355.053 98.948 353.677 97.8127 349.847 97.514L346.555 97.275L346.376 94.7654C346.196 92.6144 346.017 92.3156 344.58 92.1364L342.905 91.9571V98.5297ZM351.283 100.681C352.3 101.936 351.462 102.712 348.71 103.19C346.555 103.489 346.495 103.489 346.495 101.637C346.495 99.904 346.675 99.7845 348.53 99.7845C349.607 99.7845 350.864 100.203 351.283 100.681Z" fill="black"/>
<path d="M357.866 98.5895V105.162H359.661C361.397 105.162 361.456 105.043 361.456 102.473C361.456 100.98 361.696 99.7845 361.935 99.7845C362.174 99.7845 363.012 100.98 363.73 102.473C364.867 104.804 365.286 105.162 366.842 105.162H368.638L367.501 102.892C366.842 101.697 365.945 100.143 365.466 99.4858C364.688 98.47 364.688 98.1115 365.526 96.3787C366.064 95.3032 366.842 94.4069 367.261 94.4069C367.68 94.4069 368.039 93.8692 368.039 93.1522C368.039 92.1961 367.74 91.9571 366.423 92.1364C365.227 92.2559 364.449 92.9131 363.73 94.3472C361.995 97.8127 361.456 97.9322 361.456 94.8252C361.456 92.0766 361.397 92.0169 359.661 92.0169H357.866V98.5895Z" fill="black"/>
<path d="M135 104.338L134 105.836L134.05 116.515V126.792L135 129.299C137 130.797 137.76 130.257 143.027 130.257C147.994 130.257 148.683 130.674 150 129.299C151.496 127.865 151 127.303 151.405 116.515C151.405 105.819 151.405 105.7 149.909 104.266C148.592 102.891 147.994 102.772 143.027 102.772C137.76 102.772 136.676 102.665 135 104.338Z" fill="black"/>
<path d="M92.1594 109.643V115.32H96.8272C102.153 115.32 103.709 114.603 104.727 111.496C105.265 109.882 105.205 108.986 104.487 107.373C103.35 104.505 102.034 103.967 96.7075 103.967H92.1594V109.643Z" fill="black"/>
<path d="M191.38 126.971C187.49 133.962 184.319 139.937 184.319 140.176C184.319 140.475 187.49 140.654 191.32 140.594L198.382 140.475L198.562 133.842C198.621 130.257 198.621 124.342 198.562 120.757L198.382 114.244L191.38 126.971Z" fill="black"/>
<path d="M312.983 117.411C312.983 118.606 313.282 118.905 314.479 118.905C315.676 118.905 315.975 118.606 315.975 117.411C315.975 116.216 315.676 115.917 314.479 115.917C313.282 115.917 312.983 116.216 312.983 117.411Z" fill="black"/>
<path d="M362.653 117.411C362.653 118.606 362.952 118.905 364.149 118.905C365.346 118.905 365.645 118.606 365.645 117.411C365.645 116.216 365.346 115.917 364.149 115.917C362.952 115.917 362.653 116.216 362.653 117.411Z" fill="black"/>
<path d="M242.307 122.43C240.871 123.924 240.572 124.641 240.572 127.27C240.572 130.974 241.23 132.349 243.564 133.544C249.249 136.471 255.054 131.631 253.199 125.417C252.241 122.31 250.027 120.697 246.736 120.697C244.581 120.697 243.744 121.056 242.307 122.43ZM249.07 124.7C251.224 126.672 249.728 131.452 246.915 131.452C245 131.452 244.043 130.138 244.043 127.568C244.043 123.924 246.616 122.49 249.07 124.7Z" fill="black"/>
<path d="M256.73 130.018V139.28L258.405 139.101C259.842 138.921 260.021 138.623 260.32 136.113C260.56 133.783 260.799 133.364 261.517 133.842C262.834 134.679 265.287 134.559 266.724 133.544C269.716 131.452 269.955 124.88 267.202 122.131C265.587 120.518 262.295 120.159 260.979 121.414C260.32 122.012 260.141 122.012 259.901 121.414C259.722 121.056 258.944 120.697 258.166 120.697H256.73V130.018ZM264.509 124.282C266.903 126.672 265.587 131.751 262.714 131.333C259.064 130.855 259.183 123.506 262.894 123.147C263.133 123.087 263.851 123.625 264.509 124.282Z" fill="black"/>
<path d="M272.289 127.569V134.44H273.785C275.221 134.44 275.221 134.32 275.401 129.182L275.58 123.984L278.154 123.804C280.368 123.625 280.667 123.446 280.667 122.131C280.667 120.757 280.548 120.697 276.478 120.697H272.289V127.569Z" fill="black"/>
<path d="M283.839 122.251C282.403 123.685 282.343 123.864 283.3 124.402C284.078 124.82 284.916 124.701 286.412 123.924C288.267 122.908 288.507 122.908 289.404 123.804C290.721 125.119 290.123 125.836 287.43 126.254C284.018 126.792 282.463 128.166 282.463 130.496C282.463 133.842 285.874 135.515 289.225 133.783C290.182 133.245 290.541 133.245 290.721 133.783C290.841 134.141 291.559 134.44 292.337 134.44C293.773 134.44 293.773 134.38 293.593 128.764C293.354 121.713 292.696 120.697 288.327 120.697C285.993 120.697 285.096 120.996 283.839 122.251ZM290.242 129.003C290.242 130.317 288.746 132.05 287.609 132.05C286.173 132.05 285.215 130.377 286.053 129.421C286.652 128.644 287.31 128.405 289.823 127.927C290.063 127.927 290.242 128.405 290.242 129.003Z" fill="black"/>
<path d="M297.423 127.569V134.44H298.86C300.236 134.44 300.356 134.141 300.535 131.572L300.715 128.764H303.109H305.502L305.682 131.572C305.861 134.141 305.981 134.44 307.358 134.44H308.794V127.569V120.697H307.358C306.101 120.697 305.861 120.996 305.682 122.908C305.502 125.119 305.443 125.179 302.989 125.358L300.416 125.537V123.147C300.416 120.936 300.296 120.697 298.92 120.697H297.423V127.569Z" fill="black"/>
<path d="M312.983 127.569V134.44H314.479H315.975V127.569V120.697H314.479H312.983V127.569Z" fill="black"/>
<path d="M320.882 121.653C319.087 122.848 319.207 124.282 321.002 124.282C321.84 124.282 322.678 123.984 322.857 123.685C323.456 122.788 325.371 122.968 325.789 123.984C325.969 124.521 325.61 125.358 324.952 125.896C323.396 127.21 323.456 128.106 325.071 129.182C325.909 129.72 326.208 130.377 325.969 131.034C325.49 132.289 322.618 132.408 322.199 131.154C321.72 129.959 319.626 130.018 319.147 131.273C318.548 132.767 321.062 134.44 324.054 134.44C328.602 134.44 331.175 131.094 328.662 128.584C327.704 127.628 327.645 127.27 328.363 126.374C331.116 122.549 325.071 118.725 320.882 121.653Z" fill="black"/>
<path d="M333.27 121.952C332.612 122.609 332.193 123.506 332.312 123.864C332.671 124.999 334.527 125.059 335.723 123.984C337.16 122.729 339.015 123.027 339.015 124.581C339.015 125.418 338.357 125.896 336.501 126.374C331.893 127.509 330.158 130.676 332.731 133.245C334.048 134.559 337.459 134.858 338.596 133.723C339.135 133.185 339.494 133.185 340.032 133.723C340.451 134.141 341.289 134.44 342.007 134.44C343.204 134.44 343.264 134.201 343.024 128.584C342.845 123.685 342.605 122.609 341.588 121.713C339.793 120.219 334.886 120.339 333.27 121.952ZM339.374 129.779C338.416 132.408 335.125 132.827 335.125 130.317C335.125 129.421 335.723 128.943 337.1 128.584C339.494 127.927 339.972 128.166 339.374 129.779Z" fill="black"/>
<path d="M346.735 121.474C346.615 121.892 346.555 124.94 346.615 128.226L346.795 134.141L351.702 134.321C356.549 134.5 356.609 134.5 356.788 136.113C356.908 137.248 357.327 137.786 358.344 137.906C359.601 138.085 359.661 137.906 359.661 134.799C359.661 132.946 359.422 131.453 359.063 131.453C358.703 131.453 358.464 129.242 358.464 126.075V120.697H356.669H354.873V126.075V131.453H352.48H350.086V126.075C350.086 120.697 350.086 120.697 348.59 120.697C347.752 120.697 346.914 121.056 346.735 121.474Z" fill="black"/>
<path d="M362.653 127.569V134.44H364.149H365.645V127.569V120.697H364.149H362.653V127.569Z" fill="black"/>
<path d="M370.552 121.653C368.817 122.848 368.757 126.075 370.433 127.569C371.57 128.584 371.57 128.644 370.134 130.735C368.278 133.484 368.278 134.44 370.134 134.44C371.151 134.44 372.049 133.723 373.365 131.811C375.16 129.242 376.537 128.226 377.255 128.883C377.434 129.122 377.614 130.437 377.614 131.871C377.614 134.201 377.734 134.44 379.11 134.44H380.606V127.569V120.697H376.238C373.305 120.697 371.45 120.996 370.552 121.653ZM377.614 124.581C377.614 126.314 376.477 126.971 374.323 126.433C373.425 126.194 372.827 125.597 372.827 124.94C372.827 123.446 373.365 123.087 375.639 123.087C377.375 123.087 377.614 123.266 377.614 124.581Z" fill="black"/>
<path d="M4 85.8669V140.183" stroke="black" stroke-linecap="square"/>
</svg>
