<svg width="40" height="40" fill="none" xmlns="http://www.w3.org/2000/svg"><circle cx="20" cy="20" r="19.5" stroke="#fff"/><path d="M30.29 16.067s-.21-1.4-.84-2c-.77-.8-1.68-.8-2.1-.867C24.41 13 20 13 20 13s-4.41 0-7.35.2c-.42.067-1.33.067-2.1.867-.63.6-.84 2-.84 2s-.21 1.6-.21 3.2v1.466c0 1.6.21 3.267.21 3.267s.21 1.4.84 2c.77.8 1.82.8 2.31.867C14.54 26.933 20 27 20 27s4.41 0 7.35-.2c.42-.067 1.33-.067 2.1-.867.63-.6.84-2 .84-2s.21-1.6.21-3.2v-1.466c0-1.6-.21-3.2-.21-3.2zM17.83 22.6V17l5.67 2.8-5.67 2.8z" fill="#fff"/></svg>