<svg width="40" height="40" fill="none" xmlns="http://www.w3.org/2000/svg"><circle cx="20" cy="20" r="19.5" stroke="#fff"/><path d="M20 15.328a4.672 4.672 0 100 9.344 4.672 4.672 0 000-9.344zm0 8.125a3.453 3.453 0 110-6.907 3.453 3.453 0 010 6.907zm4.469-13.406H15.53a5.49 5.49 0 00-5.484 5.484v8.938a5.49 5.49 0 005.484 5.484h8.938a5.49 5.49 0 005.484-5.484V15.53a5.49 5.49 0 00-5.484-5.484zm4.265 14.422a4.27 4.27 0 01-4.265 4.265H15.53a4.27 4.27 0 01-4.265-4.265V15.53a4.27 4.27 0 014.265-4.265h8.938a4.27 4.27 0 014.265 4.265v8.938zm-2.437-9.75a1.016 1.016 0 11-2.031 0 1.016 1.016 0 012.03 0z" fill="#fff"/></svg>