<svg width="168" height="152" fill="none" xmlns="http://www.w3.org/2000/svg"><path d="M2.036 74.987c0 9.714 2.055 19.333 6.046 28.308 3.99 8.975 9.84 17.13 17.215 23.999s16.13 12.318 25.765 16.035c9.636 3.718 19.963 5.631 30.393 5.631 10.429 0 20.756-1.913 30.392-5.631 9.635-3.717 18.233-9.793 25.608-16.662 7.374-6.869 9.245-33.079 13.236-42.054 0-3.04 14.764 2.027 10.182-9.626H2.036z" fill="#000704"/><path d="M2 76c0-9.455 2.058-18.818 6.056-27.553 3.998-8.736 9.858-16.673 17.246-23.359C32.69 18.402 41.46 13.1 51.112 9.481 60.766 5.862 71.11 4 81.559 4s20.793 1.862 30.446 5.48C117.5 15 133.112 17.315 140.5 24c7.388 6.686 7.502 5.765 11.5 14.5 0 2.959 13.706 26.157 9.117 37.5H2z" fill="#000704"/><g fill="#fff"><path d="M109.774 6.759c-1.775.712-3.36 1.352-4.791 1.936a75.666 75.666 0 0120.627 11.339 47.479 47.479 0 019.418 3.504 78.394 78.394 0 00-12.005-9.74l-4.463-.539 1.04-1.596a79.51 79.51 0 00-9.826-4.904zM152.985 85.645c.915.558 2.078 1.285 3.385 2.115.368-2.334.626-4.703.767-7.102a99.388 99.388 0 01-3.575-1.813 69.585 69.585 0 01-.577 6.8zM139.596 118.323a73.217 73.217 0 01-6.931 8.016l1.014 3.284.176.567c9.059-8.605 15.96-19.312 19.849-31.3-.217-3.033-.707-5.961-1.474-8.748a70.041 70.041 0 01-8.525 22.032c-1.109 4.399-2.756 8.674-3.317 8.171-.098-.098-.383-.837-.792-2.022z"/><path fill-rule="evenodd" clip-rule="evenodd" d="M56.537 31.384l-3.187 4.498-2.842.253-2.868.2-1.696 3.691c-1.18 2.678-1.942 3.738-2.873 3.901-.71.064-3.071.747-5.351 1.459-2.199.74-7.074 1.657-10.763 1.97-3.662.366-6.756.929-6.847 1.294-.116.313.78 3.929 1.992 8.05 2.071 6.976 3.811 10.663 5.333 10.88.299.06 2.996 3.636 5.947 8.006 2.95 4.37 5.645 8.077 6.05 8.217.351.166.673-1.927.79-4.576l.17-4.88 1.871 2.719a834.885 834.885 0 002.298 3.174c.24.215.815-2.187 1.353-5.352l.872-5.783 2.51 2.234c2.06 1.725 2.68 2.028 3.296 1.358.197-.204.433-.44.662-.666.287-.286.563-.56.734-.747.337-.413.844.071 1.598 1.61 1.015 2.07 1.122 2.15 1.964 1.12.425-.648.953-1.082 1.115-1.026.27.137 4.76 6.273 5.203 7.175.208.425-.126.706-.891.794-.876.139-1.132.58-.975 2 .158 1.421-.185 2.097-1.599 3.063-1.747 1.248-1.747 1.248-.271 3.433 1.553 2.344 1.437 2.657-1.285 2.466-.98-.074-1.908-.041-2.155.006-.275.125.392 1.898 1.407 3.968l1.847 3.768-4.823-1.313c-5.04-1.344-9.275-2.145-9.826-1.894-.165.075.216 1.265.866 2.591 2.394 4.883 14.716 18.882 21.562 24.597l2.487 2.049-.567-2.533c-.64-2.954-.192-3.416 1.422-1.36l1.164 1.548.56-4.083c.324-2.224.844-4.602 1.158-5.199.46-.987 11.787-8.406 12.38-8.156.163.056-.82 3.552-2.119 7.777-1.218 4.252-2.093 7.829-1.794 7.888.406.141 17.264-10.57 18.796-11.98 1.005-.976-.188 2.227-4.298 11.168l-3.709 8.11 17.663-7.831c9.728-4.356 17.718-7.857 17.77-7.751.013.027.583 1.877 1.495 4.837l.028.09c.678 2.202 1.542 5.006 2.504 8.123-13.64 13.648-32.806 22.14-54.032 22.14-41.408 0-74.976-32.318-74.976-72.184S37.225 4.11 78.633 4.11c9.273 0 18.152 1.62 26.35 4.584-9.724 3.965-12.366 5.342-19.311 9.386l-8.903 5.213-7.318 1.573-3.53.754c-2.535.543-4.543.973-5.02 1.054-.713.195-2.502 2.046-4.364 4.71zM109.774 6.76c-1.775.712-3.36 1.352-4.791 1.936a75.666 75.666 0 0120.627 11.339c-2.473-.628-4.899-1.016-7.101-1.105l-4.796-.157-2.749 4.429c-1.502 2.434-2.801 4.322-2.879 4.163-.078-.159.797-3.736 1.931-7.886l2.031-7.542-7.825 2.323-7.8 2.376-9.661 6.142-9.58 6.17-6.25 1.413c-3.425.712-6.77 1.453-7.428 1.623-.658.169-2.833 2.195-4.796 4.515l-3.59 4.227-2.664-.347-2.609-.372-1.405 2.91c-1.375 2.831-1.485 2.881-4.502 3.603-1.644.358-3.956 1.279-5.091 1.989-1.33.863-3.473 1.578-6.074 2.046l-3.97.701-1.574 3.116c-1.66 3.35-1.794 5.553-.451 7.603.79 1.199 1.143 1.233 4.03.246 1.731-.593 4.56-1.423 6.152-1.887 2.799-.753 2.883-.856 1.75-1.38-1.052-.495-.75-.567 2.335-.736l1.728-.113c3.346-.217 4.296-.279 4.353-.529.023-.1-.095-.228-.26-.408a9.086 9.086 0 01-.148-.165c-.344-.428 1.266.657 3.624 2.441 7.02 5.247 15.46 15.04 18.765 21.78 1.066 2.175 1.44 2.525 1.971 1.959.587-.591.665-.432.44 1.033l-.258 1.675 6.605-2.613-4.852 3.439c-2.69 1.936-5.05 3.722-5.248 4.007-.143.259-.385 3.614-.472 7.287-.12 5.117-.433 6.816-1.144 6.88-.574.066-2.717.78-4.728 1.629l-.025.011c-3.529 1.539-3.578 1.561-1.204.093 1.355-.81 2.25-1.736 2.064-1.976-.556-.721-9.512-2.492-9.417-1.886.177 1.737 13.569 17.78 13.947 16.765.114-.182-.235-1.58-.717-3.114l-.808-2.747 1.42 1.107c1.792 1.457 2.59 1.159 1.757-.539-.442-.903.183-4.302 1.853-10.382l2.56-9.08 11.087-12.306C90.04 75.668 95.132 70.24 95.29 70.427c.188.109.634 4.32 1.036 9.263.428 4.997.877 9.076 1.04 9.132.08.028 2.696-2.198 5.707-4.994 3.065-2.82 5.629-5.154 5.739-5.204.221-.1-.457 3.193-1.316 6.114-.537 1.931-.676 2.06-.865.848-.147-.712-.297-1.293-.407-1.243-.099.045-2.284 1.866-5.069 4.187l-1.022.852c-3.309 2.736-6.087 4.907-6.168 4.879-.081-.028-.675-2.614-1.31-5.699-.345-1.666-.683-3.202-.922-4.283-.203-.92-.333-1.512-.332-1.572-.052-.106-1.09 2.312-2.336 5.41l-2.258 5.568-4.564 2.788-.762.475c-3.659 2.286-5.495 3.433-5.34 3.801.157.371 2.335-.05 6.71-.894l.897-.173 8.985-1.746-.697 5.314c-.08.582-.16 1.112-.234 1.588-.255 1.668-.41 2.678.002 2.989.634.477 2.606-.691 7.604-3.654l.006-.004.015-.009c.963-.57 2.038-1.208 3.237-1.912 4.896-2.939 8.958-5.239 8.958-5.239.081.028-.762 3.396-1.866 7.468a284.186 284.186 0 00-2.455 9.292l-.371 1.855 13.048-8.719c7.148-4.806 13.13-8.692 13.237-8.61.162.056 1.712 4.867 3.481 10.813 1.106 3.741 2.187 7.153 2.897 9.215a73.217 73.217 0 01-6.931 8.016l1.014 3.284.176.567C119.656 143.676 100.154 152 78.633 152 35.205 152 0 118.106 0 76.295 0 34.485 35.205.59 78.633.59c11.063 0 21.592 2.2 31.141 6.169zm0 0a79.51 79.51 0 019.826 4.904l2.383-3.658c.981-1.518 2.002-3.073 2.809-4.304.707-1.077 1.251-1.906 1.463-2.245.509-.75.797-1.4.634-1.456-.081-.028-7.455 2.804-16.266 6.418l-.849.34zm24.081 123.431c9.059-8.605 15.96-19.312 19.849-31.3.465 6.521-.337 13.525-2.39 20.644-1.545 5.374-11.564 26.734-12.402 26.401-.159-.055-2.374-7.071-5.057-15.745zm17.057-45.712c.115.003.884.442 2.073 1.167.301-2.236.495-4.504.577-6.8-.743-.393-1.545-.824-2.405-1.292l-9.152-5.056.444 2.005c2.761 13.606 3.469 25.225 2.035 33.988a45.402 45.402 0 01-.779 3.684 70.041 70.041 0 008.525-22.032 39.517 39.517 0 00-.766-2.475c-.612-1.798-.85-3.248-.552-3.189zm8.789 5.416a476.342 476.342 0 00-3.331-2.135c.368-2.333.626-4.702.767-7.101 2.115 1.007 3.224 1.361 3.249 1.008.061-1.63-1.794-9.163-3.829-15.579a73.151 73.151 0 00-7.626-23.748l1.517.494 4.518 1.516-2.227-3.855c-3.092-5.344-6.652-9.307-11.955-13.387-1.665-1.299-3.631-2.504-5.756-3.569a78.394 78.394 0 00-12.005-9.74l.051.006c12.016 1.549 23.69 8.314 31.391 18.248 2.885 3.686 9.015 15.502 9.778 18.984l.424 1.69-3.797-.871-3.852-.846 3.353 6.978c4.914 10.162 7.383 21.11 7.553 33.557l.076 3.73-8.299-5.38zM38.885 61.924c7.678-.7 12.558-.645 13.302.185.506.484.312.637-.616.67-.737.01-2.41.445-3.866.912-1.953.693-3.234.691-5.48-.04-2.301-.707-3.119-.725-4.091.041-.778.613-2.095.952-3.458.922-1.17-.051-2.238.11-2.38.368-.088.235.156.319.486.169.331-.15 1.334.108 2.194.625 1.426.845 1.582 1.163 1.996 5.583.24 2.552.242 4.757.022 4.857-.22.1-1.748-2.19-3.426-5.063-1.677-2.872-3.523-5.537-4.06-5.943-.912-.623-.743-.83 1.186-1.706 1.213-.551 4.91-1.258 8.19-1.58zm2.877 2.845c1.724.904 1.724.904 1.631 4.84l-.066 3.989-2.285-3.7c-1.522-2.553-2.195-4.064-1.988-4.742.387-1.409.715-1.428 2.708-.387zm11.148.191c2.301.707 3.538 1.442 4.006 2.398.911 1.857.554 1.954-1.456.467-1.581-1.164-1.662-1.192-2.816.306-1.234 1.47-1.234 1.47-2.647.1-3.491-3.41-2.231-4.827 2.913-3.271zm14.11 19.157c1.704.588 1.887 2.063.516 3.529-.755.797-1.493 2.041-1.593 2.8-.248 1.281-.303 1.306-1.258.183a20.823 20.823 0 00-1.81-1.903c-.64-.618-.526-.8.846-1.163 1.317-.339 1.625-.674 1.516-1.857-.096-1.709.322-2.093 1.783-1.589zm-2.742 11.045l1.606.113-.063 3.858c-.075 3.149-.223 3.671-.77 2.556-.419-.718-1.443-2.394-2.285-3.699-1.686-2.478-1.401-2.997 1.512-2.828zm24.414-66.384c-.326-1.214 4.792-5.487 10.154-8.572 2.321-1.315 5-2.726 5.882-3.127l1.627-.805-1.419 1.23c-.778.612-3.222 2.502-5.388 4.135l-3.941 2.959 7.977-2.976-1.454 1.57c-1.147 1.234-1.238 1.6-.456 1.958l.033.016c.338.165.58.283.588.414.019.331-1.473.744-6.75 2.202l-.233.065c-5.105 1.41-6.418 1.618-6.62.931zM53.818 44.95c-1.155 2.731-1.158 2.862.273 3.445.625.254.977.397.964.493-.017.124-.642.168-2.073.27-3.083.211-2.862.25 7.5 2.082l1.172.207c8.826 1.506 14.805 3.526 23.563 7.918 3.071 1.59 5.395 2.48 5.187 2.056-.885-1.804-7.338-7.957-10.189-9.647l-2.984-1.824 2.068.229c5.954.734 16.095 3.134 21.097 4.95 4.703 1.756 5.436 1.877 4.562.782-2.069-2.434-7.35-6.33-10.238-7.548l-2.863-1.165 2.335-.737c1.29-.392 4.055-.804 6.131-.968 3.497-.292 4.201-.093 8.233 2.358 5.702 3.38 12.385 9.039 17.216 14.63 3.161 3.561 4.581 5.771 7.472 11.531 1.926 3.927 3.923 8.276 4.353 9.703l.785 2.564-.15-2.917c-.464-8.096-5.237-19.62-11.043-26.65-1.803-2.167-5.268-5.524-7.678-7.414l-.969-.771c-1.772-1.407-2.644-2.099-2.52-2.37.12-.261 1.171-.129 3.239.131l1.136.142c1.158.156 1.676.225 1.715.123.032-.082-.246-.276-.749-.627-.643-.487-4.184-1.798-7.865-2.981-7.146-2.204-14.573-2.917-20.922-1.98-4.953.759-5.397 1.09-5.047 3.592.109 1.184.058 2.18-.16 2.15-.166-.005-1.163-.017-2.547-.033H84.766l-2.957-.037c-2.807-.087-6.249.179-7.65.62l-2.552.706 1.335 1.21c1.36 1.264 1.387 1.317-6.088-.867-.38-.087.475-1.644 1.907-3.398 2.414-2.913 2.608-3.067 2.551-1.808-.018.787.047 1.471.184 1.474.649.225 17.872-8.64 17.69-9.012-.13-.265-1.392.049-2.825.7-1.488.676-4.433 1.82-6.576 2.534l-3.905 1.385.615-1.772.585-1.693-3.263.768c-1.755.408-6.309 1.57-10.068 2.563l-2.935.732c-2.527.631-4.52 1.129-4.881 1.198-.493.094-1.452 1.438-2.115 2.973zm12.018-2.022c.312.637-1.65 4.06-2.477 4.435-.386.175-2.268.187-4.309.011l-3.646-.29 5.126-2.329c2.756-1.252 5.175-2.092 5.306-1.827zm2.992 28.103c-5.52-6.448-8.694-9.484-13.95-13.195-4.478-3.221-4.423-3.247 2.872-1.565 5.939 1.39 13.574 4.864 18.074 8.27 4.235 3.138 4.121 3.32-.566.907-3.772-1.92-9.241-3.588-9.532-2.807-.058.156.52 1.061 1.29 1.944 1.54 1.767 3.686 5.594 5.263 9.225.957 2.226.636 1.983-3.451-2.78z"/><path d="M156.557 66.087a73.151 73.151 0 00-7.626-23.748l-2.975-.97 3.486 7.112c1.926 3.927 4.636 10.419 6.042 14.387.357 1.014.718 2.1 1.073 3.22z"/></g></svg>