<svg width="191" height="53" fill="none" xmlns="http://www.w3.org/2000/svg"><path d="M25.34 28.771h1.911l2.355 6.623h-1.59l-.583-1.745h-2.386l-.573 1.745h-1.55l2.415-6.622zm1.75 3.817l-.825-2.49h-.04l-.825 2.49h1.69zm3.24-3.817h2.778c.765 0 1.368.062 1.811.184.443.116.768.32.976.612.208.293.312.698.312 1.215v2.694c0 .503-.097.894-.291 1.173-.195.272-.514.466-.956.582-.443.109-1.057.163-1.842.163H30.33v-6.622zm2.718 5.49c.429 0 .75-.017.965-.05.222-.041.38-.116.474-.225.1-.109.15-.279.15-.51V30.75c0-.313-.124-.53-.372-.653-.241-.13-.63-.194-1.167-.194H31.9v4.357h1.148zm3.722-5.49h1.59l1.752 5.297h.04l1.75-5.296h1.55l-2.415 6.622h-1.922l-2.345-6.622zm7.388 0h4.981v1.133h-3.412v1.52h3.08v1.133h-3.08v1.704h3.513v1.133h-5.082v-6.622zm6.142 0h1.59l3.16 4.521v-4.52h1.398v6.622h-1.59l-3.16-4.592v4.592H50.3v-6.622zm9.067 1.133h-2.013v-1.133h5.585v1.133h-2.002v5.49h-1.57v-5.49zm7.282 5.592c-1.885 0-2.827-.64-2.827-1.918V28.77h1.57v4.807c0 .3.093.507.281.622.195.11.527.163.996.163.463 0 .785-.054.967-.163.188-.115.281-.323.281-.622V28.77h1.57v4.807c0 1.279-.946 1.918-2.838 1.918zm4.23-6.725h2.938c.872 0 1.503.11 1.892.327.389.21.583.568.583 1.072v1.163c0 .388-.137.694-.412.918-.269.218-.627.357-1.077.419l1.892 2.724h-1.811l-1.711-2.602h-.725v2.602h-1.57v-6.622zm2.918 2.97c.369 0 .62-.048.754-.143.135-.102.202-.296.202-.581v-.47c0-.245-.074-.412-.222-.5-.14-.095-.386-.143-.734-.143h-1.349v1.837h1.349zm3.803-2.97h4.982v1.133H79.17v1.52h3.08v1.133h-3.08v1.704h3.512v1.133H77.6v-6.622zM120.085 35.585a6.97 6.97 0 01-.795-.041 5.28 5.28 0 01-.755-.153 2.683 2.683 0 01-.764-.317 1.627 1.627 0 01-.504-.56 1.632 1.632 0 01-.211-.848v-2.908c0-1.334 1.01-2 3.029-2 .517 0 1.208.075 2.073.224v1.194c-.778-.19-1.462-.285-2.053-.285a6.41 6.41 0 00-.583.02 1.713 1.713 0 00-.423.102c-.315.109-.473.35-.473.724v2.817c0 .599.54.898 1.62.898.463 0 1.114-.099 1.952-.296v1.204c-.717.15-1.422.225-2.113.225zm3.116-6.725h1.57v5.49h3.21v1.133h-4.78V28.86zm8.646 6.725c-1.885 0-2.828-.64-2.828-1.919V28.86h1.57v4.806c0 .3.094.507.282.623.194.108.526.163.996.163.463 0 .785-.054.966-.163.188-.116.282-.324.282-.623V28.86h1.57v4.806c0 1.28-.946 1.919-2.838 1.919zm4.228-6.725h2.647c.624 0 1.104.047 1.439.143.342.088.584.234.725.439.14.197.211.476.211.836v.817a.766.766 0 01-.222.52 1.08 1.08 0 01-.503.337v.05c.255.028.487.14.695.338.214.19.322.404.322.642v1.02c0 .538-.212.92-.634 1.144-.423.224-1.077.337-1.963.337h-2.717V28.86zm2.647 2.694c.248 0 .433-.02.553-.061.121-.041.202-.106.242-.194a.946.946 0 00.07-.408v-.327c0-.157-.02-.272-.06-.347-.04-.082-.124-.14-.252-.173-.12-.034-.315-.051-.583-.051h-1.047v1.56h1.077zm.04 2.796c.383 0 .654-.044.815-.133a.453.453 0 00.242-.428v-.531c0-.245-.064-.418-.191-.52-.121-.102-.339-.154-.654-.154h-1.329v1.766h1.117zM0 .307h4.89l3.805 14.51L12.499.307h4.377l4.106 14.51L24.484.307h4.77l-6.28 19.868h-4.649l-3.743-14.42-3.865 14.42H6.068L0 .307zm31.62 0h4.71v7.96h8.331V.306h4.71v19.868h-4.71v-8.51H36.33v8.51h-4.71V.307zm21.964 0h4.71v19.868h-4.71V.307zm13.461 3.398h-6.038V.307h16.756v3.398h-6.008v16.47h-4.71V3.705zM80.471.307h14.944v3.398H85.181v4.561h9.238v3.398h-9.238v5.113h10.536v3.398H80.471V.307zM104.658.306h4.891l3.804 14.51 3.804-14.51h4.377l4.106 14.51 3.502-14.51h4.77l-6.279 19.868h-4.65L119.24 5.755l-3.865 14.42h-4.649L104.658.305zm40.465 20.174c-1.087 0-2.093-.071-3.019-.214a16.197 16.197 0 01-2.838-.735c-1.066-.367-1.902-.959-2.505-1.775-.604-.837-.906-1.847-.906-3.03V6.03c0-.98.211-1.857.634-2.633.443-.775 1.006-1.388 1.691-1.837.603-.387 1.348-.714 2.234-.98.885-.265 1.71-.428 2.475-.49A25.846 25.846 0 01145.123 0c.926 0 1.731.04 2.415.122a13.85 13.85 0 012.295.429c.966.286 1.761.633 2.385 1.04.624.41 1.147.98 1.57 1.715.442.755.664 1.664.664 2.725v8.694c0 1.102-.292 2.051-.876 2.847-.563.796-1.348 1.398-2.354 1.806-1.812.735-3.845 1.102-6.099 1.102zm.061-3.398c.664 0 1.217-.02 1.66-.06a9.308 9.308 0 001.419-.307c.483-.143.845-.378 1.087-.704.261-.347.392-.776.392-1.286V6c0-.939-.372-1.602-1.117-1.99-.744-.408-1.902-.612-3.472-.612-1.569 0-2.727.194-3.471.582-.745.388-1.117 1.061-1.117 2.02v8.725c0 .51.13.939.392 1.286.262.326.644.561 1.147.704.483.143.946.245 1.389.306.463.04 1.026.061 1.691.061zM158.242.306h4.709v16.47h9.631v3.398h-14.34V.306zm17.512 0H191v3.398h-10.536v4.868h9.54v3.398h-9.54v8.204h-4.71V.306z" fill="#fff"/><path d="M89.219 5.669c.112.234 3.097 5.345 3.763 6.462.532.866.66 1.381.408 1.472-.327.119-1.007-.72-1.993-2.413-1.49-2.596-1.739-2.963-1.952-2.886-.264.096-.035 1.75.393 2.863.196.503 1.316 3.128 2.499 5.822 1.848 4.243 2.147 5.023 2.247 5.757.056.49.379 1.535.753 2.536.368.925.747 2.029.876 2.452.299 1.029 1.601 3.757 1.963 4.083.143.145.71.436 1.234.638 1.417.558 1.861.933 2.613 2.228.735 1.263 1.67 3.406 1.506 3.465-.163.06-.556-.269-.726-.625-.085-.179-.262-.363-.394-.393-.174-.055-.284.116-.487.803-.206.65-.222.864-.062.859.428.001.881.517 1.78 2.06.888 1.52 1.443 2.9 1.49 3.679.005.194.268.53.805 1.067.446.44.848.882.907 1.004.053.112.788 1.034 1.627 2.05a233.37 233.37 0 012.401 2.958c.918 1.183 1.511 1.621 1.714 1.273.076-.119.006-.42-.212-.876-.175-.368-.871-2.442-1.524-4.582-.671-2.148-1.644-5.114-2.186-6.59-.53-1.48-.961-2.878-.964-3.1.004-.392-.042-.428-1.24-1.144-.686-.418-1.278-.7-1.33-.655-.034.052.021.384.143.732.115.364.142.668.054.7-.597.202-1.105-.554-1.428-2.188-.524-2.58-.535-3.438-.055-4.904l.288-.85-.574-.863c-1.679-2.527-4.036-6.507-7.44-12.616-1.403-2.51-2.63-4.677-2.742-4.82-.113-.142-.918-1.366-1.813-2.714-1.4-2.131-2.13-3.043-2.37-2.956-.037.013-.02.112.028.212zM103.751 3.896c.12.505.153 1.161.181 3.29.023 1.067.181 3.105.352 4.523.189 1.423.376 3.215.436 3.992.056.766.164 1.71.234 2.076.07.367.135.906.132 1.209.01.298.42 2.136.911 4.087.876 3.391.924 3.556 1.23 3.689.485.208.62.065.565-.61-.066-.696.057-1.019.385-1.026.297-.009.372.212.446 1.299.058.896.072.956.453 1.31.218.192.605.713.867 1.15.421.72.458.862.406 1.46-.014.372-.015.832.036 1.035.035.197.016.742-.045 1.199-.231 1.727-.183 1.985.949 4.754.245.588.494.257.621-.828.125-.967.391-1.724.659-1.826.428-.164.436 1.552.01 2.922-.356 1.12-.298 2.108.203 3.74.168.514.263 1.12.222 1.372-.059.429-.053.44.313.641.213.116.423.166.463.099.156-.191.155-.873-.019-2.171-.103-.748-.125-2.432-.061-3.992.059-1.479.061-4.838-.015-7.472-.072-2.624-.086-5.216-.025-5.764.119-1.227-.111-1.165-.462.15-.277 1.011-1.95 4.026-2.316 4.166-.123.046-.316.002-.441-.081-.361-.282-.259-.833.308-1.561.497-.663 1.826-3.06 1.77-3.21-.008-.048-.144-.062-.287-.06-.221.019-.322-.074-.481-.446-.119-.256-1.059-2.18-2.093-4.277-1.553-3.147-1.974-4.114-2.459-5.556-.316-.955-.647-1.76-.734-1.792-.174-.065-.198 1.335-.071 2.782.093 1.001-.005 1.747-.25 1.84-.061.024-.244-.247-.405-.592-.244-.524-.28-.877-.243-2.033.029-.772.008-1.866-.049-2.421-.145-1.546-.996-6.338-1.224-6.92-.24-.577-.6-.702-.472-.147zM79.192 16.148c.261.503.779 1.497 1.144 2.223.448.877.882 1.536 1.282 1.999.796.887.867 1.07.675 1.643l-.15.478.567.516a93.757 93.757 0 001.937 1.653c1.096.916 1.4 1.232 1.616 1.7.15.323.22.598.17.616-.193.076-.858-.219-1.374-.623-.684-.523-1.261-.812-1.33-.653-.04.068.57.895 1.34 1.845 1.385 1.696 1.405 1.74 2.36 3.774.539 1.131 1.22 2.51 1.519 3.063l.565 1.004 2.286.834c1.58.571 2.353.915 2.504 1.119.12.164.247.285.295.267.237-.105.191-.39-.188-1.24-.473-1.053-.508-1.499-.147-2.479.242-.62.21-.75-.349-1.494a61.396 61.396 0 01-1.028-1.48c-.37-.553-1.666-2.086-2.87-3.42a2725.28 2725.28 0 01-6.406-7.172c-4.094-4.614-4.623-5.171-4.805-5.1-.048.018.13.435.387.927zM89.535 36.668c.05.112.443.437.882.743.435.295 1.95 1.687 3.373 3.09a318.682 318.682 0 003.379 3.286c.427.403 1.05 1.03 1.372 1.41.778.88 1.775 1.575 3.511 2.412.983.477 1.393.624 1.357.48-.062-.291-.886-1.151-1.104-1.18-.107-.02-.705-.314-1.328-.662-1.126-.642-1.476-1.025-1.31-1.425.06-.143.287-.066.971.297 1.144.62 1.367.595.693-.05-.697-.701-1.337-1.611-2.116-3.018-.814-1.485-.946-1.628-1.808-1.956-.27-.113-.597-.32-.711-.484-.736-1.002-1.542-1.42-4.405-2.318-2.842-.88-2.875-.892-2.756-.625z" fill="#CD2F30"/></svg>