<svg width="279" height="49" fill="none" xmlns="http://www.w3.org/2000/svg"><path d="M119.528 19.515v19.514h6.098v-9.544c0-8.598.061-9.635.58-10.733 1.433-3.11 5-4.36 7.958-2.805 2.653 1.403 3.049 3.324 3.049 14.758v8.324h5.794v-9.696c0-10.55-.153-11.83-1.739-14.758-1.006-1.86-2.469-3.14-4.665-4.177-1.372-.61-2.134-.763-4.269-.763-2.286 0-2.835.122-4.634.945l-2.074.976V0h-6.098v19.515zM227.774 19.515v19.514h6.098l.061-6.586.092-6.617 5.793 6.617 5.794 6.586H254.119l-.915-1.006c-.518-.518-3.872-4.269-7.471-8.263l-6.494-7.318 6.677-6.495 6.709-6.495h-8.538l-5.092 5.092-5.123 5.123V0h-6.098v19.515zM10.062 9.91c-.914.274-2.195.823-2.805 1.25l-1.159.732v-1.525H0v28.662H6.403V29.18c0-9.604.03-9.848.702-11.038 1.25-2.195 3.445-3.17 6.22-2.744 1.768.244 3.506 1.86 4.025 3.66.213.762.335 4.695.335 10.58v9.391h5.794v-8.842c0-5.245.122-9.453.335-10.367.64-3.02 3.446-4.88 6.647-4.452 1.89.244 3.263 1.28 4.147 3.049l.763 1.524V39.03h6.098v-9.727c0-8.934-.061-9.879-.61-11.739-.884-2.805-3.354-5.458-6.464-6.891-1.982-.945-2.5-1.037-4.818-1.037-3.11.03-5.55.854-7.349 2.47l-1.189 1.067-1.372-1.22C17.29 9.85 13.325 9.026 10.062 9.91zM56.562 9.819c-2.561.488-5.305 2.012-7.348 4.025-4.666 4.695-5.733 11.891-2.683 17.929 1.768 3.476 5.823 6.677 9.574 7.531 1.768.397 4.94.397 6.708 0C69.308 37.81 74.095 31.62 74.095 24.7c0-4.422-1.403-7.867-4.39-10.855-3.538-3.507-8.233-4.97-13.143-4.025zm6.495 6.312c5.275 2.683 6.617 10.245 2.653 14.88-3.171 3.72-9.178 3.811-12.38.152-2.957-3.354-3.171-8.751-.549-12.41 2.348-3.232 6.83-4.391 10.276-2.622zM101.995 9.665c-2.744.366-5.702 1.646-6.922 3.019-.945 1.067-1.768 3.293-1.768 4.817 0 4.726 2.47 6.891 10.245 8.873 4.818 1.25 6.038 1.86 6.525 3.355.305.884.275 1.25-.213 2.225-.823 1.677-2.378 2.348-5.428 2.348-2.104 0-2.652-.122-3.842-.823-1.28-.762-2.408-2.287-2.408-3.263 0-.213-1.037-.335-3.08-.335h-3.11l.213 1.25c.64 3.995 4.178 7.227 9.026 8.233 2.439.518 6.769.183 8.995-.64 2.317-.885 4.787-3.172 5.549-5.153 1.19-3.11.427-7.044-1.768-9.026-1.586-1.433-3.202-2.104-7.989-3.354-2.134-.58-4.421-1.28-5.031-1.616-2.074-1.067-2.104-3.385-.061-4.391 1.524-.793 5.427-.762 6.982.06 1.068.52 2.165 2.074 2.165 3.02 0 .213 1.037.335 3.05.335 3.476 0 3.445.03 2.561-2.53-1.525-4.514-7.379-7.258-13.691-6.404zM183.927 9.757c-.732.153-1.952.64-2.714 1.067-.762.427-1.433.763-1.494.763-.031 0-.122-.305-.183-.702-.092-.64-.244-.67-3.049-.762l-2.989-.091v28.997h6.099v-8.934c0-5 .152-9.513.335-10.275.671-2.958 3.232-4.788 6.281-4.483 1.952.214 3.233 1.037 4.147 2.744.641 1.25.671 1.617.763 11.1l.091 9.848h5.794l-.092-10.61-.091-10.582-.946-1.982c-1.28-2.713-2.561-4.085-4.787-5.153-2.104-1.006-4.97-1.402-7.165-.945zM209.021 9.787c-2.287.366-4.086 1.159-5.397 2.348-2.165 1.951-2.957 4.421-2.378 7.287.305 1.342.671 2.013 1.738 3.172 1.586 1.707 3.659 2.652 8.263 3.78 5.428 1.342 6.769 2.196 6.769 4.27 0 1.981-1.829 3.384-4.817 3.689-3.354.366-6.434-1.128-7.044-3.415l-.213-.884-3.11-.092-3.08-.091.183 1.158c.457 2.867 2.805 5.855 5.732 7.227 2.135 1.037 3.812 1.372 6.556 1.403 7.074.03 11.892-3.751 11.892-9.27 0-2.348-.519-3.75-1.921-5.306-1.616-1.768-3.964-2.835-8.751-3.994-4.117-1.006-5.458-1.647-6.038-2.866-.549-1.128.031-2.318 1.464-3.05 1.524-.792 6.007-.64 7.165.245.793.61 1.464 1.585 1.799 2.652.153.488.58.55 3.233.55h3.11l-.214-1.007c-.366-1.586-1.585-3.75-2.805-4.97-2.592-2.531-7.318-3.66-12.136-2.836z" fill="#1D1D1D"/><path d="M263.449 9.787c-4.36.732-7.531 3.385-8.355 7.044l-.182.854h3.018c2.897 0 3.049-.03 3.598-.763.732-1.006 2.531-1.646 4.757-1.677 3.75 0 5.824 1.129 5.641 3.05-.122 1.433-1.555 2.103-5.336 2.47-4.97.487-6.922.884-8.66 1.676-3.232 1.495-4.574 3.507-4.787 7.136-.152 2.988.64 5.214 2.561 7.135 2.043 2.042 4.086 2.744 8.05 2.774 3.415 0 5.062-.427 7.41-1.89.67-.427 1.219-.701 1.25-.64.03.06.183.487.366 1.006l.274.914 2.988.092c1.769.061 2.958-.03 2.958-.214 0-.152-.152-.67-.366-1.158-.244-.58-.427-4.208-.549-10.916-.152-9.697-.183-10.123-.884-11.679-1.86-4.146-7.409-6.25-13.752-5.214zm8.538 17.32c0 3.049-.823 4.36-3.507 5.732-1.799.915-4.726 1.25-6.342.732-2.531-.854-3.842-3.964-2.256-5.458 1.036-.976 2.165-1.28 6.22-1.769 2.043-.244 4.025-.549 4.421-.7 1.342-.55 1.464-.428 1.464 1.463zM87.237 10.214c-.732.214-1.86.824-2.5 1.342-.64.519-1.22.945-1.311.945-.092 0-.183-.518-.244-1.158l-.092-1.129-2.805-.09-2.836-.092v28.997h6.069l.09-9.544.092-9.513.823-1.433c.976-1.647 3.293-2.988 5.184-2.988h1.159V9.757l-1.129.03c-.64 0-1.768.184-2.5.427zM143.616 10.398c0 .153 2.348 6.22 5.214 13.477 2.867 7.258 5.215 13.447 5.215 13.783 0 .335-.793 2.592-1.739 5.031-.945 2.44-1.86 4.726-2.012 5.092-.244.701-.244.701 2.927.701 1.799 0 3.202-.121 3.202-.274 0-.183 3.293-8.69 7.318-18.935 4.025-10.276 7.318-18.783 7.318-18.936 0-.183-1.342-.244-3.11-.213l-3.11.091-3.659 9.514c-2.043 5.244-3.781 9.422-3.903 9.3-.122-.122-1.647-4.208-3.415-9.056-1.738-4.88-3.263-9.087-3.385-9.392-.183-.457-.671-.518-3.537-.518-2.134 0-3.324.122-3.324.335z" fill="#1D1D1D"/></svg>