<svg width="337" height="70" viewBox="0 0 337 70" fill="none" xmlns="http://www.w3.org/2000/svg">
<g clip-path="url(#clip0_969_1328)">
<path d="M20.459 38.4574C23.0676 38.4574 25.1849 37.7798 26.3655 36.6253C26.7605 36.2506 27.0733 35.801 27.2848 35.3042C27.4963 34.8073 27.602 34.2735 27.5956 33.7354C27.614 33.3221 27.5396 32.9099 27.3778 32.5278C27.216 32.1456 26.9706 31.8026 26.6589 31.5231C25.8742 30.7522 24.4956 30.3201 22.4773 30.3201H17.2565L14.9943 38.4539L20.459 38.4574ZM17.2565 45.7754H13.0254L10.2189 55.9798H0.618546L9.92194 22.2762H22.9191C28.6312 22.2762 32.4205 23.4826 34.7357 25.7433C36.5561 27.527 37.3938 29.9813 37.3938 32.6776C37.3938 35.8579 36.3581 38.6959 34.1419 40.8149C32.6679 42.2598 30.5011 43.6564 27.0053 44.6174L32.371 55.9798H21.8375L17.2565 45.7754ZM37.1464 44.8109C37.1464 43.124 37.3903 41.247 37.9311 39.4183L42.6075 22.2796H52.2573L47.3829 40.0924C47.0705 41.1255 46.904 42.1955 46.8881 43.2727C46.8881 46.3008 48.811 48.1813 52.2609 48.1813C53.1221 48.1999 53.9785 48.0518 54.7811 47.7457C55.5836 47.4396 56.3164 46.9815 56.9373 46.3976C58.1674 45.1946 59.1006 43.5112 59.8393 40.8149L64.9116 22.2796H74.5614L69.0968 42.2114C67.8667 46.6396 66.1417 49.9131 63.7275 52.2707C60.677 55.2573 56.3435 56.6055 51.0273 56.6055C42.2152 56.6055 37.1464 52.2257 37.1464 44.8109ZM77.8523 22.2796H86.7174L95.6779 41.005L100.846 22.2796H110.298L101.044 55.9833H92.6734L83.37 36.5285L78.0538 55.9798H68.5524L77.8523 22.2796Z" fill="#1D1D1D"/>
<path d="M160.48 22.2796H164.368V42.405L184.163 22.2796H189.182L174.414 37.0089L189.822 55.9798H184.944L171.703 39.6603L164.368 46.9264V55.9832H160.48V22.2796ZM207.888 39.4667C213.056 39.4667 216.746 36.8638 216.746 32.5324V32.4356C216.746 28.2979 213.497 25.7917 207.934 25.7917H197.301V39.4667H207.888ZM193.413 22.2796H208.231C212.465 22.2796 215.862 23.531 218.029 25.65C219.701 27.285 220.687 29.646 220.687 32.2904V32.3872C220.687 37.9734 216.746 41.247 211.334 42.2114L221.917 55.9798H217.145L207.149 42.8855H197.301V55.9798H193.413V22.2796ZM248.894 43.6079L241.065 26.4658L233.189 43.6079H248.894ZM239.294 22.0376H242.935L258.639 55.9832H254.458L250.418 47.0716H231.662L227.576 55.9798H223.589L239.294 22.0376ZM263.312 22.2796H267.2V55.9832H263.312V22.2796ZM274.832 22.2796H278.476L300.186 49.2874V22.2796H303.976V55.9832H300.876L278.621 28.3463V55.9798H274.832V22.2796ZM311.261 22.2796H336.17V25.7433H315.149V37.2544H333.954V40.7181H315.149V52.5126H336.417V55.9832H311.261V22.2796ZM119.226 41.2228C118.604 41.3852 117.883 42.5847 117.844 42.5847C117.728 42.5294 117.583 42.5156 117.455 42.5156C117.264 42.5156 117.102 42.5502 117.102 42.5502C117.519 42.0247 118.095 40.3655 118.095 40.3655C118.095 40.3655 118.265 40.521 118.392 40.521C118.412 40.5217 118.431 40.5169 118.449 40.5072C118.579 40.445 118.721 40.1546 118.721 40.1546L119.141 39.8089C119.24 39.8988 119.095 40.5936 119.177 40.6213C119.205 40.6311 119.235 40.6358 119.265 40.6351C119.336 40.6351 119.41 40.6213 119.41 40.6213C119.41 40.6213 119.265 41.2158 119.226 41.2228ZM133.514 30.569C133.351 30.1369 132.368 26.9705 132.124 26.483C131.884 25.9991 131.559 25.605 131.418 25.3389C131.276 25.0727 130.901 23.4653 130.923 23.3685C131.686 20.8243 129.926 19.9705 129.48 19.7492C129.039 19.528 128.257 19.3897 128.109 19.3448C127.957 19.2999 126.939 18.688 126.812 18.4218C126.681 18.1557 126.791 17.689 126.791 17.689C127.505 17.008 127.65 15.9883 127.653 15.9779C127.667 15.9844 127.683 15.9879 127.699 15.9883C127.883 15.9883 127.975 15.487 128.07 15.2036C128.173 14.8994 128.279 14.5122 128.201 14.4431C128.186 14.4308 128.167 14.4246 128.148 14.4258C128.067 14.4258 127.964 14.5157 127.964 14.5157C127.964 14.5157 128.035 13.9522 128.127 13.4994C128.215 13.05 128.187 11.211 125.981 10.8549C125.804 10.8273 125.635 10.8135 125.476 10.8135C123.673 10.8135 123.132 12.5522 123.083 13.012C123.033 13.5132 122.927 13.9107 122.941 13.928C122.924 13.9196 122.904 13.9149 122.885 13.9142C122.729 13.9142 122.627 14.2046 122.644 14.4673C122.662 14.7577 122.666 15.2347 122.75 15.4041C122.786 15.4801 122.821 15.5009 122.856 15.5009C122.881 15.5009 122.899 15.4939 122.913 15.487L122.948 15.4732C122.952 16.1404 123.252 16.7729 123.252 16.7729C123.252 16.7729 123.224 16.9458 123.203 16.97C122.743 17.4574 121.927 17.6475 121.923 17.6683C121.817 16.5275 119.919 15.4697 119.785 15.3868C119.647 15.3038 119.647 14.5019 119.103 13.5616C118.555 12.6283 118.134 11.9991 118.07 11.892C118.007 11.7883 118.187 11.5394 118.399 10.9587C118.611 10.3745 118.788 9.28902 118.873 8.46631C118.951 7.64705 119.173 6.80014 119.226 6.55471C119.286 6.31273 119.438 6.11225 119.544 5.89101C119.65 5.66978 119.622 5.40706 119.668 5.3552C119.89 4.94953 120.018 4.50108 120.043 4.04163C120.05 3.91719 120.265 3.19817 120.262 3.09793C120.262 2.99422 120.414 2.34435 120.425 2.19917C120.435 2.05398 120.538 1.57695 120.573 1.46288C120.608 1.34534 120.626 1.03769 120.644 0.736954C120.654 0.550285 120.531 0.432755 120.4 0.432755C120.301 0.432755 120.198 0.501884 120.159 0.65744C120.103 0.864845 119.983 1.29003 119.94 1.39374C119.894 1.49744 119.788 2.05052 119.735 2.17842C119.682 2.30286 119.573 2.6762 119.573 2.6762C119.573 2.6762 119.513 2.4688 119.279 2.43423C119.265 2.43304 119.251 2.43304 119.237 2.43423C119.025 2.43423 118.873 2.67966 118.873 2.67966C118.873 2.67966 118.717 2.4204 118.519 2.37892C118.504 2.37631 118.489 2.37515 118.473 2.37547C118.282 2.37547 118.07 2.62089 118.07 2.62089C118.07 2.62089 118.07 2.44806 117.742 2.43423H117.738C117.604 2.43423 117.279 2.80065 117.261 2.9009C117.233 3.04608 117.144 3.34336 117.109 3.51275C117.074 3.68213 117.282 3.73397 117.282 3.73397C117.038 4.35619 117.367 5.04755 117.342 5.13052C117.3 5.41743 117.307 6.01891 117.317 6.13644C117.328 6.25743 116.819 7.69199 116.335 8.68755C115.844 9.69693 115.564 11.2525 115.494 11.6431C115.423 12.0372 115.554 12.4589 115.674 12.687C115.773 12.8425 115.842 13.0149 115.875 13.1952C115.861 13.5063 116.056 14.7507 116.381 15.5562C116.71 16.3685 117.618 17.7167 117.618 17.7167C117.378 18.7254 117.302 19.7647 117.392 20.7966C117.462 21.3843 117.586 22.9606 117.537 23.3823C117.487 23.8041 117.621 24.8411 117.533 25.3527C117.445 25.8677 117.353 28.5779 117.314 28.7887C117.272 28.9961 116.837 29.5492 116.607 30.0885C116.494 30.3581 116.243 31.1255 116.013 31.8514C115.978 31.8561 115.945 31.8711 115.918 31.8946C115.892 31.918 115.873 31.9488 115.865 31.9828C115.805 32.204 115.522 33.3586 115.522 33.3586C115.522 33.3586 114.737 34.2159 114.5 34.6203C114.267 35.0247 112.563 36.6944 112.987 37.4687C113.003 37.4952 113.022 37.5196 113.044 37.5413C112.731 38.2296 112.469 38.9389 112.259 39.6637C111.263 43.1309 111.506 45.205 111.266 45.9551C111.026 46.7052 111.036 47.1304 111.188 47.5832C111.34 48.0395 112.086 48.603 112.535 48.6445H112.57C113.03 48.6445 113.878 47.9704 114.239 47.5314C114.61 47.082 115.373 46.7329 116.109 46.0553C116.837 45.3813 117.003 45.2914 117.261 45.2015C117.501 45.1186 118.29 44.9595 118.389 44.9595H118.399C118.169 45.682 117.593 49.9027 117.473 50.3175C117.349 50.7427 116.95 51.1057 116.356 52.6958C115.755 54.3101 115.14 59.7407 114.836 61.1511C114.723 61.6696 114.56 62.1328 114.384 62.5269C114.235 62.6583 113.896 62.9832 113.843 63.2113L113.783 63.4568C113.783 63.4568 113.528 63.6711 113.451 64.1896C113.451 64.1896 113.221 65.3857 113.062 65.8039C113.062 65.8039 112.602 66.5298 112.27 66.9066C112.27 66.9066 111.259 67.6153 111.372 68.2755L111.323 68.6212C111.323 68.6212 111.468 68.9047 111.782 68.9738C111.782 68.9738 113.832 69.5165 114.377 69.5165H114.447C114.447 69.5165 114.649 69.5684 114.91 69.5684C115.264 69.5684 115.723 69.4681 115.95 69.0014L116.027 68.1027C116.027 68.1027 116.084 67.7086 116.271 67.5945C116.271 67.5945 116.685 67.3007 116.763 66.5057C116.763 66.5057 116.847 65.2094 116.55 64.836V64.4489L116.603 64.3106C116.745 63.9476 116.71 63.5294 116.755 63.3323C116.876 62.8069 117.448 61.5832 118.887 58.8178C120.29 56.1215 120.69 54.3585 120.725 53.6222C120.764 52.8928 120.838 51.759 120.898 51.2509C120.958 50.7427 122.149 48.3818 122.595 47.5348C123.026 46.7052 123.655 45.5161 124.892 42.2045C124.96 42.1907 125.048 42.125 125.154 41.9418C125.401 41.527 125.755 39.6568 125.755 39.6568C125.755 39.6568 126.002 38.5403 126.091 37.4549C126.176 36.3764 126.328 34.5719 126.126 34.482C126.151 34.482 126.002 33.5936 125.886 33.5694C125.868 33.5653 125.851 33.563 125.833 33.5625H125.822C125.776 32.968 125.765 32.726 125.836 32.3734C125.946 31.8099 125.861 31.0667 125.879 30.8524C125.893 30.6346 126.356 29.767 126.624 29.0203C126.893 28.2771 127.777 26.3137 127.777 26.3137C128.236 26.0959 128.607 25.3077 128.607 25.3077C128.66 25.885 129.491 26.8114 129.502 26.9013C129.516 26.9947 129.869 28.1907 130.414 29.0549C130.884 29.7627 131.385 30.4501 131.916 31.1151C131.916 31.1151 131.916 31.2085 131.873 31.2465C131.831 31.2811 131.502 31.6855 131.428 31.765C131.292 31.9323 131.188 32.1219 131.121 32.325C131.11 32.446 130.972 32.7467 130.923 32.9127C130.873 33.0855 130.933 33.1616 131.106 33.1996C131.121 33.2016 131.135 33.2027 131.149 33.203C131.516 33.203 131.711 32.529 131.729 32.5082C131.771 32.484 131.813 32.4737 131.856 32.4737C132.16 32.4737 132.467 32.9853 132.506 33.0544C132.552 33.1339 132.45 33.5107 132.39 33.5798C132.177 33.744 131.947 33.8854 131.704 34.0015H131.686C131.464 34.017 131.245 34.0636 131.036 34.1398C130.824 34.2332 130.859 34.4786 130.859 34.4786C130.859 34.4786 130.771 34.6964 130.831 34.7102C130.967 34.7409 131.101 34.7825 131.23 34.8346C131.152 34.9176 132.174 35.1319 132.432 35.1596C132.503 35.1665 132.591 35.1699 132.69 35.1699C132.937 35.1699 133.22 35.1388 133.302 35.049C133.415 34.9176 133.782 34.4267 133.754 34.1709C133.726 33.9151 133.729 33.5038 133.701 32.8677C133.673 32.2351 133.68 31.008 133.514 30.569ZM149.848 22.2796V41.8726C149.848 49.239 145.811 52.9931 139.463 52.9931C133.641 52.9931 129.852 49.7541 129.081 43.9329L128.996 44.0815C128.915 44.2163 128.834 44.3442 128.749 44.4652C127.664 47.3102 127.027 48.5477 126.593 49.3808C128.862 54.0578 133.461 56.5086 139.364 56.5086C147.978 56.5086 153.739 51.4064 153.739 41.5857V22.2796H149.848Z" fill="#1D1D1D"/>
<path d="M133.171 62.9496H134.344L135.815 67.4261L137.335 62.9323H138.254L139.767 67.4261L141.24 62.9496H142.379L140.233 69.03H139.289L137.773 64.6918L136.257 69.03H135.323L133.171 62.9496ZM148.423 62.9496H153.001V63.8967H149.508V65.4661H152.605V66.4167H149.508V68.038H153.043V68.9851H148.423V62.9496ZM170.589 66.5861L169.522 64.1733L168.461 66.5861H170.589ZM169.038 62.9046H170.045L172.76 68.9886H171.614L170.989 67.5263H168.069L167.433 68.9851H166.323L169.038 62.9046ZM181.427 65.9397C182.204 65.9397 182.699 65.5456 182.699 64.9338V64.9165C182.699 64.2701 182.222 63.914 181.416 63.914H179.84V65.9397H181.427ZM178.755 62.9496H181.505C182.282 62.9496 182.89 63.1708 183.286 63.551C183.626 63.902 183.811 64.3706 183.799 64.8542V64.8715C183.799 65.8636 183.191 66.4582 182.335 66.7002L184 68.9851H182.713L181.197 66.8799H179.84V68.9886H178.755V62.9496ZM190.066 62.9496H194.643V63.8967H191.151V65.4661H194.247V66.4167H191.151V68.038H194.686V68.9851H190.066V62.9496ZM211.164 65.9397C211.942 65.9397 212.437 65.5456 212.437 64.9338V64.9165C212.437 64.2701 211.96 63.914 211.157 63.914H209.577V65.9397H211.164ZM208.492 62.9496H211.246C212.02 62.9496 212.628 63.1708 213.027 63.551C213.367 63.9024 213.55 64.3711 213.536 64.8542V64.8715C213.536 65.8636 212.928 66.4582 212.073 66.7002L213.741 68.9851H212.455L210.935 66.8799H209.577V68.9886H208.492V62.9496ZM224.851 65.9846V65.9673C224.851 64.792 223.978 63.8207 222.751 63.8207C221.525 63.8207 220.666 64.7782 220.666 65.9501V65.9673C220.666 67.1426 221.542 68.1071 222.769 68.1071C223.995 68.1071 224.851 67.1565 224.851 65.9846ZM219.531 65.9846V65.9673C219.527 65.5525 219.609 65.1412 219.771 64.7578C219.932 64.3744 220.172 64.0268 220.474 63.7356C220.776 63.4444 221.135 63.2155 221.529 63.0627C221.923 62.9098 222.345 62.8361 222.769 62.8459C224.663 62.8459 225.985 64.2528 225.985 65.9501V65.9673C225.989 66.3818 225.908 66.7929 225.746 67.176C225.585 67.5592 225.346 67.9067 225.044 68.1978C224.743 68.489 224.384 68.7179 223.99 68.8709C223.596 69.024 223.175 69.0981 222.751 69.0888C222.329 69.0995 221.91 69.0269 221.517 68.8752C221.125 68.7236 220.768 68.496 220.467 68.2061C220.167 67.9163 219.93 67.5701 219.769 67.1884C219.609 66.8067 219.529 66.3972 219.535 65.9846H219.531ZM235.589 66.5861L234.522 64.1733L233.461 66.5861H235.589ZM234.034 62.9046H235.041L237.76 68.9886H236.611L235.985 67.5263H233.066L232.429 68.9851H231.319L234.034 62.9046ZM244.833 63.914V68.0207H246.056C247.349 68.0207 248.194 67.1668 248.194 65.9812V65.9673C248.194 64.7851 247.349 63.914 246.056 63.914H244.833ZM243.751 62.9461H246.056C247.993 62.9461 249.332 64.2528 249.332 65.9535V65.9673C249.332 67.6681 247.993 68.9851 246.056 68.9851H243.751V62.9461ZM265.84 65.9397C266.617 65.9397 267.108 65.5456 267.108 64.9338V64.9165C267.108 64.2701 266.631 63.914 265.829 63.914H264.252V65.9397H265.84ZM263.164 62.9496H265.917C266.695 62.9496 267.303 63.1708 267.699 63.551C268.039 63.9018 268.224 64.3706 268.211 64.8542V64.8715C268.211 65.8636 267.603 66.4582 266.748 66.7002L268.413 68.9851H267.126L265.606 66.8799H264.252V68.9886H263.164V62.9496ZM274.383 66.4236V62.9496H275.465V66.3787C275.465 67.5021 276.058 68.0967 277.027 68.0967C277.988 68.0967 278.582 67.5367 278.582 66.4236V62.9496H279.664V66.3718C279.664 68.1762 278.621 69.0819 277.013 69.0819C275.404 69.0819 274.383 68.1762 274.383 66.4236ZM286.09 62.9496H287.094L290.402 67.1219V62.9496H291.47V68.9816H290.561L287.157 64.6883V68.9816H286.09V62.9496ZM297.995 62.9496H298.999L302.307 67.1219V62.9496H303.371V68.9816H302.463L299.059 64.6883V68.9816H297.991L297.995 62.9496ZM309.896 62.9496H314.47V63.8967H310.981V65.4661H314.078V66.4167H310.981V68.038H314.516V68.9851H309.896V62.9496ZM323.41 65.9397C324.187 65.9397 324.682 65.5456 324.682 64.9338V64.9165C324.682 64.2701 324.205 63.914 323.402 63.914H321.822V65.9397H323.41ZM320.741 62.9496H323.491C324.268 62.9496 324.876 63.1708 325.272 63.551C325.613 63.9018 325.797 64.3706 325.785 64.8542V64.8715C325.785 65.8636 325.177 66.4582 324.318 66.7002L325.986 68.9851H324.7L323.183 66.8799H321.822V68.9886H320.741V62.9496ZM331.638 68.1071L332.289 67.3466C332.879 67.8478 333.48 68.1313 334.236 68.1313C334.908 68.1313 335.332 67.8202 335.332 67.3708V67.357C335.332 66.9249 335.085 66.6933 333.939 66.434C332.625 66.1229 331.882 65.7426 331.882 64.6296V64.6123C331.882 63.5752 332.766 62.8631 333.993 62.8631C334.89 62.8631 335.608 63.1293 336.234 63.6236L335.65 64.4221C335.176 64.0415 334.588 63.8229 333.975 63.7999C333.339 63.7999 332.967 64.1214 332.967 64.5189V64.5362C332.967 64.9994 333.25 65.2068 334.441 65.4834C335.749 65.7945 336.417 66.2508 336.417 67.2533V67.2705C336.417 68.3975 335.509 69.0681 334.212 69.0681C333.268 69.0681 332.377 68.7535 331.638 68.1071Z" fill="#1D1D1D"/>
</g>
<defs>
<clipPath id="clip0_969_1328">
<rect width="336.683" height="70" fill="white"/>
</clipPath>
</defs>
</svg>
