<svg width="40" height="40" viewBox="0 0 40 40" fill="none" xmlns="http://www.w3.org/2000/svg">
<path d="M13.331 5.84424C13.1027 6.07504 12.9749 6.38487 12.9749 6.7075C12.9749 7.03013 13.1027 7.33996 13.331 7.57076L26.0875 20.4912L13.331 33.4091C13.1027 33.6399 12.9749 33.9497 12.9749 34.2723C12.9749 34.595 13.1027 34.9048 13.331 35.1356C13.442 35.2481 13.5747 35.3376 13.7213 35.3987C13.8678 35.4597 14.0253 35.4912 14.1844 35.4912C14.3435 35.4912 14.501 35.4597 14.6476 35.3987C14.7941 35.3376 14.9268 35.2481 15.0378 35.1356L28.6033 21.3932C28.8415 21.1519 28.9749 20.8282 28.9749 20.4912C28.9749 20.1542 28.8415 19.8305 28.6033 19.5892L15.0378 5.84683C14.9268 5.73428 14.7941 5.64483 14.6476 5.58376C14.501 5.52268 14.3435 5.49121 14.1844 5.49121C14.0253 5.49121 13.8678 5.52268 13.7213 5.58376C13.5747 5.64483 13.442 5.73428 13.331 5.84683V5.84424Z" fill="#FBFBFB"/>
</svg>
